<?xml version="1.0" encoding="UTF-8" standalone="no"?>
<svg
   width="52.775517"
   height="40.824226"
   version="1.1"
   data-id="svg1"
   sodipodi:docname="AllTrails-50p.svg"
   inkscape:version="1.3.2 (091e20e, 2023-11-25, custom)"
   xmlns:inkscape="http://www.inkscape.org/namespaces/inkscape"
   xmlns:sodipodi="http://sodipodi.sourceforge.net/DTD/sodipodi-0.dtd"
   xmlns="http://www.w3.org/2000/svg"
   xmlns:svg="http://www.w3.org/2000/svg">
  <sodipodi:namedview
     id="namedview1"
     pagecolor="#ffffff"
     bordercolor="#000000"
     borderopacity="0.25"
     inkscape:showpageshadow="2"
     inkscape:pageopacity="0.0"
     inkscape:pagecheckerboard="0"
     inkscape:deskcolor="#d1d1d1"
     showgrid="false"
     inkscape:zoom="17.279922"
     inkscape:cx="26.851973"
     inkscape:cy="20.399398"
     inkscape:window-width="2560"
     inkscape:window-height="1369"
     inkscape:window-x="720"
     inkscape:window-y="2561"
     inkscape:window-maximized="1"
     inkscape:current-layer="svg1" />
  <defs
     id="defs1" />
  <path
     fill="101D30"
     d="M 34.56904,16.510399 C 33.851217,15.13939 33.296265,14.48578 32.57589,14.48578 c -0.804149,0 -1.158383,0.425251 -1.643594,1.18645 -0.391231,0.510301 -0.769279,1.208987 -1.39865,1.139672 -0.664242,-0.07017 -1.048668,-1.640192 -1.550039,-2.954217 -0.68763,-1.790731 -1.083964,-3.651628 -2.226187,-3.651628 -0.651484,0 -1.221321,0.593225 -2.104992,1.920007 l -9.127581,13.996277 c -1.048668,1.752458 -1.926386,2.973353 -0.815631,4.12153 1.30552,1.255765 4.370727,-0.94193 6.468914,-2.267862 2.097762,-1.325932 4.242301,-2.616568 7.272638,-2.547252 4.07943,0.09355 6.061098,4.187019 8.531806,4.966078 1.678464,0.534965 3.217021,-0.08122 3.543614,-1.81412 0.192213,-0.952561 -0.141183,-1.877057 -0.60173,-2.863213 z m -0.279815,8.209465 c -0.827538,0.616188 -1.981668,-0.37252 -2.727558,-0.790966 -0.792242,-0.442261 -2.132632,-1.500285 -4.533598,-1.465414 -1.95828,0.02339 -3.01928,0.756096 -4.184467,1.546637 -2.529392,1.721415 -4.813839,3.721794 -5.466598,2.686733 -0.419298,-0.66339 0.711019,-1.988897 3.368411,-6.128713 1.888113,-2.942735 3.218297,-5.29182 4.161078,-5.29182 1.041864,0 1.100549,1.022303 1.258742,2.070121 0.299802,1.669109 1.115433,2.537896 2.175157,2.674827 1.187726,0.160744 2.214281,-0.836043 3.030337,-0.825412 0.76205,0.01616 1.26342,1.119685 1.892791,2.270839 0.797345,1.430543 1.629561,2.799425 1.025705,3.253168 z"
     style="fill:#233c63;fill-opacity:1;stroke-width:0.425251"
     id="path1" />
</svg>
