<?xml version="1.0" encoding="UTF-8" standalone="no"?>
<!-- Created with Inkscape (http://www.inkscape.org/) -->

<svg
   width="210mm"
   height="297mm"
   viewBox="0 0 210 297"
   version="1.1"
   id="svg1"
   xml:space="preserve"
   inkscape:version="1.3.2 (091e20e, 2023-11-25, custom)"
   sodipodi:docname="drawing.svg"
   xmlns:inkscape="http://www.inkscape.org/namespaces/inkscape"
   xmlns:sodipodi="http://sodipodi.sourceforge.net/DTD/sodipodi-0.dtd"
   xmlns="http://www.w3.org/2000/svg"
   xmlns:svg="http://www.w3.org/2000/svg"><sodipodi:namedview
     id="namedview1"
     pagecolor="#ffffff"
     bordercolor="#000000"
     borderopacity="0.25"
     inkscape:showpageshadow="2"
     inkscape:pageopacity="0.0"
     inkscape:pagecheckerboard="0"
     inkscape:deskcolor="#d1d1d1"
     inkscape:document-units="mm"
     inkscape:zoom="1.0449705"
     inkscape:cx="451.20889"
     inkscape:cy="480.8748"
     inkscape:window-width="2544"
     inkscape:window-height="1353"
     inkscape:window-x="780"
     inkscape:window-y="2621"
     inkscape:window-maximized="0"
     inkscape:current-layer="layer1" /><defs
     id="defs1" /><g
     inkscape:label="Layer 1"
     inkscape:groupmode="layer"
     id="layer1"><path
       d="m 149.74435,190.51085 c -1.14982,0 -1.66806,0.18783 -2.41743,0.87747 -0.5941,0.54676 -0.89682,1.01895 -1.10587,1.72289 -0.58704,1.97678 0.61214,4.06283 2.65307,4.61522 0.51311,0.13888 1.79692,0.0276 2.32595,-0.20154 0.55264,-0.23943 1.33068,-0.91785 1.67225,-1.45779 0.53408,-0.84427 0.68582,-1.97769 0.39533,-2.95589 -0.20905,-0.70394 -0.51229,-1.17613 -1.1064,-1.72289 -0.74937,-0.68964 -1.26708,-0.87747 -2.4169,-0.87747 z"
       style="display:inline"
       id="path112" /><path
       d="m 149.74435,190.51085 c 1.14982,0 1.66753,0.18783 2.4169,0.87747 0.59411,0.54676 0.89735,1.01895 1.1064,1.72289 0.29049,0.9782 0.13875,2.11162 -0.39533,2.95589 -0.34157,0.53994 -1.11961,1.21836 -1.67225,1.45779 -0.52903,0.22918 -1.81284,0.34042 -2.32595,0.20154 -2.04093,-0.55239 -3.24011,-2.63844 -2.65307,-4.61522 0.20905,-0.70394 0.51177,-1.17613 1.10587,-1.72289 0.74937,-0.68964 1.26761,-0.87747 2.41743,-0.87747 z"
       style="display:inline"
       id="path111" /><path
       d="m 76.033602,190.51085 c -1.14982,0 -1.667538,0.18783 -2.416907,0.87747 -1.115177,1.0263 -1.515322,2.38761 -1.106392,3.76463 0.20932,0.70485 0.512367,1.17593 1.109493,1.72547 0.974701,0.89703 2.215794,1.15182 3.570841,0.73329 1.099474,-0.33959 2.021531,-1.29793 2.366264,-2.45876 0.40893,-1.37702 0.0093,-2.73833 -1.105876,-3.76463 -0.749369,-0.68964 -1.267603,-0.87747 -2.417423,-0.87747 z"
       style="display:inline"
       id="path110" /><path
       d="m 76.033602,190.51085 c 1.14982,0 1.668054,0.18783 2.417423,0.87747 1.115219,1.0263 1.514806,2.38761 1.105876,3.76463 -0.344733,1.16083 -1.26679,2.11917 -2.366264,2.45876 -1.355047,0.41853 -2.59614,0.16374 -3.570841,-0.73329 -0.597126,-0.54954 -0.900173,-1.02062 -1.109493,-1.72547 -0.40893,-1.37702 -0.0088,-2.73833 1.106392,-3.76463 0.749369,-0.68964 1.267087,-0.87747 2.416907,-0.87747 z"
       style="display:inline"
       id="path109" /><path
       d="m 194.26463,168.36285 c -1.72771,-0.14575 -3.31743,0.95162 -3.81734,2.63498 -0.40939,1.37856 -0.009,2.73794 1.10898,3.76721 0.9747,0.89702 2.21579,1.15182 3.57084,0.73329 1.09947,-0.3396 2.02204,-1.29791 2.36678,-2.45876 0.40893,-1.37701 0.009,-2.73782 -1.10639,-3.76411 -0.60621,-0.55789 -1.2619,-0.83998 -2.12287,-0.91261 z"
       style="display:inline"
       id="path108" /><path
       d="m 114.93665,161.01446 c -2.89891,-0.001 -3.03934,0.008 -3.50314,0.22428 -1.69083,0.78867 -2.58192,2.69773 -2.06758,4.4297 0.20905,0.70394 0.51177,1.17613 1.10588,1.72289 0.89129,0.82024 1.12314,0.87668 3.77393,0.92036 l 2.32906,0.0382 v 7.35407 7.35459 l -2.32906,0.0382 c -2.65079,0.0437 -2.88264,0.10012 -3.77393,0.92036 -0.59411,0.54676 -0.89683,1.01895 -1.10588,1.72289 -0.40893,1.37701 -0.009,2.73782 1.10588,3.76412 0.89041,0.81943 1.1248,0.87685 3.75998,0.92035 l 2.3151,0.0382 0.0656,0.7059 c 0.0847,0.91166 0.44808,2.04787 0.93741,2.92902 0.50266,0.90516 1.82512,2.23394 2.71508,2.728 1.52577,0.84704 2.21259,0.97333 5.33353,0.9834 2.25183,0.007 2.59437,-0.0138 3.18895,-0.1974 0,0 5.1e-4,0 5.1e-4,0 1.09929,-0.33971 2.02159,-1.29808 2.36627,-2.45876 0.40893,-1.37702 0.009,-2.73833 -1.10588,-3.76463 -0.89128,-0.82024 -1.12314,-0.87668 -3.77393,-0.92036 l -2.32905,-0.0382 v -3.67729 -3.6773 h 3.67109 3.67058 l 0.0667,0.71469 c 0.1555,1.67309 0.89432,3.20374 2.15491,4.46432 0.92115,0.92116 1.78774,1.45821 3.01222,1.86707 0.68726,0.22949 0.9566,0.262 2.16679,0.262 1.21018,0 1.47953,-0.0325 2.16679,-0.262 1.22448,-0.40886 2.09107,-0.94591 3.01222,-1.86707 0.92116,-0.92115 1.45821,-1.78722 1.86707,-3.0117 0.22949,-0.68726 0.262,-0.95713 0.262,-2.16731 0,-1.21019 -0.0325,-1.47953 -0.262,-2.16679 -0.40886,-1.22448 -0.94591,-2.09107 -1.86707,-3.01222 -0.91816,-0.91817 -1.78053,-1.45356 -3.01222,-1.87069 l -0.78496,-0.26562 -4.36201,-0.0336 -4.36253,-0.0341 -0.0656,-0.70797 c -0.15493,-1.66698 -0.89599,-3.20024 -2.15491,-4.45916 -1.25681,-1.25681 -2.79162,-1.99915 -4.45089,-2.15336 l -0.70125,-0.0651 -0.0651,-0.70125 c -0.15422,-1.65926 -0.89655,-3.19408 -2.15336,-4.45089 -0.91739,-0.91738 -1.77862,-1.4524 -3.01222,-1.87172 -0.77541,-0.26357 -0.82129,-0.26705 -3.80494,-0.2682 z"
       style="display:inline"
       id="path107" /><path
       d="m 39.178487,160.96847 c -2.134366,0 -4.268435,0.62828 -6.19342,1.88516 -0.790629,0.51622 -2.455172,2.18076 -2.971395,2.97139 -1.917455,2.93671 -2.385989,6.32827 -1.331185,9.64076 0.289647,0.9096 0.745376,1.84939 1.331185,2.7466 0.516223,0.79063 2.180766,2.45517 2.971395,2.97139 2.415312,1.57703 5.290447,2.20502 7.963338,1.73891 2.459316,-0.42886 4.260637,-1.36211 6.01617,-3.11763 1.366999,-1.367 2.176072,-2.66281 2.709912,-4.33927 1.054804,-3.31249 0.586787,-6.70405 -1.330668,-9.64076 -0.516223,-0.79063 -2.180764,-2.45517 -2.971395,-2.97139 -1.924985,-1.25688 -4.059571,-1.88516 -6.193937,-1.88516 z"
       style="display:inline"
       id="path106" /><path
       d="m 83.788167,153.6299 c -0.481215,-0.0472 -0.983809,-8.8e-4 -1.48518,0.15141 -1.1521,0.34994 -2.068867,1.28715 -2.421558,2.47479 -0.14483,0.48769 -0.162264,2.17505 -0.162264,15.76286 0,13.5878 0.01743,15.27516 0.162264,15.76286 0.593855,1.99973 2.619555,3.08342 4.625041,2.47427 1.152099,-0.34994 2.068867,-1.28663 2.421557,-2.47427 0.139622,-0.47016 0.162264,-1.34847 0.162264,-6.31176 v -5.76554 h 3.685563 3.685564 v 7.36234 7.36286 l -2.329057,0.0382 c -2.650787,0.0437 -2.88213,0.10012 -3.773413,0.92036 -0.594111,0.54676 -0.897346,1.01895 -1.106393,1.72289 -0.586655,1.97548 0.634197,4.09679 2.653068,4.61005 0.16892,0.0429 3.969629,0.0706 8.445996,0.0615 l 8.139041,-0.0165 0.48317,-0.22531 c 1.69083,-0.78867 2.58192,-2.69773 2.06758,-4.4297 -0.20905,-0.70394 -0.51228,-1.17613 -1.1064,-1.72289 -0.89106,-0.82004 -1.12294,-0.87672 -3.76979,-0.92036 l -2.32596,-0.0382 -0.0289,-8.05377 -0.0289,-8.05377 -0.2682,-0.78497 c -0.42193,-1.23591 -0.95629,-2.09525 -1.87275,-3.0117 -0.918163,-0.91817 -1.780535,-1.45408 -3.01222,-1.8712 l -0.784965,-0.26562 -4.376477,-0.0336 -4.376477,-0.0336 v -5.75986 c 0,-4.9578 -0.02265,-5.83543 -0.162264,-6.30555 -0.445391,-1.4998 -1.696214,-2.48465 -3.13986,-2.6262 z"
       style="display:inline"
       id="path104" /><path
       d="m 83.788167,153.6299 c 1.443646,0.14155 2.694469,1.1264 3.13986,2.6262 0.139613,0.47012 0.162264,1.34775 0.162264,6.30555 v 5.75986 l 4.376477,0.0336 4.376477,0.0336 0.784965,0.26562 c 1.231685,0.41712 2.094057,0.95303 3.01222,1.8712 0.91646,0.91645 1.45082,1.77579 1.87275,3.0117 l 0.2682,0.78497 0.0289,8.05377 0.0289,8.05377 2.32596,0.0382 c 2.64685,0.0436 2.87873,0.10032 3.76979,0.92036 0.59412,0.54676 0.89735,1.01895 1.1064,1.72289 0.51434,1.73197 -0.37675,3.64103 -2.06758,4.4297 l -0.48317,0.22531 -8.139041,0.0165 c -4.476367,0.009 -8.277076,-0.0186 -8.445996,-0.0615 -2.018871,-0.51326 -3.239723,-2.63457 -2.653068,-4.61005 0.209047,-0.70394 0.512282,-1.17613 1.106393,-1.72289 0.891283,-0.82024 1.122626,-0.87666 3.773413,-0.92036 l 2.329057,-0.0382 v -7.36286 -7.36234 h -3.685564 -3.685563 v 5.76554 c 0,4.96329 -0.02264,5.8416 -0.162264,6.31176 -0.35269,1.18764 -1.269458,2.12433 -2.421557,2.47427 -2.005486,0.60915 -4.031186,-0.47454 -4.625041,-2.47427 -0.144833,-0.4877 -0.162264,-2.17506 -0.162264,-15.76286 0,-13.58781 0.01743,-15.27517 0.162264,-15.76286 0.352691,-1.18764 1.269458,-2.12485 2.421558,-2.47479 0.501371,-0.15229 1.003965,-0.19859 1.48518,-0.15141 z"
       style="display:inline"
       id="path103" /><path
       d="m 186.63047,153.60148 c -0.86106,-0.01 -1.72195,0.28249 -2.38487,0.8785 -1.15979,1.04275 -1.3317,1.60928 -1.3317,4.38733 v 2.0655 l -0.71417,0.0662 c -1.6731,0.15549 -3.20426,0.89484 -4.46484,2.15542 -0.91646,0.91646 -1.45083,1.77581 -1.87276,3.0117 l -0.2682,0.78497 -0.0289,8.05636 -0.0289,8.05583 -4.37338,0.0336 -4.37286,0.0336 -0.78497,0.26614 c -1.23167,0.41713 -2.09405,0.95252 -3.01221,1.87068 -0.92115,0.92115 -1.4577,1.78774 -1.86656,3.01222 -0.22948,0.68726 -0.26251,0.95661 -0.26251,2.1668 0,1.21018 0.033,1.47952 0.26251,2.16679 0.40886,1.22447 0.94541,2.09106 1.86656,3.01222 0.82161,0.82161 1.70082,1.40336 2.62464,1.73684 1.24377,0.44897 0.97771,0.4415 15.505,0.4222 l 13.82086,-0.0181 0.48317,-0.22531 c 1.69083,-0.78867 2.58192,-2.69773 2.06758,-4.4297 -0.20905,-0.70394 -0.51228,-1.17613 -1.10639,-1.72289 -0.89091,-0.8199 -1.12363,-0.87676 -3.76773,-0.92036 l -2.32286,-0.0382 -0.0336,-4.36821 -0.0336,-4.36821 -0.26613,-0.78496 c -0.41713,-1.23169 -0.95252,-2.09405 -1.87069,-3.01222 -1.26058,-1.26059 -2.79174,-1.99941 -4.46484,-2.15491 l -0.71417,-0.0661 v -3.65611 -3.65663 l 0.71417,-0.0661 c 1.6731,-0.1555 3.20426,-0.89433 4.46484,-2.15491 0.9208,-0.9208 1.45776,-1.7869 1.86759,-3.01222 0.25031,-0.74838 0.26451,-0.91189 0.30231,-3.51865 0.0508,-3.50624 -0.0692,-3.99385 -1.24644,-5.07721 -0.6637,-0.61081 -1.52485,-0.92212 -2.3859,-0.93172 z"
       style="display:inline"
       id="path102" /><path
       d="m 186.63047,153.60148 c 0.86105,0.01 1.7222,0.32091 2.3859,0.93172 1.17721,1.08336 1.29724,1.57097 1.24644,5.07721 -0.0378,2.60676 -0.052,2.77027 -0.30231,3.51865 -0.40983,1.22532 -0.94679,2.09142 -1.86759,3.01222 -1.26058,1.26058 -2.79174,1.99941 -4.46484,2.15491 l -0.71417,0.0661 v 3.65663 3.65611 l 0.71417,0.0661 c 1.6731,0.1555 3.20426,0.89432 4.46484,2.15491 0.91817,0.91817 1.45356,1.78053 1.87069,3.01222 l 0.26613,0.78496 0.0336,4.36821 0.0336,4.36821 2.32286,0.0382 c 2.6441,0.0436 2.87682,0.10046 3.76773,0.92036 0.59411,0.54676 0.89734,1.01895 1.10639,1.72289 0.51434,1.73197 -0.37675,3.64103 -2.06758,4.4297 l -0.48317,0.22531 -13.82086,0.0181 c -14.52729,0.0193 -14.26123,0.0268 -15.505,-0.4222 -0.92382,-0.33348 -1.80303,-0.91523 -2.62464,-1.73684 -0.92115,-0.92116 -1.4577,-1.78775 -1.86656,-3.01222 -0.22947,-0.68727 -0.26251,-0.95661 -0.26251,-2.16679 0,-1.21019 0.033,-1.47954 0.26251,-2.1668 0.40886,-1.22448 0.94541,-2.09107 1.86656,-3.01222 0.91816,-0.91816 1.78054,-1.45355 3.01221,-1.87068 l 0.78497,-0.26614 4.37286,-0.0336 4.37338,-0.0336 0.0289,-8.05583 0.0289,-8.05636 0.2682,-0.78497 c 0.42193,-1.23589 0.9563,-2.09524 1.87276,-3.0117 1.26058,-1.26058 2.79174,-1.99993 4.46484,-2.15542 l 0.71417,-0.0662 v -2.0655 c 0,-2.77805 0.17191,-3.34458 1.3317,-4.38733 0.66292,-0.59601 1.52381,-0.8881 2.38487,-0.8785 z m 7.63416,14.76137 c 0.86097,0.0726 1.51666,0.35472 2.12287,0.91261 1.11521,1.02629 1.51532,2.3871 1.10639,3.76411 -0.34474,1.16085 -1.26731,2.11916 -2.36678,2.45876 -1.35505,0.41853 -2.59614,0.16373 -3.57084,-0.73329 -1.1183,-1.02927 -1.51837,-2.38865 -1.10898,-3.76721 0.49991,-1.68336 2.08963,-2.78073 3.81734,-2.63498 z"
       style="display:inline"
       id="path101" /><path
       d="m 76.033602,146.28461 c -1.14982,0 -1.667538,0.18783 -2.416907,0.87747 -1.115177,1.0263 -1.515322,2.38761 -1.106392,3.76462 0.20932,0.70485 0.512367,1.17594 1.109493,1.72548 0.974701,0.89703 2.215794,1.15182 3.570841,0.73329 1.099474,-0.33959 2.021531,-1.29793 2.366264,-2.45877 0.40893,-1.37701 0.0093,-2.73832 -1.105876,-3.76462 -0.749369,-0.68964 -1.267603,-0.87747 -2.417423,-0.87747 z"
       style="display:inline"
       id="path99" /><path
       d="m 39.178487,146.27273 c -4.425189,0 -7.906441,0.84045 -11.824084,2.8546 -2.553363,1.31274 -4.492705,2.73657 -6.553089,4.81211 -3.813038,3.84108 -6.326747,8.91371 -7.183541,14.49627 -0.254298,1.65692 -0.253137,5.52143 0.0021,7.16597 0.824796,5.31442 2.918379,9.77077 6.458521,13.74697 3.828296,4.29984 9.533172,7.33674 15.414563,8.20518 1.590748,0.23489 1.799923,0.24516 4.197677,0.20826 1.606741,-0.0247 2.534063,-0.09 3.434932,-0.24185 4.47634,-0.75432 8.529745,-2.53246 12.125875,-5.31905 1.12799,-0.87406 3.032889,-2.77452 4.015775,-4.00699 2.751447,-3.45011 4.694948,-7.80875 5.387268,-12.0804 0.375083,-2.31429 0.400997,-5.54155 0.06253,-7.78041 -0.515473,-3.40969 -1.776179,-6.87796 -3.572909,-9.82834 -3.39689,-5.57797 -9.182593,-9.84738 -15.52515,-11.45614 -2.357528,-0.59799 -3.837455,-0.77618 -6.440434,-0.77618 z m 0,7.37784 c 3.012036,-0.002 5.352248,0.53107 8.036719,1.83038 5.561284,2.69171 9.149859,7.61079 10.197827,13.97847 0.186778,1.13491 0.163206,4.13766 -0.04237,5.37487 -1.154254,6.94649 -5.794759,12.43433 -12.369787,14.62908 -2.454106,0.81918 -4.897099,1.10612 -7.460527,0.87643 -3.069607,-0.27505 -6.087096,-1.3327 -8.597408,-3.01325 -4.270434,-2.85888 -7.08347,-7.27482 -7.957654,-12.49226 -0.232948,-1.39032 -0.228951,-4.22879 0.0078,-5.68182 0.861779,-5.29025 3.922595,-9.95022 8.332825,-12.68553 3.121027,-1.93572 6.192296,-2.8139 9.852628,-2.81637 z"
       style="display:inline"
       id="path98" /><path
       d="m 100.1944,146.27221 c -3.434816,-0.001 -3.513746,0.0146 -4.464843,0.88987 -0.59411,0.54676 -0.896829,1.01843 -1.105875,1.72237 -0.408931,1.37702 -0.0093,2.73834 1.105875,3.76463 0.891282,0.82025 1.123146,0.87669 3.77393,0.92036 l 2.329053,0.0382 v 2.07171 c 0,2.75094 0.16895,3.32895 1.27124,4.3434 0.9747,0.89703 2.2158,1.15234 3.57085,0.73381 0.73039,-0.2256 1.53891,-0.85849 1.97042,-1.54203 0.5181,-0.82073 0.57887,-1.30707 0.53588,-4.27157 -0.0378,-2.60676 -0.0515,-2.77027 -0.30179,-3.51865 -0.40983,-1.22532 -0.94678,-2.09142 -1.86758,-3.01222 -0.91739,-0.91738 -1.77862,-1.45241 -3.01222,-1.87172 -0.77542,-0.26357 -0.82129,-0.26705 -3.80494,-0.2682 z"
       style="display:inline"
       id="path97" /><path
       d="m 194.35403,131.51652 c -0.48122,-0.0472 -0.98381,-3.6e-4 -1.48518,0.15193 -1.1521,0.34994 -2.06887,1.28664 -2.42156,2.47427 -0.24074,0.81067 -0.24074,8.60219 0,9.41286 0.37253,1.25442 1.3761,2.22787 2.65307,2.57348 0.51311,0.13888 1.79692,0.0276 2.32595,-0.20153 0.55264,-0.23943 1.33068,-0.91786 1.67225,-1.4578 0.52653,-0.83232 0.55759,-1.1428 0.55759,-5.62084 0,-3.4983 -0.0259,-4.2469 -0.16226,-4.70617 -0.4454,-1.4998 -1.69621,-2.48465 -3.13986,-2.6262 z"
       style="display:inline"
       id="path95" /><path
       d="m 105.81215,131.50774 c -1.72771,-0.14575 -3.31743,0.95162 -3.81734,2.63498 -0.40939,1.37856 -0.009,2.73794 1.10897,3.76721 0.9747,0.89702 2.2158,1.15182 3.57085,0.73329 1.09946,-0.3396 2.02204,-1.29792 2.36678,-2.45877 0.40893,-1.37701 0.009,-2.73833 -1.1064,-3.76463 -0.6062,-0.55789 -1.26189,-0.83945 -2.12286,-0.91208 z"
       style="display:inline"
       id="path94" /><path
       d="m 61.585905,131.50774 c -1.727713,-0.14575 -3.317434,0.95162 -3.817338,2.63498 -0.409388,1.37856 -0.0094,2.73794 1.108976,3.76721 0.974702,0.89702 2.215794,1.15182 3.570842,0.73329 1.099474,-0.3396 2.022047,-1.29792 2.36678,-2.45877 0.40893,-1.37701 0.0088,-2.73833 -1.106392,-3.76463 -0.606207,-0.55789 -1.261903,-0.83945 -2.122868,-0.91208 z"
       style="display:inline"
       id="path93" /><path
       d="m 46.843652,131.50774 c -1.727713,-0.14575 -3.317432,0.95162 -3.817338,2.63498 -0.409387,1.37856 -0.0089,2.73794 1.109493,3.76721 0.974701,0.89702 2.215277,1.15182 3.570325,0.73329 1.099474,-0.3396 2.022048,-1.29792 2.366781,-2.45877 0.408929,-1.37701 0.0088,-2.73833 -1.106393,-3.76463 -0.606206,-0.55789 -1.261903,-0.83945 -2.122868,-0.91208 z"
       style="display:inline"
       id="path92" /><path
       d="m 32.101917,131.50774 c -1.727714,-0.14575 -3.317951,0.95162 -3.817855,2.63498 -0.409388,1.37856 -0.0089,2.73794 1.109493,3.76721 0.974702,0.89702 2.215794,1.15182 3.570841,0.73329 1.099474,-0.3396 2.02153,-1.29792 2.366264,-2.45877 0.40893,-1.37701 0.0093,-2.73833 -1.105876,-3.76463 -0.606206,-0.55789 -1.261902,-0.83945 -2.122867,-0.91208 z"
       style="display:inline"
       id="path91" /><path
       d="m 39.472526,124.13661 c -1.727713,-0.14575 -3.317434,0.95162 -3.817338,2.63498 -0.409389,1.37856 -0.0089,2.73793 1.109493,3.76721 0.974702,0.89702 2.215278,1.15182 3.570325,0.73329 1.099474,-0.3396 2.022047,-1.29792 2.36678,-2.45876 0.40893,-1.37701 0.0093,-2.73782 -1.105875,-3.76412 -0.606207,-0.55788 -1.26242,-0.83997 -2.123385,-0.9126 z"
       style="display:inline"
       id="path90" /><path
       d="m 116.84041,124.12782 c -4.18017,-0.0295 -4.42617,-0.0209 -5.08186,0.17829 -1.12196,0.34078 -2.0438,1.29088 -2.39262,2.46548 -0.58655,1.97513 0.64058,4.1071 2.65307,4.60902 0.16892,0.0421 2.2024,0.081 4.51911,0.0868 3.94711,0.01 4.25438,-0.002 4.87877,-0.19534 1.09947,-0.3396 2.02153,-1.29792 2.36626,-2.45876 0.29049,-0.9782 0.13928,-2.11163 -0.39481,-2.9559 -0.33351,-0.5272 -1.11055,-1.21188 -1.67276,-1.47381 -0.47046,-0.21919 -0.59837,-0.22561 -4.87516,-0.2558 z"
       style="display:inline"
       id="path89" /><path
       d="m 127.92501,116.76548 c -1.72772,-0.14575 -3.31744,0.95163 -3.81734,2.63498 -0.40939,1.37856 -0.009,2.73795 1.10949,3.76722 0.9747,0.89702 2.21528,1.15182 3.57033,0.73328 1.09948,-0.33959 2.02205,-1.29792 2.36678,-2.45876 0.40893,-1.37702 0.009,-2.73782 -1.10588,-3.76411 -0.60621,-0.5579 -1.26242,-0.83998 -2.12338,-0.91261 z"
       style="display:inline"
       id="path88" /><path
       d="m 17.359664,116.76548 c -1.727713,-0.14575 -3.317433,0.95163 -3.817338,2.63498 -0.409388,1.37856 -0.0094,2.73795 1.108976,3.76722 0.974701,0.89702 2.215794,1.15182 3.570842,0.73328 1.099473,-0.33959 2.022047,-1.29792 2.36678,-2.45876 0.40893,-1.37702 0.0088,-2.73782 -1.106392,-3.76411 -0.606207,-0.5579 -1.261903,-0.83998 -2.122868,-0.91261 z"
       style="display:inline"
       id="path87" /><path
       d="m 120.5544,109.39436 c -1.72772,-0.14574 -3.31795,0.95162 -3.81786,2.63498 -0.40938,1.37856 -0.009,2.73794 1.1095,3.76721 0.97471,0.89703 2.21579,1.15233 3.57084,0.7338 1.09947,-0.33958 2.02153,-1.29844 2.36626,-2.45928 0.40893,-1.37702 0.009,-2.73781 -1.10587,-3.76411 -0.60621,-0.55789 -1.26191,-0.83997 -2.12287,-0.9126 z"
       style="display:inline"
       id="path86" /><path
       d="m 120.5544,109.39436 c 0.86096,0.0726 1.51666,0.35471 2.12287,0.9126 1.11522,1.0263 1.5148,2.38709 1.10587,3.76411 -0.34473,1.16084 -1.26679,2.1197 -2.36626,2.45928 -1.35505,0.41853 -2.59613,0.16323 -3.57084,-0.7338 -1.1183,-1.02927 -1.51888,-2.38865 -1.1095,-3.76721 0.49991,-1.68336 2.09014,-2.78072 3.81786,-2.63498 z"
       style="display:inline"
       id="path85" /><path
       d="m 91.159294,102.03253 c -0.481216,-0.0472 -0.98381,-8.7e-4 -1.485181,0.15141 -1.152099,0.34994 -2.068867,1.28663 -2.421558,2.47427 -0.139623,0.47016 -0.162264,1.34849 -0.162264,6.31176 v 5.76606 h -3.679362 -3.679362 l -0.03411,-4.377 -0.03359,-4.37647 -0.265617,-0.78445 c -0.417127,-1.23169 -0.953036,-2.09405 -1.871203,-3.01222 -0.916453,-0.91645 -1.775799,-1.45083 -3.011703,-1.87276 l -0.784965,-0.2682 h -6.705534 c -6.695583,0 -6.706248,2.7e-4 -7.188708,0.22531 -1.690826,0.78868 -2.581916,2.69773 -2.067574,4.42971 0.209047,0.70394 0.511765,1.17613 1.105876,1.72289 0.891283,0.82025 1.123143,0.87669 3.773929,0.92036 l 2.329057,0.0382 v 3.67729 3.6773 h -3.685563 -3.685563 v -2.0805 c 0,-2.75839 -0.16896,-3.33651 -1.268657,-4.34857 -1.971441,-1.81431 -5.188077,-0.86137 -5.951057,1.7632 -0.142912,0.4916 -0.162804,0.99639 -0.129192,3.31401 0.0378,2.60676 0.05199,2.77027 0.302308,3.51865 0.409828,1.22532 0.946787,2.09142 1.867586,3.01222 0.918167,0.91817 1.780534,1.45357 3.012219,1.87069 l 0.784448,0.26561 4.362525,0.0336 4.362524,0.0341 0.06563,0.70797 c 0.15493,1.66698 0.89599,3.20024 2.154907,4.45916 0.918168,0.91816 1.780018,1.45355 3.011703,1.87068 l 0.784965,0.26562 4.362524,0.0336 4.362525,0.0341 0.06563,0.70796 c 0.15493,1.66698 0.895472,3.19973 2.15439,4.45864 1.260582,1.26059 2.791751,1.99993 4.464844,2.15543 l 0.714168,0.0661 v 2.06551 c 0,2.74393 0.170083,3.32333 1.271757,4.3372 0.974702,0.89703 2.215277,1.15182 3.570325,0.73329 0.72907,-0.22519 1.538954,-0.85818 1.968355,-1.5384 0.55069,-0.87235 0.56069,-1.00254 0.56069,-7.21765 v -5.75107 l 0.714168,-0.0661 c 1.673092,-0.1555 3.204265,-0.89484 4.464844,-2.15542 1.26059,-1.26058 1.99941,-2.79124 2.15491,-4.46433 l 0.0667,-0.71417 h 2.07326 c 2.53023,0 3.08817,-0.12659 3.93826,-0.8909 0.64271,-0.57785 0.95218,-1.04768 1.16789,-1.77405 0.29049,-0.9782 0.13875,-2.11162 -0.39533,-2.95589 -0.33337,-0.52698 -1.10987,-1.2115 -1.67225,-1.47381 -0.47823,-0.22307 -0.54495,-0.22561 -6.49779,-0.25477 l -6.014622,-0.0294 v -5.76193 c 0,-4.95974 -0.02265,-5.838 -0.162264,-6.30814 -0.445392,-1.49979 -1.696214,-2.48413 -3.13986,-2.62568 z"
       style="display:inline"
       id="path84" /><path
       style="display:inline"
       d="m 194.35403,131.51674 c 1.44365,0.14155 2.69446,1.1264 3.13986,2.6262 0.13639,0.45927 0.16226,1.20787 0.16226,4.70617 0,4.47804 -0.0311,4.78852 -0.55759,5.62084 -0.34157,0.53994 -1.11961,1.21837 -1.67225,1.4578 -0.52903,0.22918 -1.81284,0.34041 -2.32595,0.20153 -1.27697,-0.34561 -2.28054,-1.31906 -2.65307,-2.57348 -0.24074,-0.81067 -0.24074,-8.60219 0,-9.41286 0.35269,-1.18763 1.26946,-2.12433 2.42156,-2.47427 0.50137,-0.15229 1.00396,-0.19911 1.48518,-0.15193 z"
       id="path115" /><path
       style="display:inline"
       d="m 105.81215,131.50774 c 0.86097,0.0726 1.51666,0.35419 2.12286,0.91208 1.11523,1.0263 1.51533,2.38762 1.1064,3.76463 -0.34474,1.16085 -1.26732,2.11917 -2.36678,2.45877 -1.35505,0.41853 -2.59615,0.16373 -3.57085,-0.73329 -1.11829,-1.02927 -1.51836,-2.38865 -1.10897,-3.76721 0.49991,-1.68336 2.08963,-2.78073 3.81734,-2.63498 z"
       id="path114" /><path
       style="display:inline"
       d="m 116.84041,124.12782 c 4.27679,0.0302 4.4047,0.0366 4.87516,0.2558 0.56221,0.26193 1.33925,0.94661 1.67276,1.47381 0.53409,0.84427 0.6853,1.9777 0.39481,2.9559 -0.34473,1.16084 -1.26679,2.11916 -2.36626,2.45876 -0.62439,0.19332 -0.93166,0.20534 -4.87877,0.19534 -2.31671,-0.006 -4.35019,-0.0447 -4.51911,-0.0868 -2.01249,-0.50192 -3.23962,-2.63389 -2.65307,-4.60902 0.34882,-1.1746 1.27066,-2.1247 2.39262,-2.46548 0.65569,-0.19917 0.90169,-0.20779 5.08186,-0.17829 z"
       id="path113" /><path
       style="display:inline"
       d="m 91.159294,102.03253 c 1.443646,0.14155 2.694468,1.12589 3.13986,2.62568 0.139613,0.47014 0.162264,1.3484 0.162264,6.30814 v 5.76193 l 6.014622,0.0294 c 5.95284,0.0292 6.01956,0.0317 6.49779,0.25477 0.56238,0.26231 1.33888,0.94683 1.67225,1.47381 0.53408,0.84427 0.68582,1.97769 0.39533,2.95589 -0.21571,0.72637 -0.52518,1.1962 -1.16789,1.77405 -0.85009,0.76431 -1.40803,0.8909 -3.93826,0.8909 H 101.862 l -0.0667,0.71417 c -0.1555,1.67309 -0.89432,3.20375 -2.15491,4.46433 -1.260579,1.26058 -2.791752,1.99992 -4.464844,2.15542 l -0.714168,0.0661 v 5.75107 c 0,6.21511 -0.01,6.3453 -0.56069,7.21765 -0.429401,0.68022 -1.239285,1.31321 -1.968355,1.5384 -1.355048,0.41853 -2.595623,0.16374 -3.570325,-0.73329 -1.101674,-1.01387 -1.271757,-1.59327 -1.271757,-4.3372 v -2.06551 l -0.714168,-0.0661 c -1.673093,-0.1555 -3.204262,-0.89484 -4.464844,-2.15543 -1.258918,-1.25891 -1.99946,-2.79166 -2.15439,-4.45864 l -0.06563,-0.70796 -4.362525,-0.0341 -4.362524,-0.0336 -0.784965,-0.26562 c -1.231685,-0.41713 -2.093535,-0.95252 -3.011703,-1.87068 -1.258917,-1.25892 -1.999977,-2.79218 -2.154907,-4.45916 l -0.06563,-0.70797 -4.362524,-0.0341 -4.362525,-0.0336 -0.784448,-0.26561 c -1.231685,-0.41712 -2.094052,-0.95252 -3.012219,-1.87069 -0.920799,-0.9208 -1.457758,-1.7869 -1.867586,-3.01222 -0.250314,-0.74838 -0.264508,-0.91189 -0.302308,-3.51865 -0.03361,-2.31762 -0.01372,-2.82241 0.129192,-3.31401 0.76298,-2.62457 3.979616,-3.57751 5.951057,-1.7632 1.099697,1.01206 1.268657,1.59018 1.268657,4.34857 v 2.0805 h 3.685563 3.685563 v -3.6773 -3.67729 l -2.329057,-0.0382 c -2.650786,-0.0437 -2.882646,-0.10011 -3.773929,-0.92036 -0.594111,-0.54676 -0.896829,-1.01895 -1.105876,-1.72289 -0.514342,-1.73198 0.376748,-3.64103 2.067574,-4.42971 0.48246,-0.22504 0.493125,-0.22531 7.188708,-0.22531 h 6.705534 l 0.784965,0.2682 c 1.235904,0.42193 2.09525,0.95631 3.011703,1.87276 0.918167,0.91817 1.454076,1.78053 1.871203,3.01222 l 0.265617,0.78445 0.03359,4.37647 0.03411,4.377 h 3.679362 3.679362 v -5.76606 c 0,-4.96327 0.02264,-5.8416 0.162264,-6.31176 0.352691,-1.18764 1.269459,-2.12433 2.421558,-2.47427 0.501371,-0.15228 1.003965,-0.19859 1.485181,-0.15141 z"
       id="path83" /><path
       d="m 113.18327,102.02375 c -1.72772,-0.14574 -3.31743,0.95161 -3.81734,2.63498 -0.40939,1.37856 -0.009,2.73794 1.10898,3.76721 0.97471,0.89703 2.21579,1.15182 3.57084,0.73329 1.09947,-0.33959 2.02204,-1.29793 2.36678,-2.45877 0.40893,-1.37701 0.009,-2.73833 -1.10639,-3.76462 -0.60621,-0.55789 -1.26191,-0.83946 -2.12287,-0.91209 z"
       style="display:inline"
       id="path82" /><path
       d="m 113.18327,102.02375 c 0.86096,0.0726 1.51666,0.3542 2.12287,0.91209 1.11522,1.02629 1.51532,2.38761 1.10639,3.76462 -0.34474,1.16084 -1.26731,2.11918 -2.36678,2.45877 -1.35505,0.41853 -2.59613,0.16374 -3.57084,-0.73329 -1.1183,-1.02927 -1.51837,-2.38865 -1.10898,-3.76721 0.49991,-1.68337 2.08962,-2.78072 3.81734,-2.63498 z"
       style="display:inline"
       id="path81" /><path
       id="path80"
       style="display:inline"
       inkscape:label="outer"
       d="M 185.22435 94.644352 C 178.99015 94.615172 178.75979 94.620892 178.09559 94.822636 C 176.97637 95.16259 176.0535 96.114204 175.70504 97.287602 C 175.29611 98.664608 175.69604 100.02541 176.81143 101.05171 C 177.70271 101.87196 177.93407 101.92839 180.58484 101.97207 L 182.9139 102.01083 L 182.9139 105.68761 L 182.9139 109.3649 L 179.22834 109.3649 L 175.54277 109.3649 L 175.54277 107.28492 C 175.54277 104.52654 175.37433 103.94787 174.27463 102.93584 C 172.94724 101.71422 170.82919 101.69056 169.50335 102.88261 C 168.34208 103.92669 168.17165 104.49052 168.17165 107.28492 L 168.17165 109.3649 L 160.80052 109.3649 L 153.42991 109.3649 L 153.42991 107.28492 C 153.42991 104.52654 153.26094 103.94787 152.16125 102.93584 C 151.41189 102.2462 150.89417 102.05785 149.74435 102.05785 C 148.59453 102.05785 148.07629 102.2462 147.32692 102.93584 C 146.22724 103.94787 146.05878 104.52654 146.05878 107.28492 L 146.05878 109.3649 L 143.97054 109.3649 C 141.42406 109.3649 140.86859 109.48989 140.01729 110.25529 C 139.37457 110.83314 139.06563 111.30298 138.84992 112.02934 C 138.55943 113.00754 138.71064 114.14148 139.24473 114.98575 C 139.5781 115.51273 140.35512 116.19724 140.9175 116.45956 C 141.39572 116.68262 141.46246 116.68516 147.41529 116.71432 L 153.42991 116.74378 L 153.42991 124.11077 L 153.42991 131.47776 L 149.74435 131.47776 L 146.05878 131.47776 L 146.05878 129.39779 C 146.05878 126.63938 145.88983 126.06126 144.79013 125.04921 C 144.04076 124.35958 143.52304 124.17123 142.37322 124.17123 C 141.2234 124.17123 140.70517 124.35958 139.9558 125.04921 C 138.8561 126.06126 138.68766 126.63938 138.68766 129.39779 L 138.68766 131.47776 L 132.91437 131.47776 C 127.42027 131.47776 127.10854 131.48816 126.47445 131.68395 C 125.37498 132.02354 124.4524 132.98188 124.10767 134.14272 C 123.69874 135.51974 124.09867 136.88053 125.21406 137.90683 C 126.10534 138.72708 126.33669 138.78402 128.98748 138.8277 L 131.31653 138.86594 L 131.31653 142.54324 L 131.31653 146.22002 L 127.64596 146.22002 L 123.97486 146.22002 L 123.90872 145.50585 C 123.75322 143.83275 123.01387 142.30158 121.75329 141.041 C 120.83249 140.1202 119.96691 139.58325 118.74159 139.17342 C 117.99293 138.92301 117.82979 138.90954 115.21364 138.87163 C 112.66363 138.83473 112.42192 138.84683 111.77044 139.04474 C 110.63608 139.38929 109.71585 140.33382 109.36542 141.51384 C 108.95649 142.89085 109.35642 144.25167 110.47181 145.27795 C 111.36222 146.09739 111.59609 146.15481 114.23127 146.19831 L 116.54637 146.23655 L 116.612 146.94245 C 116.76671 148.6071 117.50813 150.14074 118.76639 151.39903 C 120.0232 152.65583 121.55853 153.39869 123.2178 153.5529 L 123.91853 153.61801 L 123.98365 154.31875 C 124.13786 155.978 124.88071 157.51336 126.13752 158.77015 C 127.39432 160.02696 128.92965 160.76981 130.58893 160.92403 L 131.28966 160.98914 L 131.35477 161.68987 C 131.43907 162.59665 131.80375 163.73422 132.29218 164.61372 C 133.03274 165.94727 134.69253 167.35824 136.13278 167.87812 C 137.37221 168.32553 137.20644 168.32046 150.00015 168.30084 L 162.18287 168.28172 L 162.96783 168.01403 C 164.20373 167.59211 165.06307 167.05773 165.97953 166.14128 C 166.8977 165.22311 167.43362 164.36074 167.85074 163.12906 L 168.11635 162.3441 L 168.14994 157.96762 L 168.18353 153.59114 L 170.26558 153.59114 C 172.8054 153.59114 173.36181 153.46571 174.21262 152.70076 C 174.85534 152.1229 175.1648 151.65306 175.38051 150.9267 C 175.78944 149.5497 175.38951 148.18838 174.27412 147.16208 C 173.38284 146.34184 173.15149 146.2854 170.5007 146.24172 L 168.17165 146.20348 L 168.17165 142.52618 L 168.17165 138.84889 L 171.85721 138.84889 L 175.54277 138.84889 L 175.54277 140.92887 C 175.54277 143.68726 175.71173 144.26592 176.81143 145.27795 C 178.78287 147.09227 181.9995 146.13931 182.76249 143.51475 C 182.9054 143.02315 182.92477 142.51835 182.89116 140.20074 C 182.85336 137.59399 182.83966 137.43048 182.58937 136.6821 C 182.17955 135.45678 181.64257 134.59068 180.72179 133.66988 C 179.80362 132.75171 178.94126 132.21632 177.70957 131.79919 L 176.9246 131.53357 L 172.56259 131.49947 L 168.20007 131.46588 L 168.13444 130.75791 C 167.97951 129.09093 167.23845 127.55766 165.97953 126.29875 C 164.71895 125.03816 163.18828 124.29933 161.51521 124.14384 L 160.80052 124.0777 L 160.80052 120.4066 L 160.80052 116.73603 L 164.48608 116.73603 L 168.17165 116.73603 L 168.17165 118.816 C 168.17165 121.5744 168.3406 122.15303 169.4403 123.16509 C 170.76771 124.3867 172.88523 124.40983 174.21107 123.2178 C 175.37199 122.17404 175.54277 121.61011 175.54277 118.81962 L 175.54277 116.74274 L 183.60481 116.71381 L 191.66685 116.68487 L 192.45182 116.41667 C 193.68772 115.99475 194.54758 115.46036 195.46404 114.54391 C 196.38049 113.62745 196.91487 112.76759 197.33679 111.53169 L 197.60499 110.74673 L 197.60499 105.67934 L 197.60499 100.61195 L 197.33679 99.826982 C 196.91487 98.591074 196.38049 97.73121 195.46404 96.814762 C 194.54743 95.898154 193.68733 95.363495 192.45182 94.942008 L 191.66685 94.674325 L 185.22435 94.644352 z M 138.68766 138.84889 L 149.74435 138.84889 L 160.80104 138.84889 L 160.80104 149.90558 L 160.80104 160.96227 L 149.74435 160.96227 L 138.68766 160.96227 L 138.68766 149.90558 L 138.68766 138.84889 z M 149.74435 146.28461 C 148.59453 146.28461 148.07629 146.47244 147.32692 147.16208 C 146.21206 148.18838 145.81212 149.5497 146.22105 150.9267 C 146.43037 151.63155 146.73291 152.10264 147.33003 152.65218 C 148.30471 153.54921 149.54582 153.804 150.90087 153.38547 C 152.00034 153.04588 152.92291 152.08754 153.26765 150.9267 C 153.67658 149.5497 153.27647 148.18838 152.16125 147.16208 C 151.41189 146.47244 150.89417 146.28461 149.74435 146.28461 z " /><path
       d="m 61.291866,87.316117 c -1.14982,0 -1.668053,0.187823 -2.417423,0.877466 -1.115177,1.026296 -1.514806,2.387613 -1.105876,3.764628 0.209319,0.704854 0.511851,1.175936 1.108976,1.725476 0.974702,0.897025 2.215794,1.15182 3.570842,0.733289 1.099474,-0.339593 2.022047,-1.297922 2.36678,-2.458765 0.40893,-1.377015 0.0088,-2.738332 -1.106392,-3.764628 -0.749369,-0.689643 -1.267087,-0.877466 -2.416907,-0.877466 z"
       style="display:inline"
       id="path79" /><path
       d="m 83.698767,87.281494 c -1.727713,-0.145746 -3.317432,0.951619 -3.817338,2.634981 -0.409388,1.378559 -0.0089,2.737941 1.109493,3.767212 0.974701,0.897025 2.215277,1.15182 3.570325,0.733289 1.099474,-0.339593 2.022047,-1.297922 2.36678,-2.458765 0.40893,-1.377015 0.0093,-2.738332 -1.105875,-3.764628 -0.606207,-0.55789 -1.26242,-0.83946 -2.123385,-0.912089 z"
       style="display:inline"
       id="path78" /><path
       d="m 91.069893,79.910368 c -1.727713,-0.145746 -3.317433,0.951619 -3.817338,2.634981 -0.409387,1.378559 -0.0089,2.737941 1.109493,3.767212 0.974702,0.897026 2.215277,1.15182 3.570325,0.733289 1.099474,-0.339593 2.022047,-1.297922 2.366781,-2.458765 0.408929,-1.377016 0.0088,-2.737815 -1.106393,-3.764111 -0.606206,-0.557892 -1.261902,-0.839977 -2.122868,-0.912606 z"
       style="display:inline"
       id="path77" /><path
       d="m 54.214779,79.910368 c -1.727714,-0.145746 -3.317433,0.951619 -3.817338,2.634981 -0.409388,1.378559 -0.0094,2.737941 1.108976,3.767212 0.974701,0.897026 2.215794,1.15182 3.570841,0.733289 1.099474,-0.339593 2.022047,-1.297922 2.366781,-2.458765 0.408929,-1.377016 0.0088,-2.737815 -1.106393,-3.764111 -0.606206,-0.557892 -1.261902,-0.839977 -2.122867,-0.912606 z"
       style="display:inline"
       id="path76" /><path
       d="m 32.101917,79.910368 c -1.727714,-0.145746 -3.317951,0.951619 -3.817855,2.634981 -0.409388,1.378559 -0.0089,2.737941 1.109493,3.767212 0.974702,0.897026 2.215794,1.15182 3.570841,0.733289 1.099474,-0.339593 2.02153,-1.297922 2.366264,-2.458765 0.40893,-1.377016 0.0093,-2.737815 -1.105876,-3.764111 -0.606206,-0.557892 -1.261902,-0.839977 -2.122867,-0.912606 z"
       style="display:inline"
       id="path75" /><path
       d="m 105.38685,79.891248 c -1.49081,0.06698 -2.92603,1.054575 -3.40289,2.694926 -0.14292,0.4916 -0.16281,0.996396 -0.1292,3.314009 0.0378,2.606761 0.052,2.770266 0.30231,3.518648 0.40983,1.225319 0.94679,2.090904 1.86759,3.011703 0.82161,0.821613 1.70031,1.403368 2.62413,1.736845 1.21079,0.437069 1.25088,0.439022 11.57862,0.447518 9.63393,0.0079 9.91127,0.0024 10.56008,-0.197921 1.09948,-0.339593 2.02205,-1.297922 2.36678,-2.458765 0.40893,-1.377015 0.009,-2.738332 -1.10588,-3.764628 -0.89128,-0.820246 -1.12314,-0.876681 -3.77393,-0.920357 l -2.32905,-0.03824 v -2.071708 c 0,-2.749088 -0.16926,-3.329007 -1.26814,-4.340303 -0.74937,-0.689645 -1.26761,-0.877983 -2.41743,-0.877983 -1.14982,0 -1.66753,0.188338 -2.4169,0.877983 -1.09969,1.012049 -1.26866,1.590172 -1.26866,4.348571 v 2.079977 h -3.68505 -3.68556 v -2.079977 c 0,-2.758399 -0.16896,-3.336522 -1.26866,-4.348571 -0.73929,-0.680369 -1.65368,-0.971916 -2.54816,-0.931726 z"
       style="display:inline"
       id="path74" /><path
       d="m 190.28503,72.572831 c -1.21019,0 -1.47954,0.03252 -2.1668,0.262 -1.22448,0.408859 -2.09107,0.945918 -3.01222,1.867069 -0.92115,0.921151 -1.45821,1.787225 -1.86707,3.011703 -0.22948,0.687264 -0.262,0.957124 -0.262,2.167309 0,1.210186 0.0325,1.479529 0.262,2.166793 0.40886,1.224477 0.94592,2.091068 1.86707,3.012219 1.56189,1.561886 3.24026,2.22586 5.43481,2.150257 0.83696,-0.02883 1.32766,-0.103711 1.911,-0.291972 1.20829,-0.389952 2.08409,-0.930157 3.01222,-1.858285 0.92115,-0.921151 1.45821,-1.787742 1.86707,-3.012219 0.22948,-0.687264 0.262,-0.956607 0.262,-2.166793 0,-1.210185 -0.0325,-1.480045 -0.262,-2.167309 -0.40886,-1.224478 -0.94592,-2.090552 -1.86707,-3.011703 -0.92116,-0.921151 -1.78774,-1.45821 -3.01222,-1.867069 -0.68727,-0.229481 -0.95662,-0.262 -2.16679,-0.262 z"
       style="display:inline"
       id="path73" /><path
       d="m 17.449064,72.548543 c -0.481215,-0.04718 -0.983809,-8.75e-4 -1.485181,0.151412 -1.160279,0.352424 -2.078106,1.296247 -2.426725,2.495455 -0.144895,0.498422 -0.159698,1.676057 -0.134359,10.684619 l 0.02842,10.124964 0.267683,0.784965 c 0.421926,1.235898 0.956817,2.095243 1.873271,3.011702 1.258919,1.25892 2.791658,1.99998 4.458643,2.15491 l 0.708484,0.0656 0.03359,4.36252 0.03359,4.36201 0.265617,0.78496 c 0.417126,1.23168 0.953036,2.09405 1.871203,3.01222 0.821615,0.82161 1.700313,1.40337 2.62413,1.73685 1.030207,0.37188 1.660933,0.43879 4.207495,0.447 2.252416,0.007 2.594605,-0.0136 3.189469,-0.19741 1.099474,-0.33958 2.02153,-1.29844 2.366264,-2.45928 0.40893,-1.37702 0.0093,-2.73781 -1.105876,-3.76411 -0.891282,-0.82024 -1.123143,-0.87669 -3.77393,-0.92036 l -2.329056,-0.0382 v -3.67729 -3.6773 h 7.371126 7.371126 v 2.07998 c 0,2.75841 0.16896,3.33704 1.268657,4.34909 1.327412,1.22162 3.444927,1.24524 4.770768,0.0532 1.16127,-1.04409 1.331702,-1.60789 1.331702,-4.40232 v -2.07998 h 2.087727 c 2.546479,0 3.101942,-0.12498 3.953248,-0.89038 0.642715,-0.57786 0.95218,-1.04768 1.167887,-1.774052 0.408929,-1.377009 0.0088,-2.73833 -1.106393,-3.764629 -0.890407,-0.819441 -1.124282,-0.876858 -3.75946,-0.920357 l -2.315104,-0.03824 -0.06563,-0.7059 c -0.154713,-1.664648 -0.89611,-3.198295 -2.154391,-4.456576 -0.92115,-0.92115 -1.787741,-1.45821 -3.012219,-1.867069 -0.687264,-0.229481 -0.956608,-0.262 -2.166793,-0.262 -1.210184,0 -1.479528,0.03252 -2.166793,0.262 -1.224477,0.408859 -2.091068,0.945919 -3.012219,1.867069 -1.260581,1.260583 -1.999409,2.791751 -2.154907,4.464844 l -0.06666,0.714168 h -7.35614 -7.35614 v -9.451103 c 0,-8.32645 -0.01937,-9.516153 -0.162264,-9.997322 -0.445391,-1.499797 -1.696214,-2.484128 -3.13986,-2.62568 z"
       style="display:inline"
       id="path72" /><path
       d="m 61.182829,72.530457 c -0.460666,0.02316 -0.684022,0.07573 -1.009758,0.174666 -1.134368,0.344554 -2.054078,1.289087 -2.404504,2.4691 -0.40893,1.377015 -0.0093,2.738332 1.105876,3.764628 0.890408,0.819441 1.124798,0.876341 3.759977,0.91984 l 2.315104,0.03824 0.06563,0.706417 c 0.08473,0.911656 0.44808,2.047866 0.93741,2.92902 0.502657,0.905154 1.825124,2.233416 2.71508,2.727482 1.525767,0.84704 2.212585,0.973852 5.333525,0.983919 2.252417,0.0073 2.594606,-0.01418 3.189469,-0.19792 1.099474,-0.339593 2.021531,-1.297922 2.366264,-2.458765 0.40893,-1.377016 0.0093,-2.737815 -1.105876,-3.764111 -0.890408,-0.819443 -1.124799,-0.87686 -3.759977,-0.920358 l -2.315104,-0.03824 -0.06563,-0.706417 C 72.155602,77.493313 71.414721,75.96018 70.156441,74.7019 c -0.920799,-0.920799 -1.7869,-1.457757 -3.012219,-1.867586 -0.748661,-0.250403 -0.911287,-0.264403 -3.527433,-0.302307 -1.275002,-0.01847 -1.973294,-0.02471 -2.43396,-0.0015 z"
       style="display:inline"
       id="path71" /><path
       d="m 76.328158,57.796989 c -1.727714,-0.145746 -3.31795,0.952136 -3.817855,2.635498 -0.409388,1.378559 -0.0089,2.737941 1.109493,3.767212 0.974701,0.897025 2.215794,1.15182 3.570841,0.733288 1.099474,-0.339592 2.021531,-1.297921 2.366264,-2.458764 0.40893,-1.377016 0.0093,-2.738332 -1.105876,-3.764628 -0.606206,-0.557891 -1.261902,-0.839977 -2.122867,-0.912606 z"
       style="display:inline"
       id="path70" /><path
       d="m 76.328158,57.796989 c 0.860965,0.07263 1.516661,0.354715 2.122867,0.912606 1.115219,1.026296 1.514806,2.387612 1.105876,3.764628 -0.344733,1.160843 -1.26679,2.119172 -2.366264,2.458764 -1.355047,0.418532 -2.59614,0.163737 -3.570841,-0.733288 -1.1184,-1.029271 -1.518881,-2.388653 -1.109493,-3.767212 0.499905,-1.683362 2.090141,-2.781244 3.817855,-2.635498 z"
       style="display:inline"
       id="path69" /><path
       d="m 120.26036,50.444983 c -0.55528,0 -1.11053,0.07828 -1.45573,0.234611 -0.55825,0.252827 -1.33602,0.934785 -1.67276,1.467094 -0.54678,0.864335 -0.55707,1.001163 -0.55707,7.226432 v 5.76554 h -2.08825 c -2.54648,0 -3.10195,0.124987 -3.95325,0.890385 -0.64271,0.577855 -0.95166,1.047688 -1.16737,1.774052 -0.29049,0.978197 -0.13928,2.112139 0.39481,2.956408 0.33337,0.526984 1.11039,1.211493 1.67277,1.473812 0.47818,0.223043 0.54524,0.225638 6.48332,0.254765 l 6.00015,0.02945 0.0662,0.710551 c 0.15513,1.669149 0.89488,3.201201 2.15439,4.46071 1.2568,1.256808 2.79213,1.999661 4.45141,2.153874 l 0.70073,0.06511 0.0651,0.700732 c 0.15421,1.659273 0.89707,3.1946 2.15388,4.451408 1.26058,1.260582 2.79174,1.999411 4.46484,2.154908 l 0.71417,0.06614 v 3.656108 3.656108 l -0.71417,0.06666 c -1.6731,0.155497 -3.20426,0.894329 -4.46484,2.154907 -1.25828,1.258279 -1.99967,2.791913 -2.15439,4.456578 l -0.0656,0.7059 -2.31511,0.0382 c -2.63517,0.0435 -2.86906,0.10092 -3.75946,0.92036 -0.59411,0.54676 -0.89735,1.01895 -1.10639,1.72289 -0.58686,1.97616 0.62248,4.07857 2.65307,4.61264 0.16892,0.0444 1.57438,0.0697 3.1228,0.0563 2.71738,-0.0236 2.84222,-0.0332 3.59979,-0.2868 v -5.2e-4 c 1.22588,-0.41049 2.09166,-0.94702 3.01221,-1.86758 1.25681,-1.25681 1.99967,-2.79214 2.15388,-4.45141 l 0.0651,-0.70073 0.70073,-0.0651 c 1.65928,-0.15421 3.1946,-0.89706 4.45141,-2.15387 1.26059,-1.260579 1.99941,-2.79123 2.15491,-4.464327 l 0.0667,-0.714685 h 3.65611 3.65611 l 0.0661,0.714685 c 0.1555,1.673097 0.89485,3.203748 2.15543,4.464327 0.92079,0.9208 1.78638,1.45777 3.0117,1.86759 0.74866,0.25041 0.91128,0.26439 3.52743,0.3023 2.55001,0.0369 2.79225,0.0248 3.44372,-0.17311 1.13437,-0.34455 2.05407,-1.28908 2.4045,-2.469102 0.40893,-1.377009 0.009,-2.73833 -1.10587,-3.764629 -0.89128,-0.820246 -1.12316,-0.876681 -3.77393,-0.920357 l -2.32906,-0.03824 v -3.662309 -3.662826 l 0.71469,-0.06614 c 1.67308,-0.155497 3.20374,-0.894326 4.46432,-2.154908 1.26058,-1.260582 1.99993,-2.79175 2.15543,-4.464843 l 0.0661,-0.714169 h 2.07326 c 2.53022,0 3.0887,-0.126599 3.93878,-0.890901 0.64272,-0.577857 0.95166,-1.047688 1.16737,-1.774052 0.40893,-1.377016 0.009,-2.737816 -1.10588,-3.764112 -0.9511,-0.875293 -1.03002,-0.891189 -4.46484,-0.889868 -2.98365,0.0011 -3.02953,0.0047 -3.80494,0.268201 -1.23359,0.419314 -2.09483,0.954336 -3.01221,1.87172 -1.25681,1.256808 -1.99915,2.791619 -2.15336,4.450891 l -0.0651,0.70125 -0.70125,0.06511 c -1.65927,0.154214 -3.19409,0.897065 -4.45089,2.153874 -1.26058,1.260581 -1.99993,2.791233 -2.15543,4.464327 l -0.0661,0.714685 h -3.6649 -3.66489 l -0.0336,-4.376994 -0.0336,-4.376477 -0.26613,-0.784965 c -0.41713,-1.231685 -0.95252,-2.093536 -1.87069,-3.011703 -0.91816,-0.918167 -1.78001,-1.45356 -3.0117,-1.870687 L 140.07,72.56508 l -4.36252,-0.03359 -4.36253,-0.03359 -0.0656,-0.708483 c -0.15493,-1.666985 -0.89548,-3.199724 -2.1544,-4.458643 -1.26057,-1.260582 -2.79175,-1.99941 -4.46484,-2.154907 l -0.71417,-0.06666 v -5.75107 c 0,-6.209244 -0.011,-6.347334 -0.55759,-7.211446 -0.33674,-0.532309 -1.11399,-1.214267 -1.67225,-1.467094 -0.34518,-0.156331 -0.90044,-0.234611 -1.45572,-0.234611 z"
       style="display:inline"
       id="path68" /><path
       d="m 135.38553,50.435164 c -0.48121,-0.04718 -0.9838,-3.58e-4 -1.48518,0.151929 -1.15209,0.34994 -2.06886,1.286631 -2.42155,2.474268 -0.24075,0.81067 -0.24075,8.602193 0,9.412862 0.37252,1.254424 1.37611,2.227865 2.65306,2.573486 0.51311,0.138878 1.79694,0.02766 2.32596,-0.201538 0.55265,-0.23943 1.33121,-0.917852 1.67277,-1.457792 0.52654,-0.832336 0.55707,-1.142796 0.55707,-5.620846 0,-3.498291 -0.0259,-4.246909 -0.16227,-4.706172 -0.44538,-1.499796 -1.69621,-2.484645 -3.13986,-2.626197 z"
       style="display:inline"
       id="path67" /><path
       d="m 105.90155,50.435164 c -0.48122,-0.04718 -0.98381,-3.58e-4 -1.48518,0.151929 -1.1521,0.34994 -2.06887,1.286631 -2.42156,2.474268 -0.24074,0.81067 -0.24074,8.602193 0,9.412862 0.20932,0.704853 0.51184,1.175935 1.10897,1.725476 0.9747,0.897025 2.2158,1.15182 3.57085,0.733288 0.72906,-0.225186 1.53843,-0.858192 1.96783,-1.538407 0.53056,-0.840449 0.56121,-1.144064 0.56121,-5.627047 0,-3.498291 -0.0259,-4.246909 -0.16226,-4.706172 -0.4454,-1.499796 -1.69622,-2.484645 -3.13986,-2.626197 z"
       style="display:inline"
       id="path66" /><path
       d="m 132.95468,35.706864 c -2.98365,0.0011 -3.02953,0.0041 -3.80494,0.267684 -1.23361,0.419315 -2.09484,0.954337 -3.01222,1.871721 -0.9208,0.920799 -1.45776,1.786901 -1.86759,3.012219 -0.25031,0.748383 -0.26399,0.911886 -0.30179,3.518648 -0.0336,2.317613 -0.0143,2.822409 0.12868,3.31401 0.37402,1.286576 1.37016,2.264144 2.66392,2.614311 0.51311,0.138877 1.79693,0.02766 2.32595,-0.201539 0.55265,-0.239428 1.3312,-0.917851 1.67277,-1.457792 0.4676,-0.73917 0.55707,-1.308822 0.55707,-3.540352 v -2.080493 h 2.08825 c 2.54647,0 3.10142,-0.124989 3.95273,-0.890385 0.64271,-0.577857 0.95218,-1.047688 1.16788,-1.774052 0.40893,-1.377015 0.009,-2.738332 -1.10639,-3.764628 -0.9511,-0.875293 -1.02951,-0.890674 -4.46432,-0.889352 z"
       style="display:inline"
       id="path65" /><path
       d="m 105.81215,35.684127 c -1.72771,-0.145746 -3.31743,0.951619 -3.81734,2.634981 -0.40939,1.378558 -0.009,2.737942 1.10897,3.767212 0.9747,0.897026 2.2158,1.15182 3.57085,0.733289 1.09946,-0.339593 2.02204,-1.297922 2.36678,-2.458765 0.40893,-1.377015 0.009,-2.737815 -1.1064,-3.764111 -0.6062,-0.557892 -1.26189,-0.839977 -2.12286,-0.912606 z"
       style="display:inline"
       id="path64" /><path
       d="m 172.12024,28.288713 c -0.68313,-0.0178 -1.36401,0.03062 -2.03295,0.147277 -2.45932,0.428869 -4.26063,1.362623 -6.01617,3.118156 -1.367,1.366999 -2.17607,2.662288 -2.70991,4.338754 -1.05481,3.312493 -0.58627,6.704047 1.33119,9.640755 0.51622,0.79063 2.18076,2.455171 2.97139,2.971395 2.41532,1.57702 5.29097,2.205025 7.96385,1.738912 2.45932,-0.428869 4.26012,-1.362622 6.01566,-3.118156 1.367,-1.366999 2.17607,-2.662287 2.70991,-4.338754 1.0548,-3.312492 0.58678,-6.704046 -1.33067,-9.640755 -0.51623,-0.79063 -2.18076,-2.455171 -2.97139,-2.971395 -1.81344,-1.184041 -3.88151,-1.832801 -5.93091,-1.886189 z"
       style="display:inline"
       id="path63" /><path
       d="m 39.44152,28.288713 c -0.683132,-0.0178 -1.364008,0.03062 -2.032951,0.147277 -2.459316,0.428869 -4.260637,1.362623 -6.01617,3.118156 -1.366999,1.366999 -2.176072,2.662288 -2.709912,4.338754 -1.054804,3.312493 -0.58627,6.704047 1.331185,9.640755 0.516223,0.79063 2.180766,2.455171 2.971395,2.971395 2.415312,1.57702 5.290447,2.205025 7.963338,1.738912 2.459316,-0.428869 4.260637,-1.362622 6.01617,-3.118156 1.366999,-1.366999 2.176072,-2.662287 2.709912,-4.338754 1.054804,-3.312492 0.586787,-6.704046 -1.330668,-9.640755 -0.516223,-0.79063 -2.180764,-2.455171 -2.971395,-2.971395 -1.813436,-1.184041 -3.881508,-1.832801 -5.930904,-1.886189 z"
       style="display:inline"
       id="path62" /><path
       d="m 90.80686,20.922754 c -0.861055,-0.0096 -1.721947,0.282475 -2.384867,0.878499 -1.16127,1.044081 -1.331702,1.607381 -1.331702,4.401799 v 2.080493 h -2.087728 c -2.546477,0 -3.101941,0.124988 -3.953247,0.890385 -0.642715,0.577855 -0.95218,1.047688 -1.167887,1.774052 -0.40893,1.377015 -0.0088,2.738332 1.106392,3.764628 0.891283,0.820246 1.122627,0.876681 3.773414,0.920357 l 2.329056,0.03824 v 3.677295 3.676778 h -3.685563 -3.685563 v -2.079977 c 0,-2.758399 -0.168443,-3.336521 -1.26814,-4.348571 -1.971442,-1.814317 -5.188594,-0.86136 -5.951574,1.763199 -0.142912,0.491602 -0.162287,0.996397 -0.128675,3.31401 0.03781,2.606762 0.05199,2.770266 0.302307,3.518648 0.409829,1.225318 0.946271,2.090904 1.86707,3.011703 1.256809,1.256808 2.792136,1.999661 4.451408,2.153874 l 0.700732,0.06511 0.06511,0.701249 c 0.154212,1.659272 0.897066,3.194082 2.153873,4.450891 1.258919,1.258919 2.791658,1.999461 4.458643,2.154391 l 0.708484,0.06614 0.03359,4.362525 0.03359,4.362007 0.266134,0.784965 c 0.417127,1.231685 0.95252,2.094053 1.870687,3.01222 1.260581,1.260582 2.79175,1.999409 4.464843,2.154907 l 0.714169,0.06666 v 2.065507 c 0,2.743922 0.169566,3.322806 1.27124,4.336686 0.469065,0.431684 0.919818,0.679045 1.544092,0.84801 0.51311,0.138878 1.796923,0.02766 2.325956,-0.201538 0.554004,-0.240017 1.331234,-0.91774 1.674834,-1.460893 0.51416,-0.812798 0.57521,-1.304751 0.53227,-4.265373 -0.0378,-2.606762 -0.0515,-2.770265 -0.30179,-3.518648 -0.40982,-1.225318 -0.94679,-2.09142 -1.86759,-3.012219 -1.260579,-1.260582 -2.791752,-1.99941 -4.464844,-2.154907 l -0.714168,-0.06666 v -7.35614 -7.356657 h 2.087728 c 2.546477,0 3.101933,-0.124989 3.953244,-0.890385 0.64271,-0.577856 0.95219,-1.047688 1.16789,-1.774052 0.40893,-1.377015 0.009,-2.738332 -1.10639,-3.764628 -0.891286,-0.820246 -1.122629,-0.87668 -3.773416,-0.920357 l -2.329056,-0.03824 v -3.677295 -3.676778 h 2.087728 c 2.546477,0 3.101933,-0.125504 3.953244,-0.890901 0.64271,-0.577856 0.95219,-1.047689 1.16789,-1.774052 0.40893,-1.377016 0.009,-2.737816 -1.10639,-3.764112 -0.891286,-0.820246 -1.122629,-0.876681 -3.773416,-0.920357 l -2.329056,-0.03876 v -2.071708 c 0,-2.749089 -0.169778,-3.329008 -1.268657,-4.340304 -0.663706,-0.610809 -1.524845,-0.92213 -2.385901,-0.931726 z"
       style="display:inline"
       id="path59" /><path
       d="m 90.80686,20.922754 c 0.861056,0.0096 1.722195,0.320917 2.385901,0.931726 1.098879,1.011296 1.268657,1.591215 1.268657,4.340304 v 2.071708 l 2.329056,0.03876 c 2.650787,0.04368 2.88213,0.100111 3.773416,0.920357 1.11522,1.026296 1.51532,2.387096 1.10639,3.764112 -0.2157,0.726363 -0.52518,1.196196 -1.16789,1.774052 -0.851311,0.765397 -1.406767,0.890901 -3.953244,0.890901 h -2.087728 v 3.676778 3.677295 l 2.329056,0.03824 c 2.650787,0.04368 2.88213,0.100111 3.773416,0.920357 1.11522,1.026296 1.51532,2.387613 1.10639,3.764628 -0.2157,0.726364 -0.52518,1.196196 -1.16789,1.774052 -0.851311,0.765396 -1.406767,0.890385 -3.953244,0.890385 h -2.087728 v 7.356657 7.35614 l 0.714168,0.06666 c 1.673092,0.155497 3.204265,0.894325 4.464844,2.154907 0.9208,0.920799 1.45777,1.786901 1.86759,3.012219 0.25027,0.748383 0.26399,0.911886 0.30179,3.518648 0.0429,2.960622 -0.0181,3.452575 -0.53227,4.265373 -0.3436,0.543153 -1.12083,1.220876 -1.674834,1.460893 -0.529033,0.2292 -1.812846,0.340416 -2.325956,0.201538 -0.624274,-0.168965 -1.075027,-0.416326 -1.544092,-0.84801 -1.101674,-1.01388 -1.27124,-1.592764 -1.27124,-4.336686 v -2.065507 l -0.714169,-0.06666 c -1.673093,-0.155498 -3.204262,-0.894325 -4.464843,-2.154907 -0.918167,-0.918167 -1.45356,-1.780535 -1.870687,-3.01222 l -0.266134,-0.784965 -0.03359,-4.362007 -0.03359,-4.362525 -0.708484,-0.06614 C 84.702937,57.57488 83.170198,56.834338 81.911279,55.575419 80.654472,54.31861 79.911618,52.7838 79.757406,51.124528 l -0.06511,-0.701249 -0.700732,-0.06511 c -1.659272,-0.154213 -3.194599,-0.897066 -4.451408,-2.153874 -0.920799,-0.920799 -1.457241,-1.786385 -1.86707,-3.011703 -0.250313,-0.748382 -0.264497,-0.911886 -0.302307,-3.518648 -0.03361,-2.317613 -0.01424,-2.822408 0.128675,-3.31401 0.76298,-2.624559 3.980132,-3.577516 5.951574,-1.763199 1.099697,1.01205 1.26814,1.590172 1.26814,4.348571 v 2.079977 h 3.685563 3.685563 v -3.676778 -3.677295 l -2.329056,-0.03824 c -2.650787,-0.04368 -2.882131,-0.100111 -3.773414,-0.920357 -1.115219,-1.026296 -1.515322,-2.387613 -1.106392,-3.764628 0.215707,-0.726364 0.525172,-1.196197 1.167887,-1.774052 0.851306,-0.765397 1.40677,-0.890385 3.953247,-0.890385 h 2.087728 v -2.080493 c 0,-2.794418 0.170432,-3.357718 1.331702,-4.401799 0.66292,-0.596024 1.523812,-0.888095 2.384867,-0.878499 z m 15.00529,14.761373 c 0.86097,0.07263 1.51666,0.354714 2.12286,0.912606 1.11523,1.026296 1.51533,2.387096 1.1064,3.764111 -0.34474,1.160843 -1.26732,2.119172 -2.36678,2.458765 -1.35505,0.418531 -2.59615,0.163737 -3.57085,-0.733289 -1.11829,-1.02927 -1.51836,-2.388654 -1.10897,-3.767212 0.49991,-1.683362 2.08963,-2.780727 3.81734,-2.634981 z m 27.14253,0.02274 c 3.43481,-0.0013 3.51322,0.01406 4.46432,0.889352 1.11522,1.026296 1.51532,2.387613 1.10639,3.764628 -0.2157,0.726364 -0.52517,1.196195 -1.16788,1.774052 -0.85131,0.765396 -1.40626,0.890385 -3.95273,0.890385 h -2.08825 v 2.080493 c 0,2.23153 -0.0895,2.801182 -0.55707,3.540352 -0.34157,0.539941 -1.12012,1.218364 -1.67277,1.457792 -0.52902,0.2292 -1.81284,0.340416 -2.32595,0.201539 -1.29376,-0.350167 -2.2899,-1.327735 -2.66392,-2.614311 -0.14293,-0.491601 -0.16228,-0.996397 -0.12868,-3.31401 0.0378,-2.606762 0.0515,-2.770265 0.30179,-3.518648 0.40983,-1.225318 0.94679,-2.09142 1.86759,-3.012219 0.91738,-0.917384 1.77861,-1.452406 3.01222,-1.871721 0.77541,-0.263549 0.82129,-0.266584 3.80494,-0.267684 z m -27.05313,14.7283 c 1.44364,0.141552 2.69446,1.126401 3.13986,2.626197 0.13639,0.459263 0.16226,1.207881 0.16226,4.706172 0,4.482983 -0.0307,4.786598 -0.56121,5.627047 -0.4294,0.680215 -1.23877,1.313221 -1.96783,1.538407 -1.35505,0.418532 -2.59615,0.163737 -3.57085,-0.733288 -0.59713,-0.549541 -0.89965,-1.020623 -1.10897,-1.725476 -0.24074,-0.810669 -0.24074,-8.602192 0,-9.412862 0.35269,-1.187637 1.26946,-2.124328 2.42156,-2.474268 0.50137,-0.152287 1.00396,-0.199113 1.48518,-0.151929 z m 29.48398,0 c 1.44365,0.141552 2.69448,1.126401 3.13986,2.626197 0.1364,0.459263 0.16227,1.207881 0.16227,4.706172 0,4.47805 -0.0305,4.78851 -0.55707,5.620846 -0.34156,0.53994 -1.12012,1.218362 -1.67277,1.457792 -0.52902,0.2292 -1.81285,0.340416 -2.32596,0.201538 -1.27695,-0.345621 -2.28054,-1.319062 -2.65306,-2.573486 -0.24075,-0.810669 -0.24075,-8.602192 0,-9.412862 0.35269,-1.187637 1.26946,-2.124328 2.42155,-2.474268 0.50138,-0.152287 1.00397,-0.199113 1.48518,-0.151929 z m -15.12517,0.0098 c 0.55528,0 1.11054,0.07828 1.45572,0.234611 0.55826,0.252827 1.33551,0.934785 1.67225,1.467094 0.54661,0.864112 0.55759,1.002202 0.55759,7.211446 v 5.75107 l 0.71417,0.06666 c 1.67309,0.155497 3.20427,0.894325 4.46484,2.154907 1.25892,1.258919 1.99947,2.791658 2.1544,4.458643 l 0.0656,0.708483 4.36253,0.03359 4.36252,0.03359 0.78497,0.266133 c 1.23169,0.417127 2.09354,0.95252 3.0117,1.870687 0.91817,0.918167 1.45356,1.780018 1.87069,3.011703 l 0.26613,0.784965 0.0336,4.376477 0.0336,4.376994 h 3.66489 3.6649 l 0.0661,-0.714685 c 0.1555,-1.673094 0.89485,-3.203746 2.15543,-4.464327 1.2568,-1.256809 2.79162,-1.99966 4.45089,-2.153874 l 0.70125,-0.06511 0.0651,-0.70125 c 0.15421,-1.659272 0.89655,-3.194083 2.15336,-4.450891 0.91738,-0.917384 1.77862,-1.452406 3.01221,-1.87172 0.77541,-0.26355 0.82129,-0.267101 3.80494,-0.268201 3.43482,-0.0013 3.51374,0.01458 4.46484,0.889868 1.11522,1.026296 1.51481,2.387096 1.10588,3.764112 -0.21571,0.726364 -0.52465,1.196195 -1.16737,1.774052 -0.85008,0.764302 -1.40856,0.890901 -3.93878,0.890901 h -2.07326 l -0.0661,0.714169 c -0.1555,1.673093 -0.89485,3.204261 -2.15543,4.464843 -1.26058,1.260582 -2.79124,1.999411 -4.46432,2.154908 l -0.71469,0.06614 v 3.662826 3.662309 l 2.32906,0.03824 c 2.65077,0.04368 2.88265,0.100111 3.77393,0.920357 1.11522,1.026299 1.5148,2.38762 1.10587,3.764629 -0.35043,1.180022 -1.27013,2.124552 -2.4045,2.469102 -0.65147,0.1979 -0.89371,0.21001 -3.44372,0.17311 -2.61615,-0.0379 -2.77877,-0.0519 -3.52743,-0.3023 -1.22532,-0.40982 -2.09091,-0.94679 -3.0117,-1.86759 -1.26058,-1.260579 -1.99993,-2.79123 -2.15543,-4.464327 l -0.0661,-0.714685 h -3.65611 -3.65611 l -0.0667,0.714685 c -0.1555,1.673097 -0.89432,3.203748 -2.15491,4.464327 -1.25681,1.25681 -2.79213,1.99966 -4.45141,2.15387 l -0.70073,0.0651 -0.0651,0.70073 c -0.15421,1.65927 -0.89707,3.1946 -2.15388,4.45141 -0.92055,0.92056 -1.78633,1.45709 -3.01221,1.86758 v 5.2e-4 c -0.75757,0.25364 -0.88241,0.2632 -3.59979,0.2868 -1.54842,0.0134 -2.95388,-0.0119 -3.1228,-0.0563 -2.03059,-0.53407 -3.23993,-2.63648 -2.65307,-4.61264 0.20904,-0.70394 0.51228,-1.17613 1.10639,-1.72289 0.8904,-0.81944 1.12429,-0.87686 3.75946,-0.92036 l 2.31511,-0.0382 0.0656,-0.7059 c 0.15472,-1.664665 0.89611,-3.198299 2.15439,-4.456578 1.26058,-1.260578 2.79174,-1.99941 4.46484,-2.154907 l 0.71417,-0.06666 v -3.656108 -3.656108 l -0.71417,-0.06614 c -1.6731,-0.155497 -3.20426,-0.894326 -4.46484,-2.154908 -1.25681,-1.256808 -1.99967,-2.792135 -2.15388,-4.451408 l -0.0651,-0.700732 -0.70073,-0.06511 c -1.65928,-0.154213 -3.19461,-0.897066 -4.45141,-2.153874 -1.25951,-1.259509 -1.99926,-2.791561 -2.15439,-4.46071 l -0.0662,-0.710551 -6.00015,-0.02945 c -5.93808,-0.02913 -6.00514,-0.03172 -6.48332,-0.254765 -0.56238,-0.262319 -1.3394,-0.946828 -1.67277,-1.473812 -0.53409,-0.844269 -0.6853,-1.978211 -0.39481,-2.956408 0.21571,-0.726364 0.52466,-1.196197 1.16737,-1.774052 0.8513,-0.765398 1.40677,-0.890385 3.95325,-0.890385 h 2.08825 v -5.76554 c 0,-6.225269 0.0103,-6.362097 0.55707,-7.226432 0.33674,-0.532309 1.11451,-1.214267 1.67276,-1.467094 0.3452,-0.156331 0.90045,-0.234611 1.45573,-0.234611 z"
       style="display:inline"
       id="path58" /><path
       d="m 81.357308,13.593486 c -2.983647,0.0011 -3.029526,0.0046 -3.804936,0.2682 -1.233604,0.419315 -2.094835,0.954336 -3.012219,1.871721 -0.920799,0.920799 -1.457241,1.7869 -1.86707,3.012219 -0.250309,0.748382 -0.264502,0.911886 -0.302307,3.518648 -0.05088,3.508244 0.06837,3.993231 1.24902,5.079793 0.974701,0.897026 2.215794,1.152337 3.570841,0.733806 0.479499,-0.148102 0.815588,-0.340088 1.198893,-0.684713 1.159192,-1.042213 1.329635,-1.607414 1.329635,-4.400765 v -2.079976 h 2.088245 c 2.546478,0 3.101942,-0.124989 3.953247,-0.890385 0.642715,-0.577857 0.951664,-1.047688 1.16737,-1.774052 0.40893,-1.377016 0.0093,-2.738332 -1.105875,-3.764628 -0.951096,-0.875293 -1.030033,-0.891189 -4.464844,-0.889868 z"
       style="display:inline"
       id="path57" /><path
       d="m 115.19245,13.592452 -0.78496,0.268201 c -1.2359,0.421926 -2.09525,0.956299 -3.01171,1.872754 -1.26057,1.260581 -1.99992,2.79175 -2.15542,4.464843 l -0.0661,0.714169 h -2.07325 c -2.53022,0 -3.08869,0.126082 -3.93878,0.890385 -0.64272,0.577856 -0.95166,1.047688 -1.16737,1.774051 -0.5867,1.975648 0.63131,4.092709 2.65307,4.611089 0.16892,0.04331 3.23238,0.07105 6.80785,0.06149 l 6.50089,-0.01757 0.78497,-0.267683 c 1.23565,-0.42164 2.09514,-0.956198 3.0117,-1.872754 1.26058,-1.260582 1.99993,-2.791751 2.15543,-4.464844 l 0.0661,-0.714168 h 5.75882 c 5.47937,0 5.79093,-0.0099 6.42493,-0.205673 1.09948,-0.339593 2.02206,-1.297921 2.36678,-2.458764 0.2905,-0.978197 0.13929,-2.112139 -0.3948,-2.956409 -0.33337,-0.526983 -1.11039,-1.211494 -1.67277,-1.473812 l -0.48317,-0.225309 h -10.3911 z"
       style="display:inline"
       id="path56" /><path
       d="m 39.178487,13.587284 c -1.306486,0 -2.613103,0.06491 -3.532084,0.19482 -5.627178,0.795479 -10.795114,3.39886 -14.845089,7.478614 -3.813038,3.841074 -6.326747,8.91371 -7.183541,14.496273 -0.254298,1.656921 -0.253137,5.521422 0.0021,7.16597 0.824796,5.314414 2.918379,9.770765 6.458521,13.746965 3.828296,4.299848 9.533172,7.336742 15.414563,8.205184 1.590748,0.234889 1.799923,0.245154 4.197677,0.208256 1.606741,-0.02473 2.534063,-0.09003 3.434932,-0.241846 4.47634,-0.75432 8.529745,-2.532471 12.125875,-5.319055 1.12799,-0.874061 3.032889,-2.774524 4.015775,-4.006991 2.751447,-3.450109 4.694948,-7.80874 5.387268,-12.080399 0.375083,-2.314288 0.400997,-5.541547 0.06253,-7.780404 -0.824937,-5.456718 -3.38525,-10.60254 -7.160286,-14.389819 -4.088132,-4.10139 -9.219013,-6.687279 -14.846123,-7.482748 -0.918981,-0.12991 -2.225597,-0.19482 -3.532084,-0.19482 z m 0,7.384563 c 3.012036,-0.002 5.352248,0.53107 8.036719,1.830379 5.561284,2.691712 9.149859,7.610786 10.197827,13.978475 0.186778,1.13491 0.163206,4.137654 -0.04237,5.374865 -1.154254,6.946496 -5.794759,12.434332 -12.369787,14.629082 -2.454106,0.819182 -4.897099,1.106123 -7.460527,0.876432 -3.069607,-0.275047 -6.087096,-1.332706 -8.597408,-3.013253 -4.270434,-2.858876 -7.08347,-7.27482 -7.957654,-12.492261 -0.232948,-1.39032 -0.228951,-4.229294 0.0078,-5.68234 0.861779,-5.290241 3.922595,-9.949704 8.332825,-12.685014 3.121027,-1.935723 6.192296,-2.813891 9.852628,-2.816365 z"
       style="display:inline"
       id="path55" /><path
       d="m 171.85721,13.586768 c -1.30649,0 -2.61259,0.06543 -3.53157,0.195336 -5.62718,0.795479 -10.79563,3.39886 -14.8456,7.478614 -3.81304,3.841074 -6.32674,8.91371 -7.18354,14.496273 -0.2543,1.656921 -0.25314,5.521422 0.002,7.16597 0.8248,5.314414 2.91838,9.770765 6.45852,13.746965 3.29043,3.69572 8.06562,6.522368 13.07156,7.738029 1.19341,0.289812 2.83997,0.573506 3.87883,0.667659 1.21082,0.10974 4.89654,-0.03183 6.09679,-0.234094 4.47633,-0.75432 8.52974,-2.532471 12.12587,-5.319055 1.12799,-0.874061 3.03289,-2.774524 4.01578,-4.006991 2.75144,-3.450109 4.69495,-7.80874 5.38726,-12.080399 0.37508,-2.314288 0.40149,-5.541547 0.0631,-7.780404 -0.82493,-5.456718 -3.38577,-10.60254 -7.1608,-14.389819 -4.08813,-4.10139 -9.21901,-6.687279 -14.84613,-7.482748 -0.91897,-0.12991 -2.22559,-0.195336 -3.53208,-0.195336 z m -5.2e-4,7.385079 c 3.01204,-0.002 5.35224,0.53107 8.03672,1.830379 5.56129,2.691712 9.14986,7.610786 10.19783,13.978475 0.18678,1.13491 0.1632,4.137137 -0.0424,5.374349 -1.15425,6.946496 -5.79475,12.434848 -12.36978,14.629598 -2.45394,0.819126 -4.89626,1.106037 -7.4595,0.876432 -3.0696,-0.275047 -6.08761,-1.332706 -8.59792,-3.013253 -4.27044,-2.858876 -7.08348,-7.275337 -7.95765,-12.492777 -0.23295,-1.390321 -0.22897,-4.228778 0.007,-5.681824 0.86178,-5.290241 3.9226,-9.95022 8.33282,-12.685531 3.12104,-1.935723 6.19231,-2.813374 9.85263,-2.815848 z"
       style="display:inline"
       id="path54" /><path
       d="m 98.44102,13.570748 c -1.727714,-0.145747 -3.317434,0.952136 -3.817338,2.635498 -0.409389,1.378558 -0.0094,2.737942 1.108976,3.767212 0.974702,0.897026 2.215795,1.15182 3.570841,0.733288 1.099481,-0.339593 2.022051,-1.297921 2.366781,-2.458764 0.40893,-1.377016 0.009,-2.738332 -1.10639,-3.764628 -0.606206,-0.557892 -1.261905,-0.839977 -2.12287,-0.912606 z"
       style="display:inline"
       id="path53" /></g></svg>
