<?xml version="1.0" standalone="no"?>
<svg xmlns="http://www.w3.org/2000/svg" width="2000" height="2000" viewBox="0 0 2000 2000"><defs><clipPath id="clip-path-dot-color"><path d="M 100 676v 72h 36a 36 36, 0, 0, 0, 0 -72" transform="rotate(-90,136,712)"/><rect x="100" y="748" width="72" height="72" transform="rotate(0,136,784)"/><rect x="100" y="820" width="72" height="72" transform="rotate(0,136,856)"/><path d="M 100 892v 72h 72a 72 72, 0, 0, 0, -72 -72" transform="rotate(180,136,928)"/><circle cx="136" cy="1144" r="36" transform="rotate(0,136,1144)"/><rect x="172" y="892" width="72" height="72" transform="rotate(0,208,928)"/><rect x="172" y="964" width="72" height="72" transform="rotate(0,208,1000)"/><path d="M 172 1036v 72h 72a 72 72, 0, 0, 0, -72 -72" transform="rotate(180,208,1072)"/><circle cx="280" cy="784" r="36" transform="rotate(0,280,784)"/><rect x="244" y="892" width="72" height="72" transform="rotate(0,280,928)"/><path d="M 244 1036v 72h 36a 36 36, 0, 0, 0, 0 -72" transform="rotate(0,280,1072)"/><circle cx="280" cy="1288" r="36" transform="rotate(0,280,1288)"/><path d="M 316 820v 72h 72a 72 72, 0, 0, 0, -72 -72" transform="rotate(-90,352,856)"/><rect x="316" y="892" width="72" height="72" transform="rotate(0,352,928)"/><circle cx="352" cy="1216" r="36" transform="rotate(0,352,1216)"/><path d="M 388 820v 72h 72a 72 72, 0, 0, 0, -72 -72" transform="rotate(0,424,856)"/><rect x="388" y="892" width="72" height="72" transform="rotate(0,424,928)"/><path d="M 388 964v 72h 36a 36 36, 0, 0, 0, 0 -72" transform="rotate(90,424,1000)"/><circle cx="424" cy="1288" r="36" transform="rotate(0,424,1288)"/><circle cx="496" cy="784" r="36" transform="rotate(0,496,784)"/><path d="M 460 892v 72h 36a 36 36, 0, 0, 0, 0 -72" transform="rotate(0,496,928)"/><path d="M 460 1036v 72h 36a 36 36, 0, 0, 0, 0 -72" transform="rotate(-90,496,1072)"/><path d="M 460 1108v 72h 72a 72 72, 0, 0, 0, -72 -72" transform="rotate(180,496,1144)"/><path d="M 532 676v 72h 36a 36 36, 0, 0, 0, 0 -72" transform="rotate(180,568,712)"/><circle cx="568" cy="856" r="36" transform="rotate(0,568,856)"/><path d="M 532 964v 72h 36a 36 36, 0, 0, 0, 0 -72" transform="rotate(180,568,1000)"/><rect x="532" y="1108" width="72" height="72" transform="rotate(0,568,1144)"/><circle cx="568" cy="1288" r="36" transform="rotate(0,568,1288)"/><path d="M 604 676v 72h 72a 72 72, 0, 0, 0, -72 -72" transform="rotate(0,640,712)"/><path d="M 604 748v 72h 72a 72 72, 0, 0, 0, -72 -72" transform="rotate(180,640,784)"/><rect x="604" y="964" width="72" height="72" transform="rotate(0,640,1000)"/><rect x="604" y="1036" width="72" height="72" transform="rotate(0,640,1072)"/><rect x="604" y="1108" width="72" height="72" transform="rotate(0,640,1144)"/><path d="M 604 1180v 72h 72a 72 72, 0, 0, 0, -72 -72" transform="rotate(180,640,1216)"/><path d="M 676 100v 72h 72a 72 72, 0, 0, 0, -72 -72" transform="rotate(-90,712,136)"/><path d="M 676 172v 72h 36a 36 36, 0, 0, 0, 0 -72" transform="rotate(90,712,208)"/><path d="M 676 316v 72h 36a 36 36, 0, 0, 0, 0 -72" transform="rotate(-90,712,352)"/><path d="M 676 388v 72h 72a 72 72, 0, 0, 0, -72 -72" transform="rotate(180,712,424)"/><circle cx="712" cy="568" r="36" transform="rotate(0,712,568)"/><path d="M 676 748v 72h 36a 36 36, 0, 0, 0, 0 -72" transform="rotate(0,712,784)"/><path d="M 676 964v 72h 72a 72 72, 0, 0, 0, -72 -72" transform="rotate(0,712,1000)"/><rect x="676" y="1036" width="72" height="72" transform="rotate(0,712,1072)"/><rect x="676" y="1108" width="72" height="72" transform="rotate(0,712,1144)"/><rect x="676" y="1180" width="72" height="72" transform="rotate(0,712,1216)"/><circle cx="712" cy="1432" r="36" transform="rotate(0,712,1432)"/><circle cx="712" cy="1864" r="36" transform="rotate(0,712,1864)"/><path d="M 748 100v 72h 36a 36 36, 0, 0, 0, 0 -72" transform="rotate(0,784,136)"/><path d="M 748 244v 72h 36a 36 36, 0, 0, 0, 0 -72" transform="rotate(180,784,280)"/><rect x="748" y="388" width="72" height="72" transform="rotate(0,784,424)"/><path d="M 748 460v 72h 72a 72 72, 0, 0, 0, -72 -72" transform="rotate(180,784,496)"/><circle cx="784" cy="856" r="36" transform="rotate(0,784,856)"/><rect x="748" y="1108" width="72" height="72" transform="rotate(0,784,1144)"/><rect x="748" y="1180" width="72" height="72" transform="rotate(0,784,1216)"/><path d="M 748 1252v 72h 72a 72 72, 0, 0, 0, -72 -72" transform="rotate(180,784,1288)"/><path d="M 748 1468v 72h 36a 36 36, 0, 0, 0, 0 -72" transform="rotate(-90,784,1504)"/><rect x="748" y="1540" width="72" height="72" transform="rotate(0,784,1576)"/><rect x="748" y="1612" width="72" height="72" transform="rotate(0,784,1648)"/><rect x="748" y="1684" width="72" height="72" transform="rotate(0,784,1720)"/><path d="M 748 1756v 72h 36a 36 36, 0, 0, 0, 0 -72" transform="rotate(90,784,1792)"/><path d="M 820 172v 72h 36a 36 36, 0, 0, 0, 0 -72" transform="rotate(-90,856,208)"/><rect x="820" y="244" width="72" height="72" transform="rotate(0,856,280)"/><rect x="820" y="316" width="72" height="72" transform="rotate(0,856,352)"/><rect x="820" y="388" width="72" height="72" transform="rotate(0,856,424)"/><rect x="820" y="460" width="72" height="72" transform="rotate(0,856,496)"/><rect x="820" y="532" width="72" height="72" transform="rotate(0,856,568)"/><path d="M 820 604v 72h 72a 72 72, 0, 0, 0, -72 -72" transform="rotate(180,856,640)"/><circle cx="856" cy="784" r="36" transform="rotate(0,856,784)"/><path d="M 820 964v 72h 36a 36 36, 0, 0, 0, 0 -72" transform="rotate(-90,856,1000)"/><rect x="820" y="1036" width="72" height="72" transform="rotate(0,856,1072)"/><rect x="820" y="1108" width="72" height="72" transform="rotate(0,856,1144)"/><rect x="820" y="1180" width="72" height="72" transform="rotate(0,856,1216)"/><rect x="820" y="1252" width="72" height="72" transform="rotate(0,856,1288)"/><path d="M 820 1324v 72h 36a 36 36, 0, 0, 0, 0 -72" transform="rotate(90,856,1360)"/><rect x="820" y="1612" width="72" height="72" transform="rotate(0,856,1648)"/><path d="M 820 1828v 72h 36a 36 36, 0, 0, 0, 0 -72" transform="rotate(180,856,1864)"/><circle cx="928" cy="136" r="36" transform="rotate(0,928,136)"/><path d="M 892 244v 72h 36a 36 36, 0, 0, 0, 0 -72" transform="rotate(0,928,280)"/><path d="M 892 388v 72h 36a 36 36, 0, 0, 0, 0 -72" transform="rotate(0,928,424)"/><path d="M 892 604v 72h 72a 72 72, 0, 0, 0, -72 -72" transform="rotate(0,928,640)"/><path d="M 892 676v 72h 36a 36 36, 0, 0, 0, 0 -72" transform="rotate(90,928,712)"/><rect x="892" y="1108" width="72" height="72" transform="rotate(0,928,1144)"/><path d="M 892 1180v 72h 72a 72 72, 0, 0, 0, -72 -72" transform="rotate(90,928,1216)"/><path d="M 892 1396v 72h 36a 36 36, 0, 0, 0, 0 -72" transform="rotate(180,928,1432)"/><path d="M 892 1612v 72h 72a 72 72, 0, 0, 0, -72 -72" transform="rotate(0,928,1648)"/><rect x="892" y="1684" width="72" height="72" transform="rotate(0,928,1720)"/><rect x="892" y="1756" width="72" height="72" transform="rotate(0,928,1792)"/><rect x="892" y="1828" width="72" height="72" transform="rotate(0,928,1864)"/><path d="M 964 172v 72h 36a 36 36, 0, 0, 0, 0 -72" transform="rotate(180,1000,208)"/><circle cx="1000" cy="352" r="36" transform="rotate(0,1000,352)"/><path d="M 964 460v 72h 36a 36 36, 0, 0, 0, 0 -72" transform="rotate(-90,1000,496)"/><path d="M 964 532v 72h 36a 36 36, 0, 0, 0, 0 -72" transform="rotate(90,1000,568)"/><path d="M 964 748v 72h 36a 36 36, 0, 0, 0, 0 -72" transform="rotate(-90,1000,784)"/><path d="M 964 820v 72h 72a 72 72, 0, 0, 0, -72 -72" transform="rotate(180,1000,856)"/><path d="M 964 1108v 72h 36a 36 36, 0, 0, 0, 0 -72" transform="rotate(0,1000,1144)"/><circle cx="1000" cy="1288" r="36" transform="rotate(0,1000,1288)"/><path d="M 964 1396v 72h 72a 72 72, 0, 0, 0, -72 -72" transform="rotate(0,1000,1432)"/><path d="M 964 1468v 72h 36a 36 36, 0, 0, 0, 0 -72" transform="rotate(90,1000,1504)"/><path d="M 964 1828v 72h 36a 36 36, 0, 0, 0, 0 -72" transform="rotate(0,1000,1864)"/><path d="M 1036 100v 72h 72a 72 72, 0, 0, 0, -72 -72" transform="rotate(-90,1072,136)"/><rect x="1036" y="172" width="72" height="72" transform="rotate(0,1072,208)"/><path d="M 1036 604v 72h 36a 36 36, 0, 0, 0, 0 -72" transform="rotate(180,1072,640)"/><rect x="1036" y="820" width="72" height="72" transform="rotate(0,1072,856)"/><circle cx="1072" cy="1000" r="36" transform="rotate(0,1072,1000)"/><path d="M 1036 1180v 72h 36a 36 36, 0, 0, 0, 0 -72" transform="rotate(180,1072,1216)"/><path d="M 1036 1324v 72h 36a 36 36, 0, 0, 0, 0 -72" transform="rotate(180,1072,1360)"/><path d="M 1036 1540v 72h 36a 36 36, 0, 0, 0, 0 -72" transform="rotate(180,1072,1576)"/><path d="M 1036 1756v 72h 36a 36 36, 0, 0, 0, 0 -72" transform="rotate(180,1072,1792)"/><rect x="1108" y="100" width="72" height="72" transform="rotate(0,1144,136)"/><path d="M 1108 172v 72h 72a 72 72, 0, 0, 0, -72 -72" transform="rotate(90,1144,208)"/><path d="M 1108 460v 72h 36a 36 36, 0, 0, 0, 0 -72" transform="rotate(-90,1144,496)"/><rect x="1108" y="532" width="72" height="72" transform="rotate(0,1144,568)"/><rect x="1108" y="604" width="72" height="72" transform="rotate(0,1144,640)"/><path d="M 1108 748v 72h 36a 36 36, 0, 0, 0, 0 -72" transform="rotate(-90,1144,784)"/><rect x="1108" y="820" width="72" height="72" transform="rotate(0,1144,856)"/><circle cx="1144" cy="1072" r="36" transform="rotate(0,1144,1072)"/><path d="M 1108 1180v 72h 36a 36 36, 0, 0, 0, 0 -72" transform="rotate(0,1144,1216)"/><path d="M 1108 1324v 72h 72a 72 72, 0, 0, 0, -72 -72" transform="rotate(0,1144,1360)"/><path d="M 1108 1396v 72h 72a 72 72, 0, 0, 0, -72 -72" transform="rotate(180,1144,1432)"/><path d="M 1108 1540v 72h 72a 72 72, 0, 0, 0, -72 -72" transform="rotate(0,1144,1576)"/><rect x="1108" y="1612" width="72" height="72" transform="rotate(0,1144,1648)"/><rect x="1108" y="1684" width="72" height="72" transform="rotate(0,1144,1720)"/><rect x="1108" y="1756" width="72" height="72" transform="rotate(0,1144,1792)"/><path d="M 1108 1828v 72h 72a 72 72, 0, 0, 0, -72 -72" transform="rotate(180,1144,1864)"/><rect x="1180" y="100" width="72" height="72" transform="rotate(0,1216,136)"/><path d="M 1180 316v 72h 72a 72 72, 0, 0, 0, -72 -72" transform="rotate(-90,1216,352)"/><path d="M 1180 388v 72h 36a 36 36, 0, 0, 0, 0 -72" transform="rotate(90,1216,424)"/><path d="M 1180 604v 72h 72a 72 72, 0, 0, 0, -72 -72" transform="rotate(0,1216,640)"/><path d="M 1180 676v 72h 72a 72 72, 0, 0, 0, -72 -72" transform="rotate(180,1216,712)"/><path d="M 1180 820v 72h 36a 36 36, 0, 0, 0, 0 -72" transform="rotate(0,1216,856)"/><path d="M 1180 964v 72h 36a 36 36, 0, 0, 0, 0 -72" transform="rotate(180,1216,1000)"/><circle cx="1216" cy="1144" r="36" transform="rotate(0,1216,1144)"/><path d="M 1180 1252v 72h 36a 36 36, 0, 0, 0, 0 -72" transform="rotate(180,1216,1288)"/><rect x="1180" y="1396" width="72" height="72" transform="rotate(0,1216,1432)"/><path d="M 1180 1468v 72h 72a 72 72, 0, 0, 0, -72 -72" transform="rotate(180,1216,1504)"/><path d="M 1180 1612v 72h 72a 72 72, 0, 0, 0, -72 -72" transform="rotate(0,1216,1648)"/><rect x="1180" y="1684" width="72" height="72" transform="rotate(0,1216,1720)"/><path d="M 1180 1828v 72h 36a 36 36, 0, 0, 0, 0 -72" transform="rotate(0,1216,1864)"/><path d="M 1252 100v 72h 36a 36 36, 0, 0, 0, 0 -72" transform="rotate(0,1288,136)"/><path d="M 1252 316v 72h 36a 36 36, 0, 0, 0, 0 -72" transform="rotate(0,1288,352)"/><path d="M 1252 460v 72h 36a 36 36, 0, 0, 0, 0 -72" transform="rotate(-90,1288,496)"/><path d="M 1252 532v 72h 36a 36 36, 0, 0, 0, 0 -72" transform="rotate(90,1288,568)"/><rect x="1252" y="676" width="72" height="72" transform="rotate(0,1288,712)"/><path d="M 1252 748v 72h 72a 72 72, 0, 0, 0, -72 -72" transform="rotate(180,1288,784)"/><path d="M 1252 892v 72h 72a 72 72, 0, 0, 0, -72 -72" transform="rotate(-90,1288,928)"/><path d="M 1252 964v 72h 72a 72 72, 0, 0, 0, -72 -72" transform="rotate(90,1288,1000)"/><rect x="1252" y="1252" width="72" height="72" transform="rotate(0,1288,1288)"/><rect x="1252" y="1324" width="72" height="72" transform="rotate(0,1288,1360)"/><rect x="1252" y="1396" width="72" height="72" transform="rotate(0,1288,1432)"/><rect x="1252" y="1468" width="72" height="72" transform="rotate(0,1288,1504)"/><path d="M 1252 1540v 72h 72a 72 72, 0, 0, 0, -72 -72" transform="rotate(180,1288,1576)"/><rect x="1252" y="1684" width="72" height="72" transform="rotate(0,1288,1720)"/><path d="M 1252 1756v 72h 72a 72 72, 0, 0, 0, -72 -72" transform="rotate(180,1288,1792)"/><path d="M 1324 676v 72h 72a 72 72, 0, 0, 0, -72 -72" transform="rotate(0,1360,712)"/><rect x="1324" y="748" width="72" height="72" transform="rotate(0,1360,784)"/><rect x="1324" y="820" width="72" height="72" transform="rotate(0,1360,856)"/><path d="M 1324 892v 72h 72a 72 72, 0, 0, 0, -72 -72" transform="rotate(90,1360,928)"/><path d="M 1324 1036v 72h 36a 36 36, 0, 0, 0, 0 -72" transform="rotate(180,1360,1072)"/><path d="M 1324 1180v 72h 36a 36 36, 0, 0, 0, 0 -72" transform="rotate(-90,1360,1216)"/><rect x="1324" y="1252" width="72" height="72" transform="rotate(0,1360,1288)"/><rect x="1324" y="1540" width="72" height="72" transform="rotate(0,1360,1576)"/><path d="M 1324 1684v 72h 72a 72 72, 0, 0, 0, -72 -72" transform="rotate(0,1360,1720)"/><path d="M 1324 1756v 72h 72a 72 72, 0, 0, 0, -72 -72" transform="rotate(90,1360,1792)"/><rect x="1396" y="820" width="72" height="72" transform="rotate(0,1432,856)"/><path d="M 1396 964v 72h 36a 36 36, 0, 0, 0, 0 -72" transform="rotate(-90,1432,1000)"/><rect x="1396" y="1036" width="72" height="72" transform="rotate(0,1432,1072)"/><rect x="1396" y="1252" width="72" height="72" transform="rotate(0,1432,1288)"/><circle cx="1432" cy="1432" r="36" transform="rotate(0,1432,1432)"/><rect x="1396" y="1540" width="72" height="72" transform="rotate(0,1432,1576)"/><circle cx="1432" cy="1864" r="36" transform="rotate(0,1432,1864)"/><path d="M 1468 748v 72h 72a 72 72, 0, 0, 0, -72 -72" transform="rotate(-90,1504,784)"/><rect x="1468" y="820" width="72" height="72" transform="rotate(0,1504,856)"/><path d="M 1468 892v 72h 72a 72 72, 0, 0, 0, -72 -72" transform="rotate(180,1504,928)"/><rect x="1468" y="1036" width="72" height="72" transform="rotate(0,1504,1072)"/><rect x="1468" y="1108" width="72" height="72" transform="rotate(0,1504,1144)"/><rect x="1468" y="1180" width="72" height="72" transform="rotate(0,1504,1216)"/><rect x="1468" y="1252" width="72" height="72" transform="rotate(0,1504,1288)"/><rect x="1468" y="1540" width="72" height="72" transform="rotate(0,1504,1576)"/><path d="M 1540 676v 72h 72a 72 72, 0, 0, 0, -72 -72" transform="rotate(-90,1576,712)"/><path d="M 1540 748v 72h 72a 72 72, 0, 0, 0, -72 -72" transform="rotate(90,1576,784)"/><path d="M 1540 892v 72h 36a 36 36, 0, 0, 0, 0 -72" transform="rotate(0,1576,928)"/><rect x="1540" y="1036" width="72" height="72" transform="rotate(0,1576,1072)"/><path d="M 1540 1180v 72h 72a 72 72, 0, 0, 0, -72 -72" transform="rotate(0,1576,1216)"/><rect x="1540" y="1252" width="72" height="72" transform="rotate(0,1576,1288)"/><rect x="1540" y="1324" width="72" height="72" transform="rotate(0,1576,1360)"/><rect x="1540" y="1396" width="72" height="72" transform="rotate(0,1576,1432)"/><rect x="1540" y="1468" width="72" height="72" transform="rotate(0,1576,1504)"/><path d="M 1540 1540v 72h 72a 72 72, 0, 0, 0, -72 -72" transform="rotate(90,1576,1576)"/><path d="M 1540 1756v 72h 72a 72 72, 0, 0, 0, -72 -72" transform="rotate(-90,1576,1792)"/><path d="M 1540 1828v 72h 72a 72 72, 0, 0, 0, -72 -72" transform="rotate(180,1576,1864)"/><path d="M 1612 676v 72h 36a 36 36, 0, 0, 0, 0 -72" transform="rotate(0,1648,712)"/><path d="M 1612 964v 72h 36a 36 36, 0, 0, 0, 0 -72" transform="rotate(-90,1648,1000)"/><rect x="1612" y="1036" width="72" height="72" transform="rotate(0,1648,1072)"/><path d="M 1612 1108v 72h 36a 36 36, 0, 0, 0, 0 -72" transform="rotate(90,1648,1144)"/><rect x="1612" y="1252" width="72" height="72" transform="rotate(0,1648,1288)"/><path d="M 1612 1396v 72h 36a 36 36, 0, 0, 0, 0 -72" transform="rotate(0,1648,1432)"/><rect x="1612" y="1756" width="72" height="72" transform="rotate(0,1648,1792)"/><rect x="1612" y="1828" width="72" height="72" transform="rotate(0,1648,1864)"/><path d="M 1684 892v 72h 36a 36 36, 0, 0, 0, 0 -72" transform="rotate(180,1720,928)"/><rect x="1684" y="1036" width="72" height="72" transform="rotate(0,1720,1072)"/><path d="M 1684 1252v 72h 72a 72 72, 0, 0, 0, -72 -72" transform="rotate(0,1720,1288)"/><path d="M 1684 1324v 72h 36a 36 36, 0, 0, 0, 0 -72" transform="rotate(90,1720,1360)"/><path d="M 1684 1540v 72h 72a 72 72, 0, 0, 0, -72 -72" transform="rotate(-90,1720,1576)"/><rect x="1684" y="1612" width="72" height="72" transform="rotate(0,1720,1648)"/><rect x="1684" y="1684" width="72" height="72" transform="rotate(0,1720,1720)"/><rect x="1684" y="1756" width="72" height="72" transform="rotate(0,1720,1792)"/><rect x="1684" y="1828" width="72" height="72" transform="rotate(0,1720,1864)"/><path d="M 1756 676v 72h 72a 72 72, 0, 0, 0, -72 -72" transform="rotate(-90,1792,712)"/><path d="M 1756 748v 72h 72a 72 72, 0, 0, 0, -72 -72" transform="rotate(180,1792,784)"/><rect x="1756" y="892" width="72" height="72" transform="rotate(0,1792,928)"/><rect x="1756" y="964" width="72" height="72" transform="rotate(0,1792,1000)"/><rect x="1756" y="1036" width="72" height="72" transform="rotate(0,1792,1072)"/><path d="M 1756 1468v 72h 36a 36 36, 0, 0, 0, 0 -72" transform="rotate(-90,1792,1504)"/><path d="M 1756 1540v 72h 72a 72 72, 0, 0, 0, -72 -72" transform="rotate(90,1792,1576)"/><path d="M 1756 1684v 72h 72a 72 72, 0, 0, 0, -72 -72" transform="rotate(0,1792,1720)"/><rect x="1756" y="1756" width="72" height="72" transform="rotate(0,1792,1792)"/><rect x="1756" y="1828" width="72" height="72" transform="rotate(0,1792,1864)"/><path d="M 1828 676v 72h 72a 72 72, 0, 0, 0, -72 -72" transform="rotate(0,1864,712)"/><path d="M 1828 748v 72h 72a 72 72, 0, 0, 0, -72 -72" transform="rotate(90,1864,784)"/><path d="M 1828 892v 72h 72a 72 72, 0, 0, 0, -72 -72" transform="rotate(0,1864,928)"/><rect x="1828" y="964" width="72" height="72" transform="rotate(0,1864,1000)"/><path d="M 1828 1036v 72h 72a 72 72, 0, 0, 0, -72 -72" transform="rotate(90,1864,1072)"/><path d="M 1828 1252v 72h 36a 36 36, 0, 0, 0, 0 -72" transform="rotate(-90,1864,1288)"/><path d="M 1828 1324v 72h 36a 36 36, 0, 0, 0, 0 -72" transform="rotate(90,1864,1360)"/><circle cx="1864" cy="1648" r="36" transform="rotate(0,1864,1648)"/><path d="M 1828 1828v 72h 36a 36 36, 0, 0, 0, 0 -72" transform="rotate(0,1864,1864)"/></clipPath><clipPath id="clip-path-corners-square-color-0-0"><path clip-rule="evenodd" d="M 352 352m 0 -252a 252 252 0 1 0 1 0zm 0 72a 180 180 0 1 1 -1 0Z" transform="rotate(0,352,352)"/></clipPath><clipPath id="clip-path-corners-dot-color-0-0"><circle cx="352" cy="352" r="108" transform="rotate(0,352,352)"/></clipPath><clipPath id="clip-path-corners-square-color-1-0"><path clip-rule="evenodd" d="M 1648 352m 0 -252a 252 252 0 1 0 1 0zm 0 72a 180 180 0 1 1 -1 0Z" transform="rotate(90,1648,352)"/></clipPath><clipPath id="clip-path-corners-dot-color-1-0"><circle cx="1648" cy="352" r="108" transform="rotate(90,1648,352)"/></clipPath><clipPath id="clip-path-corners-square-color-0-1"><path clip-rule="evenodd" d="M 352 1648m 0 -252a 252 252 0 1 0 1 0zm 0 72a 180 180 0 1 1 -1 0Z" transform="rotate(-90,352,1648)"/></clipPath><clipPath id="clip-path-corners-dot-color-0-1"><circle cx="352" cy="1648" r="108" transform="rotate(-90,352,1648)"/></clipPath></defs><rect x="0" y="0" height="2000" width="2000" clip-path="url('#clip-path-background-color')" fill="#000000"/><rect x="100" y="100" height="1800" width="1800" clip-path="url('#clip-path-dot-color')" fill="#ffffff"/><rect x="100" y="100" height="504" width="504" clip-path="url('#clip-path-corners-square-color-0-0')" fill="#ffffff"/><rect x="244" y="244" height="216" width="216" clip-path="url('#clip-path-corners-dot-color-0-0')" fill="#ffffff"/><rect x="1396" y="100" height="504" width="504" clip-path="url('#clip-path-corners-square-color-1-0')" fill="#ffffff"/><rect x="1540" y="244" height="216" width="216" clip-path="url('#clip-path-corners-dot-color-1-0')" fill="#ffffff"/><rect x="100" y="1396" height="504" width="504" clip-path="url('#clip-path-corners-square-color-0-1')" fill="#ffffff"/><rect x="244" y="1540" height="216" width="216" clip-path="url('#clip-path-corners-dot-color-0-1')" fill="#ffffff"/></svg>