<?xml version="1.0" encoding="UTF-8" standalone="no"?>
<!-- Created with Inkscape (http://www.inkscape.org/) -->

<svg
   version="1.1"
   id="svg1"
   width="2000"
   height="2000"
   viewBox="0 0 2000 2000"
   sodipodi:docname="qrfy_code_inkscape.svg"
   inkscape:version="1.3.2 (091e20e, 2023-11-25, custom)"
   xmlns:inkscape="http://www.inkscape.org/namespaces/inkscape"
   xmlns:sodipodi="http://sodipodi.sourceforge.net/DTD/sodipodi-0.dtd"
   xmlns="http://www.w3.org/2000/svg"
   xmlns:svg="http://www.w3.org/2000/svg">
  <defs
     id="defs1" />
  <sodipodi:namedview
     id="namedview1"
     pagecolor="#ffffff"
     bordercolor="#000000"
     borderopacity="0.25"
     inkscape:showpageshadow="2"
     inkscape:pageopacity="0.0"
     inkscape:pagecheckerboard="0"
     inkscape:deskcolor="#d1d1d1"
     showgrid="false"
     inkscape:zoom="0.41471813"
     inkscape:cx="1100.7476"
     inkscape:cy="1189.9649"
     inkscape:window-width="1905"
     inkscape:window-height="1395"
     inkscape:window-x="1271"
     inkscape:window-y="2575"
     inkscape:window-maximized="0"
     inkscape:current-layer="g1" />
  <g
     inkscape:groupmode="layer"
     inkscape:label="Image"
     id="g1">
    <path
       d="m 1432.041,1828.9277 c -2.6341,0 -7.8543,0.9462 -11.6015,2.1036 -5.8688,1.8126 -7.7412,3.032 -13.502,8.7929 -5.7609,5.7608 -6.9783,7.6332 -8.791,13.502 -1.1574,3.7473 -2.1055,8.9674 -2.1055,11.6015 0,2.6341 0.9481,7.8563 2.1055,11.6036 1.813,5.8699 3.0314,7.7384 8.7988,13.5058 5.6171,5.6171 7.7307,7.0228 13.1445,8.7363 8.3535,2.6439 15.1099,2.6591 23.5547,0.051 5.8688,-1.8127 7.7392,-3.0321 13.5,-8.7929 5.7609,-5.7608 6.9803,-7.6313 8.793,-13.5 1.1574,-3.7473 2.1035,-8.9695 2.1035,-11.6036 0,-2.6341 -0.9461,-7.8542 -2.1035,-11.6015 -1.8127,-5.8688 -3.0321,-7.7412 -8.793,-13.502 -5.7608,-5.7609 -7.6312,-6.9803 -13.5,-8.7929 -3.7473,-1.1574 -8.9694,-2.1036 -11.6035,-2.1036 z"
       style=""
       id="path61" />
    <path
       d="m 1432.041,1828.9277 c 2.6341,0 7.8562,0.9462 11.6035,2.1036 5.8688,1.8126 7.7392,3.032 13.5,8.7929 5.7609,5.7608 6.9803,7.6332 8.793,13.502 1.1574,3.7473 2.1035,8.9674 2.1035,11.6015 0,2.6341 -0.9461,7.8563 -2.1035,11.6036 -1.8127,5.8687 -3.0321,7.7392 -8.793,13.5 -5.7608,5.7608 -7.6312,6.9802 -13.5,8.7929 -8.4448,2.6083 -15.2012,2.5931 -23.5547,-0.051 -5.4138,-1.7135 -7.5274,-3.1192 -13.1445,-8.7363 -5.7674,-5.7674 -6.9858,-7.6359 -8.7988,-13.5058 -1.1574,-3.7473 -2.1055,-8.9695 -2.1055,-11.6036 0,-2.6341 0.9481,-7.8542 2.1055,-11.6015 1.8127,-5.8688 3.0301,-7.7412 8.791,-13.502 5.7608,-5.7609 7.6332,-6.9803 13.502,-8.7929 3.7472,-1.1574 8.9674,-2.1036 11.6015,-2.1036 z"
       style=""
       id="path60" />
    <path
       d="m 712.04102,1828.9277 c -2.63413,0 -7.85434,0.9462 -11.60157,2.1036 -5.86879,1.8126 -7.74112,3.032 -13.50195,8.7929 -5.76082,5.7608 -6.97833,7.6332 -8.79102,13.502 -1.15739,3.7473 -2.10546,8.9674 -2.10546,11.6015 0,2.6341 0.94807,7.8563 2.10546,11.6036 1.81305,5.8699 3.03148,7.7384 8.79883,13.5058 5.61719,5.6171 7.73077,7.0228 13.14453,8.7363 8.35349,2.6439 15.10992,2.6591 23.55469,0.051 5.8688,-1.8127 7.73917,-3.0321 13.5,-8.7929 5.76083,-5.7608 6.98028,-7.6313 8.79297,-13.5 1.1574,-3.7473 2.10352,-8.9695 2.10352,-11.6036 0,-2.6341 -0.94612,-7.8542 -2.10352,-11.6015 -1.81269,-5.8688 -3.03214,-7.7412 -8.79297,-13.502 -5.76083,-5.7609 -7.6312,-6.9803 -13.5,-8.7929 -3.74723,-1.1574 -8.96939,-2.1036 -11.60351,-2.1036 z"
       style=""
       id="path59" />
    <path
       d="m 712.04102,1828.9277 c 2.63412,0 7.85628,0.9462 11.60351,2.1036 5.8688,1.8126 7.73917,3.032 13.5,8.7929 5.76083,5.7608 6.98028,7.6332 8.79297,13.502 1.1574,3.7473 2.10352,8.9674 2.10352,11.6015 0,2.6341 -0.94612,7.8563 -2.10352,11.6036 -1.81269,5.8687 -3.03214,7.7392 -8.79297,13.5 -5.76083,5.7608 -7.6312,6.9802 -13.5,8.7929 -8.44477,2.6083 -15.2012,2.5931 -23.55469,-0.051 -5.41376,-1.7135 -7.52734,-3.1192 -13.14453,-8.7363 -5.76735,-5.7674 -6.98578,-7.6359 -8.79883,-13.5058 -1.15739,-3.7473 -2.10546,-8.9695 -2.10546,-11.6036 0,-2.6341 0.94807,-7.8542 2.10546,-11.6015 1.81269,-5.8688 3.0302,-7.7412 8.79102,-13.502 5.76083,-5.7609 7.63316,-6.9803 13.50195,-8.7929 3.74723,-1.1574 8.96744,-2.1036 11.60157,-2.1036 z"
       style=""
       id="path58" />
    <path
       d="m 1864.041,1612.9277 c -2.6341,0 -7.8543,0.9462 -11.6015,2.1036 -5.8688,1.8126 -7.7412,3.032 -13.502,8.7929 -5.7609,5.7608 -6.9783,7.6332 -8.791,13.502 -1.1574,3.7473 -2.1055,8.9674 -2.1055,11.6015 0,2.6341 0.9481,7.8563 2.1055,11.6036 1.813,5.8699 3.0314,7.7384 8.7988,13.5058 5.6171,5.6171 7.7307,7.0228 13.1445,8.7363 8.3535,2.6439 15.1099,2.6591 23.5547,0.051 5.8688,-1.8127 7.7392,-3.0321 13.5,-8.7929 5.7609,-5.7608 6.9803,-7.6313 8.793,-13.5 1.1574,-3.7473 2.1035,-8.9695 2.1035,-11.6036 0,-2.6341 -0.9461,-7.8542 -2.1035,-11.6015 -1.8127,-5.8688 -3.0321,-7.7412 -8.793,-13.502 -5.7608,-5.7609 -7.6312,-6.9803 -13.5,-8.7929 -3.7473,-1.1574 -8.9694,-2.1036 -11.6035,-2.1036 z"
       style=""
       id="path57" />
    <path
       d="m 1070.834,1541.1328 c -4.4833,0.2341 -6.6517,0.7727 -10.0235,1.7969 -6.2864,1.9095 -7.9571,2.9804 -13.8535,8.8769 -5.7797,5.7796 -6.9968,7.6474 -8.8105,13.5196 -1.1574,3.7473 -2.1055,8.9674 -2.1055,11.6015 0,2.6341 0.9481,7.8563 2.1055,11.6036 1.8127,5.8687 3.0301,7.7392 8.791,13.5 9.7937,9.7937 13.9141,10.8964 40.709,10.8964 h 20.3945 v 72 72 h -20.3945 c -26.7949,0 -30.9153,1.1027 -40.709,10.8965 -5.7609,5.7608 -6.9783,7.6332 -8.791,13.502 -2.6589,8.6085 -2.6589,14.5966 0,23.2051 1.8127,5.8687 3.0301,7.7392 8.791,13.5 9.7819,9.7819 13.9326,10.8964 40.5664,10.8964 h 20.25 l 0.6406,6.8809 c 0.8154,8.7733 3.865,18.7232 8.4649,27.6191 4.9928,9.6557 19.0696,23.7216 28.6816,28.6582 14.9919,7.6997 20.1932,8.5972 50.6445,8.7325 22.4121,0.1 25.263,-0.08 31.459,-1.9942 5.8688,-1.8127 7.7392,-3.0321 13.5,-8.7929 5.7609,-5.7608 6.9803,-7.6313 8.793,-13.5 2.6589,-8.6085 2.6589,-14.5966 0,-23.2051 -1.8127,-5.8688 -3.0321,-7.7412 -8.793,-13.502 -9.7937,-9.7938 -13.9141,-10.8965 -40.709,-10.8965 h -20.3945 v -36 -36 h 35.8574 35.8555 l 0.6406,6.8809 c 1.5712,16.9053 8.3176,30.8526 21.1153,43.6504 9.9338,9.9337 17.5248,14.5657 30.5312,18.6269 10.7675,3.3622 29.2325,3.3622 40,0 13.0064,-4.0612 20.5994,-8.6932 30.5332,-18.6269 9.9337,-9.9338 14.5638,-17.5249 18.625,-30.5313 3.3622,-10.7675 3.3622,-29.2325 0,-40 -4.0612,-13.0064 -8.6913,-20.5974 -18.625,-30.5312 -9.7289,-9.7288 -17.1598,-14.3275 -30.0332,-18.5879 -6.8013,-2.2508 -8.2093,-2.3258 -49.6113,-2.6563 l -42.6113,-0.3398 -0.6348,-6.8242 c -1.5655,-16.8449 -8.3276,-30.8099 -21.1094,-43.5918 -12.7618,-12.7617 -26.7509,-19.545 -43.5195,-21.1035 l -6.75,-0.6289 -0.627,-6.75 c -1.5585,-16.7686 -8.3418,-30.7558 -21.1035,-43.5176 -9.7527,-9.7526 -17.2482,-14.3842 -30.0332,-18.5567 -6.4191,-2.0949 -9.2217,-2.3175 -33.789,-2.6835 -12.6349,-0.1883 -19.4347,-0.2576 -23.918,-0.024 z"
       style=""
       id="path56" />
    <path
       d="m 352.04102,1540.9883 c -20.84839,0 -41.69684,6.137 -60.5,18.414 -7.72285,5.0425 -23.98099,21.3026 -29.02344,29.0254 -18.72961,28.6857 -23.30328,61.8156 -13,94.1719 2.82925,8.885 7.27784,18.0642 13,26.8281 5.04245,7.7228 21.30059,23.9829 29.02344,29.0254 23.59265,15.4043 51.68233,21.5353 77.79101,16.9824 24.02249,-4.1891 41.61571,-13.307 58.76367,-30.455 13.35279,-13.3528 21.25618,-26.0052 26.47071,-42.3809 10.30328,-32.3563 5.72961,-65.4862 -13,-94.1719 -5.04246,-7.7228 -21.30255,-23.9829 -29.02539,-29.0254 -18.80317,-12.277 -39.65162,-18.414 -60.5,-18.414 z"
       style=""
       id="path55" />
    <path
       d="m 1792.041,1469.0371 c -3.6491,0 -7.2973,0.6647 -11.6015,1.9942 -5.8688,1.8126 -7.7412,3.032 -13.502,8.7929 -9.782,9.7819 -10.8965,13.9307 -10.8965,40.5645 v 20.2519 l -6.8808,0.6387 c -16.9053,1.5712 -30.8526,8.3195 -43.6504,21.1172 -9.7083,9.7084 -14.278,17.0797 -18.6153,30.0312 l -2.3437,7 -0.2891,78.6914 -0.289,78.6914 -42.7149,0.3418 c -41.5101,0.3309 -42.9143,0.4051 -49.7168,2.6563 -12.8734,4.2604 -20.3023,8.8591 -30.0312,18.5879 -9.9337,9.9338 -14.5658,17.5248 -18.627,30.5312 -1.931,6.1839 -2.3418,9.6935 -2.3418,20 0,10.3065 0.4108,13.8161 2.3418,20 4.0612,13.0064 8.6933,20.5975 18.627,30.5313 11.4359,11.4359 22.457,17.4084 37.6074,20.3808 2.4336,0.4775 64.1138,0.9184 137.0683,0.9786 132.1666,0.1092 132.6704,0.1026 139.459,-1.9942 5.8688,-1.8127 7.7392,-3.0321 13.5,-8.7929 5.7609,-5.7608 6.9803,-7.6313 8.793,-13.5 1.1574,-3.7473 2.1035,-8.9695 2.1035,-11.6036 0,-2.6341 -0.9461,-7.8542 -2.1035,-11.6015 -1.8127,-5.8688 -3.0321,-7.7412 -8.793,-13.502 -9.7889,-9.789 -13.9213,-10.8965 -40.6504,-10.8965 h -20.3359 l -0.3398,-42.75 c -0.3312,-41.5459 -0.4069,-42.9471 -2.6582,-49.75 -4.2604,-12.8734 -8.8572,-20.3023 -18.586,-30.0312 -12.7978,-12.7977 -26.7451,-19.546 -43.6504,-21.1172 l -6.8828,-0.6387 v -35.7129 -35.7129 l 6.8828,-0.6386 c 16.9053,-1.5712 30.8526,-8.3195 43.6504,-21.1172 9.7526,-9.7527 14.3822,-17.2463 18.5547,-30.0313 2.0949,-6.4191 2.3175,-9.2236 2.6836,-33.791 0.3766,-25.2698 0.2768,-27.1959 -1.7715,-33.9394 -1.9095,-6.2865 -2.9824,-7.9591 -8.8789,-13.8555 -5.7796,-5.7797 -7.6454,-6.9969 -13.5176,-8.8105 -4.3042,-1.3295 -7.9544,-1.9942 -11.6035,-1.9942 z"
       style=""
       id="path53" />
    <path
       d="m 1792.041,1469.0371 c 3.6491,0 7.2993,0.6647 11.6035,1.9942 5.8722,1.8136 7.738,3.0308 13.5176,8.8105 5.8965,5.8964 6.9694,7.569 8.8789,13.8555 2.0483,6.7435 2.1481,8.6696 1.7715,33.9394 -0.3661,24.5674 -0.5887,27.3719 -2.6836,33.791 -4.1725,12.785 -8.8021,20.2786 -18.5547,30.0313 -12.7978,12.7977 -26.7451,19.546 -43.6504,21.1172 l -6.8828,0.6386 v 35.7129 35.7129 l 6.8828,0.6387 c 16.9053,1.5712 30.8526,8.3195 43.6504,21.1172 9.7288,9.7289 14.3256,17.1578 18.586,30.0312 2.2513,6.8029 2.327,8.2041 2.6582,49.75 l 0.3398,42.75 h 20.3359 c 26.7291,0 30.8615,1.1075 40.6504,10.8965 5.7609,5.7608 6.9803,7.6332 8.793,13.502 1.1574,3.7473 2.1035,8.9674 2.1035,11.6015 0,2.6341 -0.9461,7.8563 -2.1035,11.6036 -1.8127,5.8687 -3.0321,7.7392 -8.793,13.5 -5.7608,5.7608 -7.6312,6.9802 -13.5,8.7929 -6.7886,2.0968 -7.2924,2.1034 -139.459,1.9942 -72.9545,-0.06 -134.6347,-0.5011 -137.0683,-0.9786 -15.1504,-2.9724 -26.1715,-8.9449 -37.6074,-20.3808 -9.9337,-9.9338 -14.5658,-17.5249 -18.627,-30.5313 -1.931,-6.1839 -2.3418,-9.6935 -2.3418,-20 0,-10.3065 0.4108,-13.8161 2.3418,-20 4.0612,-13.0064 8.6933,-20.5974 18.627,-30.5312 9.7289,-9.7288 17.1578,-14.3275 30.0312,-18.5879 6.8025,-2.2512 8.2067,-2.3254 49.7168,-2.6563 l 42.7149,-0.3418 0.289,-78.6914 0.2891,-78.6914 2.3437,-7 c 4.3373,-12.9515 8.907,-20.3228 18.6153,-30.0312 12.7978,-12.7977 26.7451,-19.546 43.6504,-21.1172 l 6.8808,-0.6387 v -20.2519 c 0,-26.6338 1.1145,-30.7826 10.8965,-40.5645 5.7608,-5.7609 7.6332,-6.9803 13.502,-8.7929 4.3042,-1.3295 7.9524,-1.9942 11.6015,-1.9942 z m 72,143.8906 c 2.6341,0 7.8562,0.9462 11.6035,2.1036 5.8688,1.8126 7.7392,3.032 13.5,8.7929 5.7609,5.7608 6.9803,7.6332 8.793,13.502 1.1574,3.7473 2.1035,8.9674 2.1035,11.6015 0,2.6341 -0.9461,7.8563 -2.1035,11.6036 -1.8127,5.8687 -3.0321,7.7392 -8.793,13.5 -5.7608,5.7608 -7.6312,6.9802 -13.5,8.7929 -8.4448,2.6083 -15.2012,2.5931 -23.5547,-0.051 -5.4138,-1.7135 -7.5274,-3.1192 -13.1445,-8.7363 -5.7674,-5.7674 -6.9858,-7.6359 -8.7988,-13.5058 -1.1574,-3.7473 -2.1055,-8.9695 -2.1055,-11.6036 0,-2.6341 0.9481,-7.8542 2.1055,-11.6015 1.8127,-5.8688 3.0301,-7.7412 8.791,-13.502 5.7608,-5.7609 7.6332,-6.9803 13.502,-8.7929 3.7472,-1.1574 8.9674,-2.1036 11.6015,-2.1036 z"
       style=""
       id="path52" />
    <path
       d="m 784.04102,1469.0371 c -3.64911,0 -7.29731,0.6647 -11.60157,1.9942 -5.86879,1.8126 -7.74112,3.032 -13.50195,8.7929 -5.76082,5.7608 -6.97833,7.6332 -8.79102,13.502 -2.09919,6.7964 -2.10546,7.1777 -2.10546,155.6015 0,148.4239 0.006,148.8072 2.10546,155.6036 1.81269,5.8687 3.0302,7.7392 8.79102,13.5 5.76083,5.7608 7.63316,6.9802 13.50195,8.7929 3.74723,1.1574 8.96744,2.1035 11.60157,2.1035 2.63412,0 7.85628,-0.9461 11.60351,-2.1035 5.8688,-1.8127 7.73917,-3.0321 13.5,-8.7929 5.76083,-5.7608 6.98028,-7.6313 8.79297,-13.5 2.03374,-6.5845 2.10352,-8.7072 2.10352,-63.209 v -56.3946 h 36 36 v 72 72 h -20.39454 c -26.79489,0 -30.91528,1.1027 -40.70898,10.8965 -5.76082,5.7608 -6.97833,7.6332 -8.79102,13.502 -1.15739,3.7473 -2.10546,8.9674 -2.10546,11.6015 0,2.6341 0.94807,7.8563 2.10546,11.6036 1.81305,5.8699 3.03148,7.7384 8.79883,13.5058 11.41019,11.4102 5.67312,10.7677 96.74024,10.834 75.67675,0.055 77.27545,0.017 83.95895,-2.0469 5.8688,-1.8127 7.7392,-3.0321 13.5,-8.7929 5.7609,-5.7608 6.9803,-7.6313 8.793,-13.5 1.1574,-3.7473 2.1035,-8.9695 2.1035,-11.6036 0,-2.6341 -0.9461,-7.8542 -2.1035,-11.6015 -1.8127,-5.8688 -3.0321,-7.7412 -8.793,-13.502 -9.7908,-9.7909 -13.9176,-10.8965 -40.6738,-10.8965 h -20.35937 l -0.28906,-78.75 -0.28907,-78.75 -2.34375,-7 c -4.33734,-12.9515 -8.90687,-20.3228 -18.61523,-30.0312 -9.72881,-9.7288 -17.15978,-14.3275 -30.0332,-18.5879 -6.80286,-2.2513 -8.204,-2.327 -49.75,-2.6582 l -42.75,-0.3399 v -56.3359 c 0,-54.4422 -0.0698,-56.5643 -2.10352,-63.1484 -1.81269,-5.8688 -3.03214,-7.7412 -8.79297,-13.502 -5.76083,-5.7609 -7.6312,-6.9803 -13.5,-8.7929 -4.30426,-1.3295 -7.95441,-1.9942 -11.60351,-1.9942 z"
       style=""
       id="path51" />
    <path
       d="m 352.04102,1397.4395 c -43.22505,0 -77.23264,8.2106 -115.5,27.8847 -24.94113,12.8228 -43.88208,26.7321 -64.00782,47.0059 -37.26908,37.543 -61.67208,86.8 -70.15234,141.5976 -2.499939,16.1541 -2.498284,53.877 0.004,70 11.67925,75.2533 52.47099,138.1777 115.65625,178.4082 11.08639,7.0588 37.84842,19.8539 51.11328,24.4375 18.78015,6.4893 43.30047,11.8526 61.88672,13.5371 11.82728,1.0719 47.83073,-0.3095 59.55468,-2.2851 43.72469,-7.3682 83.31848,-24.7358 118.44532,-51.9551 11.01815,-8.5378 29.62381,-27.1039 39.2246,-39.1426 28.23015,-35.3984 47.0108,-78.76 53.27344,-123 9.63371,-68.0535 -9.70307,-138.2721 -53.14844,-193 -8.82243,-11.1136 -26.42911,-28.6333 -38.3496,-38.1621 -27.90912,-22.3096 -61.69136,-39.2698 -95.09375,-47.7422 -23.02824,-5.8411 -37.48048,-7.5839 -62.90625,-7.5839 z m 0,72.0585 c 29.50672,0 52.4219,5.2327 78.5,17.9239 22.96738,11.1774 40.57612,24.5015 56.56054,42.8008 23.26875,26.6386 37.80011,58.4333 43.05469,94.205 1.83514,12.4931 1.60924,39.5883 -0.43359,52 -9.51105,57.7865 -44.01877,105.7878 -94.91993,132.0352 -30.55561,15.7561 -64.71687,22.4743 -98.76171,19.4238 -38.34127,-3.4355 -74.10197,-18.7781 -102.98829,-44.1875 -32.1129,-28.2475 -51.5753,-64.3742 -59.13867,-109.7715 -1.85078,-11.1088 -1.58332,-40.3179 0.48633,-53 7.86925,-48.22 33.848,-90.2511 73.33789,-118.6582 10.94327,-7.8721 35.63169,-20.2246 48.46484,-24.248 20.4667,-6.4167 34.26542,-8.5235 55.8379,-8.5235 z"
       style=""
       id="path50" />
    <path
       d="m 926.83398,1397.1328 c -4.4833,0.2341 -6.65169,0.7727 -10.02343,1.7969 -6.28653,1.9095 -7.95903,2.9804 -13.85547,8.8769 -5.77963,5.7796 -6.99485,7.6474 -8.8086,13.5196 -1.15739,3.7473 -2.10546,8.9674 -2.10546,11.6015 0,2.6341 0.94807,7.8563 2.10546,11.6036 1.81269,5.8687 3.0302,7.7392 8.79102,13.5 9.7937,9.7937 13.91409,10.8964 40.70898,10.8964 h 20.39454 v 20.3946 c 0,26.7987 1.10357,30.914 10.90429,40.7148 5.61719,5.6171 7.73077,7.0228 13.14453,8.7363 8.35349,2.6439 15.10986,2.6591 23.55466,0.051 5.8722,-1.8137 7.738,-3.0308 13.5176,-8.8105 5.8965,-5.8964 6.9694,-7.569 8.8789,-13.8555 2.0483,-6.7435 2.1481,-8.6697 1.7715,-33.9394 -0.4456,-29.8996 -1.0363,-33.1868 -8.5879,-47.7911 -4.9764,-9.6239 -19.0597,-23.7072 -28.68358,-28.6836 -14.60426,-7.5516 -17.88949,-8.1423 -47.78907,-8.5878 -12.6349,-0.1883 -19.43466,-0.2576 -23.91797,-0.024 z"
       style=""
       id="path49" />
    <path
       d="m 712.04102,1396.9277 c -2.63413,0 -7.85434,0.9462 -11.60157,2.1036 -5.86879,1.8126 -7.74112,3.032 -13.50195,8.7929 -5.76082,5.7608 -6.97833,7.6332 -8.79102,13.502 -1.15739,3.7473 -2.10546,8.9674 -2.10546,11.6015 0,2.6341 0.94807,7.8563 2.10546,11.6036 1.81305,5.8699 3.03148,7.7384 8.79883,13.5058 5.61719,5.6171 7.73077,7.0228 13.14453,8.7363 8.35349,2.6439 15.10992,2.6591 23.55469,0.051 5.8688,-1.8127 7.73917,-3.0321 13.5,-8.7929 5.76083,-5.7608 6.98028,-7.6313 8.79297,-13.5 1.1574,-3.7473 2.10352,-8.9695 2.10352,-11.6036 0,-2.6341 -0.94612,-7.8542 -2.10352,-11.6015 -1.81269,-5.8688 -3.03214,-7.7412 -8.79297,-13.502 -5.76083,-5.7609 -7.6312,-6.9803 -13.5,-8.7929 -3.74723,-1.1574 -8.96939,-2.1036 -11.60351,-2.1036 z"
       style=""
       id="path47" />
    <path
       style=""
       d="m 935.73633,1396.9867 c -3.83971,-0.012 -6.66069,0.029 -8.90235,0.1465 -4.48329,0.2341 -6.6517,0.7727 -10.02343,1.7969 -6.28653,1.9095 -7.95904,2.9804 -13.85547,8.8769 -5.77963,5.7796 -6.99485,7.6474 -8.8086,13.5196 -1.15738,3.7473 -2.10546,8.9674 -2.10546,11.6015 0,2.6341 0.94808,7.8563 2.10546,11.6036 1.81269,5.8686 3.03021,7.7392 8.79102,13.5 9.79369,9.7936 13.91412,10.8964 40.70898,10.8964 h 20.39454 v 20.3946 c 0,26.7986 1.10358,30.914 10.90429,40.7148 5.61719,5.6171 7.73078,7.0228 13.14453,8.7363 8.35349,2.6441 15.10986,2.6591 23.55466,0.051 5.8722,-1.8137 7.738,-3.0308 13.5176,-8.8105 5.8965,-5.8964 6.9694,-7.569 8.8789,-13.8555 2.0483,-6.7435 2.1481,-8.6698 1.7715,-33.9394 -0.4456,-29.8996 -1.0363,-33.1868 -8.5879,-47.7911 -4.9764,-9.6239 -19.0597,-23.7072 -28.68358,-28.6836 -14.60425,-7.5516 -17.88952,-8.1424 -47.78907,-8.5878 -6.31744,-0.094 -11.17591,-0.1583 -15.01562,-0.17 z"
       id="path145" />
    <path
       style=""
       d="m 1432.041,1396.9277 c 2.6341,0 7.8562,0.9462 11.6035,2.1036 5.8688,1.8125 7.7392,3.032 13.5,8.7929 5.7609,5.7608 6.9803,7.6332 8.793,13.502 1.1574,3.7473 2.1035,8.9674 2.1035,11.6015 0,2.6341 -0.9461,7.8563 -2.1035,11.6036 -1.8127,5.8686 -3.0321,7.7392 -8.793,13.5 -5.7608,5.7607 -7.6312,6.9802 -13.5,8.7929 -8.4448,2.6083 -15.2012,2.5933 -23.5547,-0.051 -5.4138,-1.7135 -7.5274,-3.1192 -13.1445,-8.7363 -5.7674,-5.7674 -6.9858,-7.636 -8.7988,-13.5058 -1.1574,-3.7473 -2.1055,-8.9695 -2.1055,-11.6036 0,-2.6341 0.9481,-7.8542 2.1055,-11.6015 1.8127,-5.8688 3.0301,-7.7412 8.791,-13.502 5.7608,-5.7609 7.6332,-6.9804 13.502,-8.7929 3.7471,-1.1574 8.9674,-2.1036 11.6015,-2.1036 z"
       id="path144" />
    <path
       style=""
       d="m 1324.041,1324.9277 v 108 108 h 108 108 v -108 -108 h -108 z"
       id="path143" />
    <path
       d="m 1864.041,1252.9277 c -2.6341,0 -7.8543,0.9462 -11.6015,2.1036 -5.8688,1.8126 -7.7412,3.032 -13.502,8.7929 -5.7609,5.7608 -6.9783,7.6332 -8.791,13.502 -1.9934,6.4539 -2.1055,8.963 -2.1055,47.6015 0,38.6386 0.1121,41.1497 2.1055,47.6036 1.813,5.8699 3.0314,7.7384 8.7988,13.5058 5.6171,5.6171 7.7307,7.0228 13.1445,8.7363 8.3535,2.6439 15.1099,2.6591 23.5547,0.051 5.8688,-1.8127 7.7392,-3.0321 13.5,-8.7929 5.7609,-5.7608 6.9803,-7.6313 8.793,-13.5 1.9934,-6.4539 2.1035,-8.965 2.1035,-47.6036 0,-38.6385 -0.1101,-41.1476 -2.1035,-47.6015 -1.8127,-5.8688 -3.0321,-7.7412 -8.793,-13.502 -5.7608,-5.7609 -7.6312,-6.9803 -13.5,-8.7929 -3.7473,-1.1574 -8.9694,-2.1036 -11.6035,-2.1036 z"
       style=""
       id="path45" />
    <path
       d="m 1000.041,1252.9277 c -2.63413,0 -7.85432,0.9462 -11.60155,2.1036 -5.86879,1.8126 -7.74112,3.032 -13.50195,8.7929 -5.76082,5.7608 -6.97833,7.6332 -8.79102,13.502 -1.15739,3.7473 -2.10546,8.9674 -2.10546,11.6015 0,2.6341 0.94807,7.8563 2.10546,11.6036 1.81305,5.8699 3.03148,7.7384 8.79883,13.5058 5.61719,5.6171 7.73077,7.0228 13.14453,8.7363 8.35349,2.6439 15.10986,2.6591 23.55466,0.051 5.8688,-1.8127 7.7392,-3.0321 13.5,-8.7929 5.7609,-5.7608 6.9803,-7.6313 8.793,-13.5 1.1574,-3.7473 2.1035,-8.9695 2.1035,-11.6036 0,-2.6341 -0.9461,-7.8542 -2.1035,-11.6015 -1.8127,-5.8688 -3.0321,-7.7412 -8.793,-13.502 -5.7608,-5.7609 -7.6312,-6.9803 -13.5,-8.7929 -3.7473,-1.1574 -8.9694,-2.1036 -11.6035,-2.1036 z"
       style=""
       id="path44" />
    <path
       d="m 568.04102,1252.9277 c -2.63413,0 -7.85434,0.9462 -11.60157,2.1036 -5.86879,1.8126 -7.74112,3.032 -13.50195,8.7929 -5.76082,5.7608 -6.97833,7.6332 -8.79102,13.502 -1.15739,3.7473 -2.10546,8.9674 -2.10546,11.6015 0,2.6341 0.94807,7.8563 2.10546,11.6036 1.81305,5.8699 3.03148,7.7384 8.79883,13.5058 5.61719,5.6171 7.73077,7.0228 13.14453,8.7363 8.35349,2.6439 15.10992,2.6591 23.55469,0.051 5.8688,-1.8127 7.73917,-3.0321 13.5,-8.7929 5.76083,-5.7608 6.98028,-7.6313 8.79297,-13.5 1.1574,-3.7473 2.10352,-8.9695 2.10352,-11.6036 0,-2.6341 -0.94612,-7.8542 -2.10352,-11.6015 -1.81269,-5.8688 -3.03214,-7.7412 -8.79297,-13.502 -5.76083,-5.7609 -7.6312,-6.9803 -13.5,-8.7929 -3.74723,-1.1574 -8.96939,-2.1036 -11.60351,-2.1036 z"
       style=""
       id="path43" />
    <path
       d="m 424.04102,1252.9277 c -2.63413,0 -7.85434,0.9462 -11.60157,2.1036 -5.86879,1.8126 -7.74112,3.032 -13.50195,8.7929 -5.76082,5.7608 -6.97833,7.6332 -8.79102,13.502 -1.15739,3.7473 -2.10546,8.9674 -2.10546,11.6015 0,2.6341 0.94807,7.8563 2.10546,11.6036 1.81305,5.8699 3.03148,7.7384 8.79883,13.5058 5.61719,5.6171 7.73077,7.0228 13.14453,8.7363 8.35349,2.6439 15.10992,2.6591 23.55469,0.051 5.8688,-1.8127 7.73917,-3.0321 13.5,-8.7929 5.76083,-5.7608 6.98028,-7.6313 8.79297,-13.5 1.1574,-3.7473 2.10352,-8.9695 2.10352,-11.6036 0,-2.6341 -0.94612,-7.8542 -2.10352,-11.6015 -1.81269,-5.8688 -3.03214,-7.7412 -8.79297,-13.502 -5.76083,-5.7609 -7.6312,-6.9803 -13.5,-8.7929 -3.74723,-1.1574 -8.96939,-2.1036 -11.60351,-2.1036 z"
       style=""
       id="path42" />
    <path
       d="m 280.04102,1252.9277 c -2.63413,0 -7.85434,0.9462 -11.60157,2.1036 -5.86879,1.8126 -7.74112,3.032 -13.50195,8.7929 -5.76082,5.7608 -6.97833,7.6332 -8.79102,13.502 -1.15739,3.7473 -2.10546,8.9674 -2.10546,11.6015 0,2.6341 0.94807,7.8563 2.10546,11.6036 1.81305,5.8699 3.03148,7.7384 8.79883,13.5058 5.61719,5.6171 7.73077,7.0228 13.14453,8.7363 8.35349,2.6439 15.10992,2.6591 23.55469,0.051 5.8688,-1.8127 7.73917,-3.0321 13.5,-8.7929 5.76083,-5.7608 6.98028,-7.6313 8.79297,-13.5 1.1574,-3.7473 2.10352,-8.9695 2.10352,-11.6036 0,-2.6341 -0.94612,-7.8542 -2.10352,-11.6015 -1.81269,-5.8688 -3.03214,-7.7412 -8.79297,-13.502 -5.76083,-5.7609 -7.6312,-6.9803 -13.5,-8.7929 -3.74723,-1.1574 -8.96939,-2.1036 -11.60351,-2.1036 z"
       style=""
       id="path41" />
    <path
       d="m 1108.041,1180.9277 c -38.6385,0 -41.1477,0.1102 -47.6015,2.1036 -5.8688,1.8126 -7.7412,3.032 -13.502,8.7929 -5.7609,5.7608 -6.9783,7.6332 -8.791,13.502 -1.1574,3.7473 -2.1055,8.9674 -2.1055,11.6015 0,2.6341 0.9481,7.8563 2.1055,11.6036 1.813,5.8699 3.0314,7.7384 8.7988,13.5058 10.7719,10.7719 10.7367,10.7658 60.7402,10.834 39.0873,0.053 41.4865,-0.048 47.959,-2.0469 5.8688,-1.8127 7.7392,-3.0321 13.5,-8.7929 5.7609,-5.7608 6.9803,-7.6313 8.793,-13.5 1.1574,-3.7473 2.1035,-8.9695 2.1035,-11.6036 0,-2.6341 -0.9461,-7.8542 -2.1035,-11.6015 -1.8127,-5.8688 -3.0321,-7.7412 -8.793,-13.502 -5.7608,-5.7609 -7.6312,-6.9803 -13.5,-8.7929 -6.4539,-1.9934 -8.9649,-2.1036 -47.6035,-2.1036 z"
       style=""
       id="path40" />
    <path
       d="m 352.04102,1180.9277 c -2.63413,0 -7.85434,0.9462 -11.60157,2.1036 -5.86879,1.8126 -7.74112,3.032 -13.50195,8.7929 -5.76082,5.7608 -6.97833,7.6332 -8.79102,13.502 -1.15739,3.7473 -2.10546,8.9674 -2.10546,11.6015 0,2.6341 0.94807,7.8563 2.10546,11.6036 1.81305,5.8699 3.03148,7.7384 8.79883,13.5058 5.61719,5.6171 7.73077,7.0228 13.14453,8.7363 8.35349,2.6439 15.10992,2.6591 23.55469,0.051 5.8688,-1.8127 7.73917,-3.0321 13.5,-8.7929 5.76083,-5.7608 6.98028,-7.6313 8.79297,-13.5 1.1574,-3.7473 2.10352,-8.9695 2.10352,-11.6036 0,-2.6341 -0.94612,-7.8542 -2.10352,-11.6015 -1.81269,-5.8688 -3.03214,-7.7412 -8.79297,-13.502 -5.76083,-5.7609 -7.6312,-6.9803 -13.5,-8.7929 -3.74723,-1.1574 -8.96939,-2.1036 -11.60351,-2.1036 z"
       style=""
       id="path39" />
    <path
       d="m 1216.041,1108.9277 c -2.6341,0 -7.8543,0.9462 -11.6015,2.1036 -5.8688,1.8126 -7.7412,3.032 -13.502,8.7929 -5.7609,5.7608 -6.9783,7.6332 -8.791,13.502 -1.1574,3.7473 -2.1055,8.9674 -2.1055,11.6015 0,2.6341 0.9481,7.8563 2.1055,11.6036 1.813,5.8699 3.0314,7.7384 8.7988,13.5058 5.6171,5.6171 7.7307,7.0228 13.1445,8.7363 8.3535,2.6439 15.1099,2.6591 23.5547,0.051 5.8688,-1.8127 7.7392,-3.0321 13.5,-8.7929 5.7609,-5.7608 6.9803,-7.6313 8.793,-13.5 1.1574,-3.7473 2.1035,-8.9695 2.1035,-11.6036 0,-2.6341 -0.9461,-7.8542 -2.1035,-11.6015 -1.8127,-5.8688 -3.0321,-7.7412 -8.793,-13.502 -5.7608,-5.7609 -7.6312,-6.9803 -13.5,-8.7929 -3.7473,-1.1574 -8.9694,-2.1036 -11.6035,-2.1036 z"
       style=""
       id="path38" />
    <path
       d="m 136.04102,1108.9277 c -2.63413,0 -7.85434,0.9462 -11.60157,2.1036 -5.86879,1.8126 -7.74112,3.032 -13.50195,8.7929 -5.76082,5.7608 -6.97833,7.6332 -8.79102,13.502 -1.15739,3.7473 -2.10546,8.9674 -2.10546,11.6015 0,2.6341 0.94807,7.8563 2.10546,11.6036 1.81305,5.8699 3.03148,7.7384 8.79883,13.5058 5.61719,5.6171 7.73077,7.0228 13.14453,8.7363 8.35349,2.6439 15.10992,2.6591 23.55469,0.051 5.8688,-1.8127 7.73917,-3.0321 13.5,-8.7929 5.76083,-5.7608 6.98028,-7.6313 8.79297,-13.5 1.1574,-3.7473 2.10352,-8.9695 2.10352,-11.6036 0,-2.6341 -0.94612,-7.8542 -2.10352,-11.6015 -1.81269,-5.8688 -3.03214,-7.7412 -8.79297,-13.502 -5.76083,-5.7609 -7.6312,-6.9803 -13.5,-8.7929 -3.74723,-1.1574 -8.96939,-2.1036 -11.60351,-2.1036 z"
       style=""
       id="path37" />
    <path
       d="m 1144.041,1036.9277 c -2.6341,0 -7.8543,0.9462 -11.6015,2.1036 -5.8688,1.8126 -7.7412,3.032 -13.502,8.7929 -5.7609,5.7608 -6.9783,7.6332 -8.791,13.502 -1.1574,3.7473 -2.1055,8.9674 -2.1055,11.6015 0,2.6341 0.9481,7.8563 2.1055,11.6036 1.813,5.8699 3.0314,7.7384 8.7988,13.5058 5.6171,5.6171 7.7307,7.0228 13.1445,8.7363 8.3535,2.6439 15.1099,2.6591 23.5547,0.051 5.8688,-1.8127 7.7392,-3.0321 13.5,-8.7929 5.7609,-5.7608 6.9803,-7.6313 8.793,-13.5 1.1574,-3.7473 2.1035,-8.9695 2.1035,-11.6036 0,-2.6341 -0.9461,-7.8542 -2.1035,-11.6015 -1.8127,-5.8688 -3.0321,-7.7412 -8.793,-13.502 -5.7608,-5.7609 -7.6312,-6.9803 -13.5,-8.7929 -3.7473,-1.1574 -8.9694,-2.1036 -11.6035,-2.1036 z"
       style=""
       id="path36" />
    <path
       d="m 1144.041,1036.9277 c 2.6341,0 7.8562,0.9462 11.6035,2.1036 5.8688,1.8126 7.7392,3.032 13.5,8.7929 5.7609,5.7608 6.9803,7.6332 8.793,13.502 1.1574,3.7473 2.1035,8.9674 2.1035,11.6015 0,2.6341 -0.9461,7.8563 -2.1035,11.6036 -1.8127,5.8687 -3.0321,7.7392 -8.793,13.5 -5.7608,5.7608 -7.6312,6.9802 -13.5,8.7929 -8.4448,2.6083 -15.2012,2.5931 -23.5547,-0.051 -5.4138,-1.7135 -7.5274,-3.1192 -13.1445,-8.7363 -5.7674,-5.7674 -6.9858,-7.6359 -8.7988,-13.5058 -1.1574,-3.7473 -2.1055,-8.9695 -2.1055,-11.6036 0,-2.6341 0.9481,-7.8542 2.1055,-11.6015 1.8127,-5.8688 3.0301,-7.7412 8.791,-13.502 5.7608,-5.7609 7.6332,-6.9803 13.502,-8.7929 3.7472,-1.1574 8.9674,-2.1036 11.6015,-2.1036 z"
       style=""
       id="path35" />
    <path
       d="m 856.04102,965.03711 c -3.64911,0 -7.29731,0.66469 -11.60157,1.99414 -5.86879,1.8127 -7.74112,3.03217 -13.50195,8.79297 -5.76082,5.76089 -6.97833,7.63316 -8.79102,13.50195 -2.03373,6.5845 -2.10546,8.70522 -2.10546,63.20703 v 56.3945 H 784.09961 748.1582 l -0.33984,-42.75 c -0.33114,-41.5459 -0.40687,-42.9471 -2.6582,-49.75 -4.26035,-12.8734 -8.85713,-20.30243 -18.58594,-30.03122 -9.71479,-9.71479 -17.10642,-14.29442 -30.0332,-18.60742 -6.99505,-2.3339 -7.04386,-2.33512 -69.92969,-2.64062 -61.79013,-0.3002 -63.0569,-0.26823 -69.93946,1.82226 -6.12619,1.8608 -7.85616,2.97535 -13.71679,8.83594 -5.77963,5.77969 -6.99485,7.64734 -8.8086,13.51953 -2.6589,8.60849 -2.6589,14.59663 0,23.20503 1.81269,5.8688 3.0302,7.7393 8.79102,13.5001 9.7937,9.7937 13.91409,10.8964 40.70898,10.8964 h 20.39454 v 36 36 h -36 -36 v -20.3945 c 0,-26.7949 -1.1028,-30.9153 -10.89649,-40.709 -5.76083,-5.7609 -7.6312,-6.9803 -13.5,-8.7929 -8.60852,-2.6589 -14.59656,-2.6589 -23.20508,0 -5.87222,1.8136 -7.73989,3.0308 -13.51953,8.8105 -5.89644,5.8964 -6.96748,7.569 -8.87695,13.8555 -2.04828,6.7435 -2.14808,8.6696 -1.77149,33.9394 0.36611,24.5674 0.58869,27.3719 2.6836,33.791 4.17244,12.785 8.80209,20.2786 18.55469,30.0313 9.72881,9.7288 17.15782,14.3275 30.03125,18.5879 6.80127,2.2508 8.21118,2.3257 49.61328,2.6562 l 42.61132,0.3399 0.63282,6.8242 c 1.56557,16.8449 8.32947,30.8099 21.11133,43.5918 9.72881,9.7288 17.15782,14.3275 30.03125,18.5879 6.80127,2.2508 8.21118,2.3257 49.61328,2.6562 l 42.61132,0.3399 0.63282,6.8242 c 1.56557,16.8449 8.32947,30.8099 21.11133,43.5918 12.79773,12.7977 26.74511,19.546 43.65039,21.1172 l 6.88086,0.6386 v 20.252 c 0,26.6377 1.11534,30.7813 10.90429,40.5703 5.61719,5.6171 7.73077,7.0228 13.14453,8.7363 8.35349,2.6439 15.10992,2.6591 23.55469,0.051 5.8688,-1.8127 7.73917,-3.0321 13.5,-8.7929 5.76083,-5.7608 6.98028,-7.6313 8.79297,-13.5 2.03347,-6.5836 2.10352,-8.7087 2.10352,-63.0645 v -56.252 l 6.88281,-0.6386 c 16.90527,-1.5712 30.85265,-8.3195 43.65039,-21.1172 12.79774,-12.7978 19.54404,-26.7451 21.11523,-43.6504 l 0.63867,-6.8809 h 20.25196 c 26.63382,0 30.78252,-1.1145 40.56442,-10.8964 5.7609,-5.7608 6.9803,-7.6313 8.793,-13.5 2.6589,-8.6085 2.6589,-14.5966 0,-23.2051 -1.8127,-5.8688 -3.0321,-7.7412 -8.793,-13.502 -5.7608,-5.7609 -7.6312,-6.9803 -13.5,-8.7929 -6.5845,-2.0338 -8.707,-2.1036 -63.20895,-2.1036 h -56.39453 v -56.3945 c 0,-54.50181 -0.0697,-56.62253 -2.10352,-63.20703 -1.81269,-5.86879 -3.03214,-7.74106 -8.79297,-13.50195 -5.76083,-5.7608 -7.6312,-6.98027 -13.5,-8.79297 -4.30426,-1.32945 -7.95441,-1.99414 -11.60351,-1.99414 z"
       id="path34"
       style="" />
    <path
       d="m 1072.041,964.92773 c -2.6341,0 -7.8543,0.94612 -11.6015,2.10352 -5.8688,1.8127 -7.7412,3.03217 -13.502,8.79297 -5.7609,5.76089 -6.9783,7.63316 -8.791,13.50195 -1.1574,3.7472 -2.1055,8.9674 -2.1055,11.60153 0,2.6341 0.9481,7.8563 2.1055,11.6035 1.813,5.87 3.0314,7.7385 8.7988,13.5059 5.6171,5.6171 7.7307,7.0228 13.1445,8.7363 8.3535,2.6439 15.1099,2.6591 23.5547,0.051 5.8688,-1.8127 7.7392,-3.0321 13.5,-8.7929 5.7609,-5.7608 6.9803,-7.6313 8.793,-13.5001 1.1574,-3.7472 2.1035,-8.9694 2.1035,-11.6035 0,-2.63413 -0.9461,-7.85433 -2.1035,-11.60153 -1.8127,-5.86879 -3.0321,-7.74106 -8.793,-13.50195 -5.7608,-5.7608 -7.6312,-6.98027 -13.5,-8.79297 -3.7473,-1.1574 -8.9694,-2.10352 -11.6035,-2.10352 z"
       style=""
       id="path32" />
    <path
       d="m 1072.041,964.92773 c 2.6341,0 7.8562,0.94612 11.6035,2.10352 5.8688,1.8127 7.7392,3.03217 13.5,8.79297 5.7609,5.76089 6.9803,7.63316 8.793,13.50195 1.1574,3.7472 2.1035,8.9674 2.1035,11.60153 0,2.6341 -0.9461,7.8563 -2.1035,11.6035 -1.8127,5.8688 -3.0321,7.7393 -8.793,13.5001 -5.7608,5.7608 -7.6312,6.9802 -13.5,8.7929 -8.4448,2.6083 -15.2012,2.5931 -23.5547,-0.051 -5.4138,-1.7135 -7.5274,-3.1192 -13.1445,-8.7363 -5.7674,-5.7674 -6.9858,-7.6359 -8.7988,-13.5059 -1.1574,-3.7472 -2.1055,-8.9694 -2.1055,-11.6035 0,-2.63413 0.9481,-7.85433 2.1055,-11.60153 1.8127,-5.86879 3.0301,-7.74106 8.791,-13.50195 5.7608,-5.7608 7.6332,-6.98027 13.502,-8.79297 3.7472,-1.1574 8.9674,-2.10352 11.6015,-2.10352 z"
       style=""
       id="path31" />
    <path
       d="m 1778.6113,893.14844 c -61.79,-0.3002 -63.0568,-0.26825 -69.9394,1.82226 -6.1262,1.86077 -7.8543,2.97531 -13.7149,8.83594 -5.7797,5.77963 -6.9968,7.64731 -8.8105,13.51953 -2.6589,8.60852 -2.6589,14.59656 0,23.20508 1.8127,5.86879 3.0301,7.73917 8.791,13.5 9.7937,9.79366 13.9141,10.89648 40.709,10.89648 h 20.3945 v 35.99997 36 h -36 -36 v -20.3945 c 0,-26.79484 -1.1027,-30.91529 -10.8965,-40.70898 -5.7608,-5.7608 -7.6312,-6.98027 -13.5,-8.79297 -8.6085,-2.6589 -14.5966,-2.6589 -23.205,0 -5.8688,1.8127 -7.7412,3.03217 -13.502,8.79297 -9.7938,9.79369 -10.8965,13.91414 -10.8965,40.70898 v 20.3945 h -72 -72 v -20.3945 c 0,-26.79484 -1.1027,-30.91529 -10.8965,-40.70898 -5.7608,-5.7608 -7.6312,-6.98027 -13.5,-8.79297 -8.6085,-2.6589 -14.5966,-2.6589 -23.205,0 -5.8688,1.8127 -7.7412,3.03217 -13.502,8.79297 -9.7938,9.79369 -10.8965,13.91414 -10.8965,40.70898 v 20.3945 h -20.3945 c -26.7949,0 -30.9153,1.1027 -40.709,10.8965 -5.7609,5.7608 -6.9783,7.6332 -8.791,13.502 -2.6589,8.6085 -2.6589,14.5966 0,23.2051 1.8127,5.8687 3.0301,7.7392 8.791,13.5 5.7608,5.7608 7.6332,6.9802 13.502,8.7929 6.5844,2.0338 8.7051,2.1035 63.207,2.1035 h 56.3945 v 72 72 h -36 -36 v -20.3945 c 0,-26.7949 -1.1027,-30.9153 -10.8965,-40.709 -5.7608,-5.7609 -7.6312,-6.9803 -13.5,-8.7929 -3.7473,-1.1574 -8.9694,-2.1036 -11.6035,-2.1036 -2.6341,0 -7.8543,0.9462 -11.6015,2.1036 -5.8688,1.8126 -7.7412,3.032 -13.502,8.7929 -9.7938,9.7937 -10.8965,13.9141 -10.8965,40.709 v 20.3945 h -56.3945 c -54.5019,0 -56.6226,0.07 -63.207,2.1036 -5.8688,1.8126 -7.7412,3.032 -13.502,8.7929 -5.7609,5.7608 -6.9783,7.6332 -8.791,13.502 -1.1574,3.7473 -2.1055,8.9674 -2.1055,11.6015 0,2.6341 0.9481,7.8563 2.1055,11.6036 1.8127,5.8687 3.0301,7.7392 8.791,13.5 9.7937,9.7937 13.9141,10.8964 40.709,10.8964 h 20.3945 v 36 36 h -35.8555 -35.8574 l -0.6386,-6.8808 c -1.5712,-16.9053 -8.3176,-30.8526 -21.1153,-43.6504 -9.7527,-9.7526 -17.2482,-14.3842 -30.0332,-18.5567 -6.4191,-2.0949 -9.2217,-2.3175 -33.789,-2.6835 -25.2698,-0.3766 -27.198,-0.2749 -33.9415,1.7734 -6.2864,1.9095 -7.9571,2.9804 -13.8535,8.8769 -5.7797,5.7796 -6.9968,7.6474 -8.8105,13.5196 -2.6589,8.6085 -2.6589,14.5966 0,23.2051 1.8127,5.8687 3.0301,7.7392 8.791,13.5 9.7819,9.7819 13.9326,10.8964 40.5664,10.8964 h 20.25 l 0.6406,6.8809 c 1.5712,16.9053 8.3176,30.8526 21.1153,43.6504 12.7618,12.7617 26.7509,19.545 43.5195,21.1035 l 6.75,0.6289 0.627,6.75 c 1.5584,16.7686 8.3418,30.7558 21.1035,43.5176 12.7618,12.7617 26.7509,19.545 43.5195,21.1035 l 6.75,0.6289 0.627,6.75 c 1.5584,16.7686 8.3418,30.7558 21.1035,43.5176 11.4295,11.4294 22.3718,17.3626 37.6074,20.3926 2.4336,0.484 57.9739,0.8123 123.4238,0.7285 l 119,-0.1524 7,-2.3496 c 12.9642,-4.3498 20.3281,-8.914 30.0332,-18.6191 9.7288,-9.7289 14.3256,-17.1579 18.586,-30.0313 2.2513,-6.8029 2.327,-8.204 2.6582,-49.75 l 0.3398,-42.75 h 20.3359 c 26.7291,0 30.8615,-1.1075 40.6504,-10.8964 5.7609,-5.7608 6.9803,-7.6313 8.793,-13.5 2.6589,-8.6085 2.6589,-14.5966 0,-23.2051 -1.8127,-5.8688 -3.0321,-7.7412 -8.793,-13.502 -9.7937,-9.7938 -13.9141,-10.8965 -40.709,-10.8965 h -20.3945 v -36 -36 h 36 36 v 20.3946 c 0,26.7948 1.1027,30.9153 10.8965,40.709 5.7608,5.7608 7.6332,6.9802 13.502,8.7929 8.6084,2.6589 14.5965,2.6589 23.205,0 5.8722,-1.8137 7.738,-3.0308 13.5176,-8.8105 5.8965,-5.8964 6.9694,-7.569 8.8789,-13.8555 2.0483,-6.7435 2.1481,-8.6697 1.7715,-33.9394 -0.3661,-24.5674 -0.5887,-27.372 -2.6836,-33.7911 -4.1725,-12.785 -8.8021,-20.2785 -18.5547,-30.0312 -9.7289,-9.7288 -17.1598,-14.3275 -30.0332,-18.5879 -6.8013,-2.2508 -8.2093,-2.3258 -49.6113,-2.6563 l -42.6113,-0.3398 -0.6348,-6.8242 c -1.5655,-16.8449 -8.3276,-30.8099 -21.1094,-43.5918 -12.7978,-12.7977 -26.7451,-19.546 -43.6504,-21.1172 l -6.8828,-0.6387 v -35.8554 -35.8575 h 36 36 v 20.3946 c 0,26.7948 1.1027,30.9153 10.8965,40.709 5.7608,5.7608 7.6332,6.9802 13.502,8.7929 3.7472,1.1574 8.9674,2.1035 11.6015,2.1035 2.6341,0 7.8562,-0.9461 11.6035,-2.1035 5.8688,-1.8127 7.7392,-3.0321 13.5,-8.7929 9.7909,-9.7908 10.8965,-13.9177 10.8965,-40.6739 v -20.3613 l 78.75,-0.2891 78.75,-0.289 7,-2.3438 c 12.9515,-4.3373 20.3248,-8.9069 30.0332,-18.6152 9.9337,-9.9338 14.5638,-17.5249 18.625,-30.5313 2.3206,-7.4317 2.3418,-7.9417 2.3418,-56 0,-48.05819 -0.021,-48.56828 -2.3418,-55.99997 -4.0612,-13.00635 -8.6913,-20.59748 -18.625,-30.53125 -9.7148,-9.71478 -17.1064,-14.29441 -30.0332,-18.60742 -6.9951,-2.33389 -7.0438,-2.33509 -69.9297,-2.64062 z"
       id="path30"
       style="display:none" />
    <path
       d="m 784.04102,820.92773 c -2.63413,0 -7.85434,0.94612 -11.60157,2.10352 -5.86879,1.81269 -7.74112,3.03214 -13.50195,8.79297 -5.76082,5.76083 -6.97833,7.63316 -8.79102,13.50195 -1.15739,3.74723 -2.10546,8.96744 -2.10546,11.60156 0,2.63413 0.94807,7.85629 2.10546,11.60352 1.81305,5.86998 3.03148,7.73852 8.79883,13.50586 5.61719,5.61719 7.73077,7.02282 13.14453,8.73633 8.35349,2.64395 15.10992,2.65907 23.55469,0.0508 5.8688,-1.81269 7.73917,-3.03215 13.5,-8.79297 5.76083,-5.76083 6.98028,-7.63121 8.79297,-13.5 1.1574,-3.74723 2.10352,-8.96939 2.10352,-11.60352 0,-2.63412 -0.94612,-7.85433 -2.10352,-11.60156 -1.81269,-5.86879 -3.03214,-7.74112 -8.79297,-13.50195 -5.76083,-5.76083 -7.6312,-6.98028 -13.5,-8.79297 -3.74723,-1.1574 -8.96939,-2.10352 -11.60351,-2.10352 z"
       style=""
       id="path29" />
    <path
       d="m 568.04102,820.92773 c -2.63413,0 -7.85434,0.94612 -11.60157,2.10352 -5.86879,1.81269 -7.74112,3.03214 -13.50195,8.79297 -5.76082,5.76083 -6.97833,7.63316 -8.79102,13.50195 -1.15739,3.74723 -2.10546,8.96744 -2.10546,11.60156 0,2.63413 0.94807,7.85629 2.10546,11.60352 1.81305,5.86998 3.03148,7.73852 8.79883,13.50586 5.61719,5.61719 7.73077,7.02282 13.14453,8.73633 8.35349,2.64395 15.10992,2.65907 23.55469,0.0508 5.8688,-1.81269 7.73917,-3.03215 13.5,-8.79297 5.76083,-5.76083 6.98028,-7.63121 8.79297,-13.5 1.1574,-3.74723 2.10352,-8.96939 2.10352,-11.60352 0,-2.63412 -0.94612,-7.85433 -2.10352,-11.60156 -1.81269,-5.86879 -3.03214,-7.74112 -8.79297,-13.50195 -5.76083,-5.76083 -7.6312,-6.98028 -13.5,-8.79297 -3.74723,-1.1574 -8.96939,-2.10352 -11.60351,-2.10352 z"
       style=""
       id="path28" />
    <path
       d="m 1000.041,748.92773 c -2.63413,0 -7.85432,0.94612 -11.60155,2.10352 -5.87222,1.81375 -7.73989,3.03092 -13.51953,8.81055 -5.89644,5.89644 -6.96748,7.56894 -8.87695,13.85547 -2.04828,6.74349 -2.14808,8.66963 -1.77149,33.93945 0.36611,24.5674 0.58869,27.3719 2.6836,33.79101 4.17244,12.78498 8.80209,20.27864 18.55469,30.03125 11.43588,11.43589 22.45703,17.40843 37.60743,20.38086 2.4336,0.47747 47.9138,0.91826 101.0683,0.97852 95.5742,0.10836 96.7213,0.087 103.459,-1.99414 5.8688,-1.81269 7.7392,-3.03215 13.5,-8.79297 5.7609,-5.76083 6.9803,-7.63121 8.793,-13.5 1.1574,-3.74723 2.1035,-8.96939 2.1035,-11.60352 0,-2.63412 -0.9461,-7.85433 -2.1035,-11.60156 -1.8127,-5.86879 -3.0321,-7.74112 -8.793,-13.50195 -9.7937,-9.79369 -13.9141,-10.89649 -40.709,-10.89649 H 1180.041 V 800.5332 c 0,-26.79489 -1.1027,-30.91528 -10.8965,-40.70898 -5.7608,-5.76083 -7.6312,-6.98028 -13.5,-8.79297 -3.7473,-1.1574 -8.9694,-2.10352 -11.6035,-2.10352 -2.6341,0 -7.8543,0.94612 -11.6015,2.10352 -5.8688,1.81269 -7.7412,3.03214 -13.502,8.79297 -9.7938,9.7937 -10.8965,13.91409 -10.8965,40.70898 v 20.39453 h -36 -36 V 800.5332 c 0,-26.79489 -1.1027,-30.91528 -10.8965,-40.70898 -5.7608,-5.76083 -7.6312,-6.98028 -13.5,-8.79297 -3.7473,-1.1574 -8.9694,-2.10352 -11.6035,-2.10352 z"
       style=""
       id="path27" />
    <path
       d="m 856.04102,748.92773 c -2.63413,0 -7.85434,0.94612 -11.60157,2.10352 -5.86879,1.81269 -7.74112,3.03214 -13.50195,8.79297 -5.76082,5.76083 -6.97833,7.63316 -8.79102,13.50195 -1.15739,3.74723 -2.10546,8.96744 -2.10546,11.60156 0,2.63413 0.94807,7.85629 2.10546,11.60352 1.81305,5.86998 3.03148,7.73852 8.79883,13.50586 5.61719,5.61719 7.73077,7.02282 13.14453,8.73633 8.35349,2.64395 15.10992,2.65907 23.55469,0.0508 5.8688,-1.81269 7.73917,-3.03215 13.5,-8.79297 5.76083,-5.76083 6.98028,-7.63121 8.79297,-13.5 1.1574,-3.74723 2.10352,-8.96939 2.10352,-11.60352 0,-2.63412 -0.94612,-7.85433 -2.10352,-11.60156 -1.81269,-5.86879 -3.03214,-7.74112 -8.79297,-13.50195 -5.76083,-5.76083 -7.6312,-6.98028 -13.5,-8.79297 -3.74723,-1.1574 -8.96939,-2.10352 -11.60351,-2.10352 z"
       style=""
       id="path26" />
    <path
       d="m 496.04102,748.92773 c -2.63413,0 -7.85434,0.94612 -11.60157,2.10352 -5.86879,1.81269 -7.74112,3.03214 -13.50195,8.79297 -5.76082,5.76083 -6.97833,7.63316 -8.79102,13.50195 -1.15739,3.74723 -2.10546,8.96744 -2.10546,11.60156 0,2.63413 0.94807,7.85629 2.10546,11.60352 1.81305,5.86998 3.03148,7.73852 8.79883,13.50586 5.61719,5.61719 7.73077,7.02282 13.14453,8.73633 8.35349,2.64395 15.10992,2.65907 23.55469,0.0508 5.8688,-1.81269 7.73917,-3.03215 13.5,-8.79297 5.76083,-5.76083 6.98028,-7.63121 8.79297,-13.5 1.1574,-3.74723 2.10352,-8.96939 2.10352,-11.60352 0,-2.63412 -0.94612,-7.85433 -2.10352,-11.60156 -1.81269,-5.86879 -3.03214,-7.74112 -8.79297,-13.50195 -5.76083,-5.76083 -7.6312,-6.98028 -13.5,-8.79297 -3.74723,-1.1574 -8.96939,-2.10352 -11.60351,-2.10352 z"
       style=""
       id="path25" />
    <path
       d="m 280.04102,748.92773 c -2.63413,0 -7.85434,0.94612 -11.60157,2.10352 -5.86879,1.81269 -7.74112,3.03214 -13.50195,8.79297 -5.76082,5.76083 -6.97833,7.63316 -8.79102,13.50195 -1.15739,3.74723 -2.10546,8.96744 -2.10546,11.60156 0,2.63413 0.94807,7.85629 2.10546,11.60352 1.81305,5.86998 3.03148,7.73852 8.79883,13.50586 5.61719,5.61719 7.73077,7.02282 13.14453,8.73633 8.35349,2.64395 15.10992,2.65907 23.55469,0.0508 5.8688,-1.81269 7.73917,-3.03215 13.5,-8.79297 5.76083,-5.76083 6.98028,-7.63121 8.79297,-13.5 1.1574,-3.74723 2.10352,-8.96939 2.10352,-11.60352 0,-2.63412 -0.94612,-7.85433 -2.10352,-11.60156 -1.81269,-5.86879 -3.03214,-7.74112 -8.79297,-13.50195 -5.76083,-5.76083 -7.6312,-6.98028 -13.5,-8.79297 -3.74723,-1.1574 -8.96939,-2.10352 -11.60351,-2.10352 z"
       style=""
       id="path24" />
    <path
       d="m 1828.041,677.42773 c -14.2295,0 -22.1345,1.90456 -34.5,8.31055 -9.6183,4.98283 -23.7066,19.07112 -28.6894,28.68945 -6.406,12.3655 -8.3106,20.27054 -8.3106,34.5 0,10.30652 0.4108,13.81609 2.3418,20 4.0612,13.00636 8.6933,20.59748 18.627,30.53125 11.4018,11.40179 21.9733,17.15035 37.6074,20.44727 7.4513,1.57133 25.5082,0.50131 33.4238,-1.98047 12.5497,-3.93469 20.2138,-8.64748 30.0332,-18.4668 9.9337,-9.93377 14.5638,-17.52489 18.625,-30.53125 3.3622,-10.76748 3.3622,-29.23251 0,-40 -4.0612,-13.00635 -8.6913,-20.59748 -18.625,-30.53125 -9.9338,-9.93377 -17.5268,-14.56573 -30.5332,-18.62695 -6.1839,-1.93091 -9.6935,-2.3418 -20,-2.3418 z"
       style=""
       id="path23" />
    <path
       d="m 566.83398,677.13281 c -4.4833,0.23411 -6.65169,0.77274 -10.02343,1.79688 -6.28653,1.90947 -7.95903,2.98051 -13.85547,8.87695 -5.77963,5.77963 -6.99485,7.64731 -8.8086,13.51953 -2.6589,8.60852 -2.6589,14.59656 0,23.20508 1.81269,5.86879 3.0302,7.73917 8.79102,13.5 9.78193,9.78192 13.93262,10.89648 40.56641,10.89648 h 20.25 l 0.64062,6.88086 c 0.8154,8.77334 3.86494,18.72326 8.46484,27.61914 4.99281,9.65574 19.06968,23.72162 28.68165,28.65821 14.99185,7.69962 20.19318,8.59704 50.64453,8.73242 22.41207,0.0996 25.26305,-0.0804 31.45898,-1.99414 5.8688,-1.81269 7.73917,-3.03215 13.5,-8.79297 5.76083,-5.76083 6.98028,-7.63121 8.79297,-13.5 2.65891,-8.60852 2.65891,-14.59656 0,-23.20508 -1.81269,-5.86879 -3.03214,-7.74112 -8.79297,-13.50195 -9.78193,-9.78192 -13.93067,-10.89649 -40.56445,-10.89649 h -20.25196 l -0.63867,-6.88086 c -1.57119,-16.90527 -8.31749,-30.85265 -21.11523,-43.65039 -9.75261,-9.7526 -17.24823,-14.38419 -30.0332,-18.55664 -6.41912,-2.0949 -9.22166,-2.31748 -33.78907,-2.68359 -12.6349,-0.18829 -19.43466,-0.25755 -23.91797,-0.0234 z"
       style=""
       id="path22" />
    <path
       d="m 136.04102,677.03711 c -3.64911,0 -7.29731,0.66469 -11.60157,1.99414 -5.87222,1.81375 -7.73989,3.03092 -13.51953,8.81055 -5.84818,5.84819 -6.97601,7.59602 -8.82031,13.66797 -2.10036,6.91498 -2.112303,7.63423 -1.83594,105.93945 l 0.27735,98.97851 2.34961,7 c 4.3498,12.96424 8.91406,20.32617 18.61914,30.03125 12.78185,12.78186 26.74695,19.54573 43.59179,21.11133 l 6.82422,0.63477 0.33984,42.61132 c 0.33049,41.4021 0.40544,42.81 2.65625,49.6113 4.26035,12.8734 8.85909,20.3024 18.5879,30.0313 9.31531,9.3153 17.21234,14.3349 28.10742,17.8672 9.17615,2.975 13.65462,3.3815 38.56836,3.4922 22.41207,0.1 25.26305,-0.08 31.45898,-1.9942 5.8688,-1.8127 7.73917,-3.0321 13.5,-8.7929 5.76083,-5.7608 6.98028,-7.6313 8.79297,-13.5 2.65891,-8.6085 2.65891,-14.5966 0,-23.2051 -1.81269,-5.8688 -3.03214,-7.7412 -8.79297,-13.502 -9.7937,-9.7938 -13.91409,-10.8965 -40.70898,-10.8965 h -20.39453 v -36 -35.99997 h 72 72 v 20.39454 c 0,26.79493 1.10279,30.91533 10.89648,40.70903 5.76083,5.7608 7.63316,6.9802 13.50195,8.7929 3.74723,1.1574 8.96744,2.1035 11.60157,2.1035 2.63412,0 7.85628,-0.9461 11.60351,-2.1035 5.8688,-1.8127 7.73917,-3.0321 13.5,-8.7929 9.79369,-9.7937 10.89649,-13.9141 10.89649,-40.70903 v -20.39454 h 20.39453 c 26.79489,0 30.91528,-1.10282 40.70898,-10.89648 5.76083,-5.76083 6.98028,-7.63121 8.79297,-13.5 2.65891,-8.60852 2.65891,-14.59656 0,-23.20508 -1.81269,-5.86879 -3.03214,-7.74112 -8.79297,-13.50195 -9.78193,-9.78192 -13.93067,-10.89649 -40.56445,-10.89649 h -20.25196 l -0.63867,-6.88086 c -1.57119,-16.90527 -8.31749,-30.85265 -21.11523,-43.65039 -9.93377,-9.93377 -17.52685,-14.56573 -30.5332,-18.62695 -10.76749,-3.36213 -29.23252,-3.36213 -40,0 -13.00636,4.06122 -20.59748,8.69318 -30.53125,18.62695 -12.79774,12.79774 -19.54405,26.74512 -21.11524,43.65039 l -0.64062,6.88086 H 243.89844 172.04102 V 800.5332 c 0,-91.09697 -0.0288,-92.48957 -2.10352,-99.20703 -1.81269,-5.86879 -3.03214,-7.74112 -8.79297,-13.50195 -5.76083,-5.76083 -7.6312,-6.98028 -13.5,-8.79297 -4.30426,-1.32945 -7.95441,-1.99414 -11.60351,-1.99414 z"
       style=""
       id="path21" />
    <path
       d="m 712.04102,532.92773 c -2.63413,0 -7.85434,0.94612 -11.60157,2.10352 -5.86879,1.81269 -7.74112,3.03214 -13.50195,8.79297 -5.76082,5.76083 -6.97833,7.63316 -8.79102,13.50195 -1.15739,3.74723 -2.10546,8.96744 -2.10546,11.60156 0,2.63413 0.94807,7.85629 2.10546,11.60352 1.81305,5.86998 3.03148,7.73852 8.79883,13.50586 5.61719,5.61719 7.73077,7.02282 13.14453,8.73633 8.35349,2.64395 15.10992,2.65907 23.55469,0.0508 5.8688,-1.81269 7.73917,-3.03215 13.5,-8.79297 5.76083,-5.76083 6.98028,-7.63121 8.79297,-13.5 1.1574,-3.74723 2.10352,-8.96939 2.10352,-11.60352 0,-2.63412 -0.94612,-7.85433 -2.10352,-11.60156 -1.81269,-5.86879 -3.03214,-7.74112 -8.79297,-13.50195 -5.76083,-5.76083 -7.6312,-6.98028 -13.5,-8.79297 -3.74723,-1.1574 -8.96939,-2.10352 -11.60351,-2.10352 z"
       style=""
       id="path20" />
    <path
       d="m 712.04102,532.92773 c 2.63412,0 7.85628,0.94612 11.60351,2.10352 5.8688,1.81269 7.73917,3.03214 13.5,8.79297 5.76083,5.76083 6.98028,7.63316 8.79297,13.50195 1.1574,3.74723 2.10352,8.96744 2.10352,11.60156 0,2.63413 -0.94612,7.85629 -2.10352,11.60352 -1.81269,5.86879 -3.03214,7.73917 -8.79297,13.5 -5.76083,5.76082 -7.6312,6.98028 -13.5,8.79297 -8.44477,2.60829 -15.2012,2.59317 -23.55469,-0.0508 -5.41376,-1.71351 -7.52734,-3.11914 -13.14453,-8.73633 -5.76735,-5.76734 -6.98578,-7.63588 -8.79883,-13.50586 -1.15739,-3.74723 -2.10546,-8.96939 -2.10546,-11.60352 0,-2.63412 0.94807,-7.85433 2.10546,-11.60156 1.81269,-5.86879 3.0302,-7.74112 8.79102,-13.50195 5.76083,-5.76083 7.63316,-6.98028 13.50195,-8.79297 3.74723,-1.1574 8.96744,-2.10352 11.60157,-2.10352 z"
       style=""
       id="path19" />
    <path
       d="m 1288.041,461.03711 c -3.6491,0 -7.2973,0.66469 -11.6015,1.99414 -5.8688,1.81269 -7.7412,3.03214 -13.502,8.79297 -5.7609,5.76083 -6.9783,7.63316 -8.791,13.50195 -1.9934,6.4539 -2.1055,8.96302 -2.1055,47.60156 0,38.63855 0.1121,41.14963 2.1055,47.60352 1.813,5.86998 3.0314,7.73852 8.7988,13.50586 5.6171,5.61719 7.7307,7.02282 13.1445,8.73633 8.3535,2.64395 15.1099,2.65907 23.5547,0.0508 5.8688,-1.81269 7.7392,-3.03215 13.5,-8.79297 5.7609,-5.76083 6.9803,-7.63121 8.793,-13.5 1.9934,-6.45389 2.1035,-8.96497 2.1035,-47.60352 0,-38.63854 -0.1101,-41.14766 -2.1035,-47.60156 -1.8127,-5.86879 -3.0321,-7.74112 -8.793,-13.50195 -5.7608,-5.76083 -7.6312,-6.98028 -13.5,-8.79297 -4.3042,-1.32945 -7.9544,-1.99414 -11.6035,-1.99414 z"
       style=""
       id="path18" />
    <path
       d="m 1144.041,461.03711 c -3.6491,0 -7.2973,0.66469 -11.6015,1.99414 -5.8688,1.81269 -7.7412,3.03214 -13.502,8.79297 -5.7609,5.76083 -6.9783,7.63316 -8.791,13.50195 -2.0338,6.58448 -2.1055,8.70519 -2.1055,63.20703 v 56.39453 h -20.3945 c -26.7949,0 -30.9153,1.1028 -40.709,10.89649 -5.7609,5.76083 -6.9783,7.63316 -8.791,13.50195 -1.1574,3.74723 -2.1055,8.96744 -2.1055,11.60156 0,2.63413 0.9481,7.85629 2.1055,11.60352 1.8127,5.86879 3.0301,7.73917 8.791,13.5 5.7608,5.76082 7.6332,6.98028 13.502,8.79297 6.5835,2.03347 8.7086,2.10351 63.0644,2.10351 h 56.25 l 0.6406,6.88086 c 1.5712,16.90528 8.3176,30.85266 21.1153,43.65039 12.7618,12.76172 26.7509,19.54505 43.5195,21.10352 l 6.75,0.62891 0.627,6.75 c 1.5584,16.76854 8.3418,30.75586 21.1035,43.51757 12.7978,12.79774 26.7451,19.546 43.6504,21.11719 l 6.8808,0.63867 v 35.71289 35.71289 l -6.8808,0.63868 c -16.9053,1.57119 -30.8526,8.31945 -43.6504,21.11718 -12.7977,12.79774 -19.5441,26.74514 -21.1153,43.65039 l -0.6406,6.88086 h -20.25 c -26.6338,0 -30.7845,1.1146 -40.5664,10.89649 -5.7609,5.76089 -6.9783,7.63316 -8.791,13.50195 -1.1574,3.7472 -2.1055,8.9674 -2.1055,11.60153 0,2.6341 0.9481,7.8563 2.1055,11.6035 1.813,5.87 3.0314,7.7385 8.7988,13.5059 5.5791,5.5791 7.7674,7.0406 13.1445,8.7774 6.0065,1.94 8.3484,2.0635 33.9512,1.7871 25.4891,-0.2752 28.0119,-0.4639 34.5,-2.584 12.7929,-4.1804 20.2827,-8.8082 30.0332,-18.5586 12.7617,-12.7618 19.545,-26.74901 21.1035,-43.51759 l 0.627,-6.75 6.75,-0.62891 c 16.7686,-1.5585 30.7577,-8.3418 43.5195,-21.10352 12.7977,-12.79773 19.5441,-26.74511 21.1153,-43.65039 l 0.6386,-6.88086 h 35.7129 35.7129 l 0.6406,6.88086 c 1.5712,16.90528 8.3176,30.85266 21.1153,43.65039 9.7527,9.7526 17.2462,14.38425 30.0312,18.55664 6.4191,2.0949 9.2237,2.3175 33.791,2.6836 25.2698,0.3766 27.196,0.27486 33.9395,-1.77344 6.2865,-1.9095 7.9591,-2.98049 13.8555,-8.87695 5.7796,-5.77964 6.9968,-7.64536 8.8105,-13.51758 1.1574,-3.74723 2.1035,-8.96939 2.1035,-11.60352 0,-2.63412 -0.9461,-7.85433 -2.1035,-11.60156 -1.8127,-5.86879 -3.0321,-7.74112 -8.793,-13.50195 -9.7937,-9.79369 -13.9141,-10.89649 -40.709,-10.89649 h -20.3945 v -35.85546 -35.85743 l 6.8828,-0.63867 c 16.9053,-1.57119 30.8526,-8.31945 43.6504,-21.11719 12.7977,-12.79773 19.5441,-26.74511 21.1153,-43.65039 l 0.6386,-6.88086 h 20.252 c 26.6338,0 30.7825,-1.11456 40.5644,-10.89648 5.7609,-5.76083 6.9803,-7.63121 8.793,-13.5 2.6589,-8.60852 2.6589,-14.59656 0,-23.20508 -1.8137,-5.87222 -3.0309,-7.7399 -8.8105,-13.51953 -5.8964,-5.89644 -7.569,-6.96748 -13.8555,-8.87695 -6.7435,-2.04828 -8.6697,-2.15003 -33.9395,-1.77344 -24.5673,0.36611 -27.3719,0.58869 -33.791,2.68359 -12.785,4.17245 -20.2785,8.80404 -30.0312,18.55664 -12.7617,12.76172 -19.5451,26.74904 -21.1035,43.51758 l -0.627,6.75 -6.75,0.62891 c -16.7686,1.55847 -30.7577,8.3418 -43.5195,21.10351 -12.7977,12.79774 -19.5441,26.74512 -21.1153,43.65039 l -0.6406,6.88086 h -35.7969 -35.7988 l -0.3398,-42.75 c -0.3312,-41.546 -0.4069,-42.94714 -2.6582,-49.75 -4.2604,-12.87342 -8.8572,-20.30244 -18.586,-30.03125 -9.7289,-9.72881 -17.1598,-14.32754 -30.0332,-18.58789 -6.8013,-2.25081 -8.2093,-2.32576 -49.6113,-2.65625 l -42.6113,-0.33984 -0.6348,-6.82422 c -1.5655,-16.84484 -8.3276,-30.80994 -21.1094,-43.5918 -12.7978,-12.79773 -26.7451,-19.54599 -43.6504,-21.11718 l -6.8828,-0.63868 v -56.25195 c 0,-54.35587 -0.07,-56.47889 -2.1035,-63.0625 -1.8127,-5.86879 -3.0321,-7.74112 -8.793,-13.50195 -5.7608,-5.76083 -7.6312,-6.98028 -13.5,-8.79297 -4.3042,-1.32945 -7.9544,-1.99414 -11.6035,-1.99414 z"
       style=""
       id="path17" />
    <path
       d="m 1000.041,461.03711 c -3.6491,0 -7.29729,0.66469 -11.60155,1.99414 -5.86879,1.81269 -7.74112,3.03214 -13.50195,8.79297 -5.76082,5.76083 -6.97833,7.63316 -8.79102,13.50195 -1.9934,6.4539 -2.10546,8.96302 -2.10546,47.60156 0,38.63855 0.11206,41.14963 2.10546,47.60352 1.81305,5.86998 3.03148,7.73852 8.79883,13.50586 5.61719,5.61719 7.73077,7.02282 13.14453,8.73633 8.35349,2.64395 15.10986,2.65907 23.55466,0.0508 5.8688,-1.81269 7.7392,-3.03215 13.5,-8.79297 5.7609,-5.76083 6.9803,-7.63121 8.793,-13.5 1.9934,-6.45389 2.1035,-8.96497 2.1035,-47.60352 0,-38.63854 -0.1101,-41.14766 -2.1035,-47.60156 -1.8127,-5.86879 -3.0321,-7.74112 -8.793,-13.50195 -5.7608,-5.76083 -7.6312,-6.98028 -13.5,-8.79297 -4.3042,-1.32945 -7.9544,-1.99414 -11.6035,-1.99414 z"
       style=""
       id="path16" />
    <path
       d="m 1289.25,317.13281 c -4.4833,-0.23411 -11.2831,-0.16485 -23.918,0.0234 -29.8995,0.44558 -33.1867,1.03629 -47.791,8.58789 -9.6239,4.97634 -23.7052,19.0597 -28.6816,28.68359 -7.5516,14.60426 -8.1423,17.89144 -8.5879,47.79102 -0.3766,25.26981 -0.2768,27.19596 1.7715,33.93945 1.9098,6.28776 2.9797,7.95827 8.8828,13.86133 5.6356,5.63564 7.7469,7.03936 13.164,8.75391 8.3535,2.64395 15.1099,2.65907 23.5547,0.0508 5.8688,-1.81269 7.7392,-3.03215 13.5,-8.79297 9.7938,-9.7937 10.8965,-13.91409 10.8965,-40.70898 v -20.39454 h 20.3945 c 26.7949,0 30.9153,-1.10279 40.709,-10.89648 5.7609,-5.76083 6.9803,-7.63121 8.793,-13.5 1.1574,-3.74723 2.1035,-8.96939 2.1035,-11.60352 0,-2.63412 -0.9461,-7.85433 -2.1035,-11.60156 -1.8137,-5.87222 -3.0309,-7.7399 -8.8105,-13.51953 -5.8964,-5.89644 -7.569,-6.96748 -13.8555,-8.87695 -3.3718,-1.02414 -5.5382,-1.56277 -10.0215,-1.79688 z"
       style=""
       id="path15" />
    <path
       d="m 1000.041,316.92773 c -2.63413,0 -7.85432,0.94612 -11.60155,2.10352 -5.86879,1.81269 -7.74112,3.03214 -13.50195,8.79297 -5.76082,5.76083 -6.97833,7.63316 -8.79102,13.50195 -1.15739,3.74723 -2.10546,8.96744 -2.10546,11.60156 0,2.63413 0.94807,7.85629 2.10546,11.60352 1.81305,5.86998 3.03148,7.73852 8.79883,13.50586 5.61719,5.61719 7.73077,7.02282 13.14453,8.73633 8.35349,2.64395 15.10986,2.65907 23.55466,0.0508 5.8688,-1.81269 7.7392,-3.03215 13.5,-8.79297 5.7609,-5.76083 6.9803,-7.63121 8.793,-13.5 1.1574,-3.74723 2.1035,-8.96939 2.1035,-11.60352 0,-2.63412 -0.9461,-7.85433 -2.1035,-11.60156 -1.8127,-5.86879 -3.0321,-7.74112 -8.793,-13.50195 -5.7608,-5.76083 -7.6312,-6.98028 -13.5,-8.79297 -3.7473,-1.1574 -8.9694,-2.10352 -11.6035,-2.10352 z"
       style=""
       id="path14" />
    <path
       d="m 1650.6113,244.98242 c -6.6728,-0.17383 -13.3252,0.29803 -19.8593,1.4375 -24.0226,4.18918 -41.6157,13.30711 -58.7637,30.45508 -13.3528,13.35278 -21.2562,26.00718 -26.4707,42.38281 -10.3033,32.35629 -5.7296,65.48428 13,94.16992 5.0425,7.72285 21.3006,23.98294 29.0234,29.02539 23.5927,15.40427 51.6824,21.5354 77.791,16.98243 24.0226,-4.18918 41.6157,-13.30711 58.7637,-30.45508 13.3528,-13.35278 21.2562,-26.00523 26.4707,-42.38086 10.3033,-32.35629 5.7296,-65.48623 -13,-94.17188 -5.0425,-7.72284 -21.3026,-23.98293 -29.0254,-29.02539 -17.7135,-11.56565 -37.9113,-17.89843 -57.9297,-18.41992 z"
       style=""
       id="path13" />
    <path
       d="m 354.61133,244.98242 c -6.6728,-0.17383 -13.32517,0.29803 -19.85938,1.4375 -24.02248,4.18918 -41.61571,13.30711 -58.76367,30.45508 -13.35279,13.35278 -21.25618,26.00718 -26.4707,42.38281 -10.30328,32.35629 -5.72961,65.48428 13,94.16992 5.04245,7.72285 21.30059,23.98294 29.02344,29.02539 23.59265,15.40427 51.68233,21.5354 77.79101,16.98243 24.02249,-4.18918 41.61571,-13.30711 58.76367,-30.45508 13.35279,-13.35278 21.25618,-26.00523 26.47071,-42.38086 10.30328,-32.35629 5.72961,-65.48623 -13,-94.17188 -5.04246,-7.72284 -21.30255,-23.98293 -29.02539,-29.02539 -17.71357,-11.56565 -37.91129,-17.89843 -57.92969,-18.41992 z"
       style=""
       id="path12" />
    <path
       d="m 856.04102,173.03711 c -3.64911,0 -7.29731,0.66469 -11.60157,1.99414 -5.86879,1.81269 -7.74112,3.03214 -13.50195,8.79297 -9.79369,9.7937 -10.89648,13.91409 -10.89648,40.70898 v 20.39453 h -20.39454 c -26.79489,0 -30.91528,1.1028 -40.70898,10.89649 -5.76082,5.76083 -6.97833,7.63316 -8.79102,13.50195 -2.6589,8.60852 -2.6589,14.59656 0,23.20508 1.81269,5.86879 3.0302,7.73917 8.79102,13.5 9.7937,9.79369 13.91409,10.89648 40.70898,10.89648 h 20.39454 v 36 36 h -36 -36 V 368.5332 c 0,-26.79489 -1.1028,-30.91528 -10.89649,-40.70898 -5.76083,-5.76083 -7.6312,-6.98028 -13.5,-8.79297 -8.60852,-2.65891 -14.59656,-2.65891 -23.20508,0 -5.87222,1.81375 -7.73989,3.03092 -13.51953,8.81055 -5.89644,5.89644 -6.96748,7.56894 -8.87695,13.85547 -2.04828,6.74349 -2.14808,8.66963 -1.77149,33.93945 0.36611,24.5674 0.58869,27.3719 2.6836,33.79101 4.17244,12.78498 8.80209,20.27864 18.55469,30.03125 12.76171,12.76172 26.75098,19.54505 43.51953,21.10352 l 6.75,0.62891 0.62695,6.75 c 1.55847,16.76854 8.3418,30.75586 21.10352,43.51757 12.78185,12.78186 26.74695,19.54576 43.59179,21.11133 l 6.82422,0.63477 0.33984,42.61133 c 0.33049,41.40209 0.40544,42.81005 2.65625,49.61132 4.26035,12.87343 8.85909,20.30244 18.5879,30.03125 12.79773,12.79774 26.74511,19.546 43.65039,21.11719 l 6.88086,0.63867 v 20.25196 c 0,26.63774 1.11534,30.78136 10.90429,40.57031 5.61719,5.61719 7.73077,7.02282 13.14453,8.73633 8.35349,2.64395 15.10992,2.65907 23.55469,0.0508 5.87223,-1.81375 7.73795,-3.03092 13.51758,-8.81055 5.89644,-5.89644 6.96944,-7.56894 8.87891,-13.85547 2.04827,-6.74349 2.14807,-8.66964 1.77148,-33.93945 -0.36611,-24.56741 -0.58869,-27.3719 -2.68359,-33.79102 -4.17245,-12.78497 -8.80209,-20.27864 -18.55469,-30.03125 -12.79774,-12.79773 -26.74512,-19.54599 -43.65039,-21.11718 l -6.88281,-0.63868 v -71.85546 -71.85743 h 20.39453 c 26.79489,0 30.91528,-1.10279 40.70898,-10.89648 5.76083,-5.76083 6.98028,-7.63121 8.79297,-13.5 1.1574,-3.74723 2.10352,-8.96939 2.10352,-11.60352 0,-2.63412 -0.94612,-7.85433 -2.10352,-11.60156 -1.81269,-5.86879 -3.03214,-7.74112 -8.79297,-13.50195 -9.7937,-9.79369 -13.91409,-10.89649 -40.70898,-10.89649 h -20.39453 v -36 -36 h 20.39453 c 26.79489,0 30.91528,-1.10279 40.70898,-10.89648 5.76083,-5.76083 6.98028,-7.63121 8.79297,-13.5 1.1574,-3.74723 2.10352,-8.96939 2.10352,-11.60352 0,-2.63412 -0.94612,-7.85433 -2.10352,-11.60156 -1.81269,-5.86879 -3.03214,-7.74112 -8.79297,-13.50195 -9.7937,-9.79369 -13.91409,-10.89649 -40.70898,-10.89649 H 892.04102 V 224.5332 c 0,-26.79489 -1.1028,-30.91528 -10.89649,-40.70898 -5.76083,-5.76083 -7.6312,-6.98028 -13.5,-8.79297 -4.30426,-1.32945 -7.95441,-1.99414 -11.60351,-1.99414 z"
       style=""
       id="path9" />
    <path
       d="m 856.04102,173.03711 c 3.6491,0 7.29925,0.66469 11.60351,1.99414 5.8688,1.81269 7.73917,3.03214 13.5,8.79297 9.79369,9.7937 10.89649,13.91409 10.89649,40.70898 v 20.39453 h 20.39453 c 26.79489,0 30.91528,1.1028 40.70898,10.89649 5.76083,5.76083 6.98028,7.63316 8.79297,13.50195 1.1574,3.74723 2.10352,8.96744 2.10352,11.60156 0,2.63413 -0.94612,7.85629 -2.10352,11.60352 -1.81269,5.86879 -3.03214,7.73917 -8.79297,13.5 -9.7937,9.79369 -13.91409,10.89648 -40.70898,10.89648 h -20.39453 v 36 36 h 20.39453 c 26.79489,0 30.91528,1.1028 40.70898,10.89649 5.76083,5.76083 6.98028,7.63316 8.79297,13.50195 1.1574,3.74723 2.10352,8.96744 2.10352,11.60156 0,2.63413 -0.94612,7.85629 -2.10352,11.60352 -1.81269,5.86879 -3.03214,7.73917 -8.79297,13.5 -9.7937,9.79369 -13.91409,10.89648 -40.70898,10.89648 h -20.39453 v 71.85743 71.85546 l 6.88281,0.63868 c 16.90527,1.57119 30.85265,8.31945 43.65039,21.11718 9.7526,9.75261 14.38224,17.24628 18.55469,30.03125 2.0949,6.41912 2.31748,9.22361 2.68359,33.79102 0.37659,25.26981 0.27679,27.19596 -1.77148,33.93945 -1.90947,6.28653 -2.98247,7.95903 -8.87891,13.85547 -5.77963,5.77963 -7.64535,6.9968 -13.51758,8.81055 -8.44477,2.60829 -15.2012,2.59317 -23.55469,-0.0508 -5.41376,-1.71351 -7.52734,-3.11914 -13.14453,-8.73633 -9.78895,-9.78895 -10.90429,-13.93257 -10.90429,-40.57031 v -20.25196 l -6.88086,-0.63867 c -16.90528,-1.57119 -30.85266,-8.31945 -43.65039,-21.11719 -9.72881,-9.72881 -14.32755,-17.15782 -18.5879,-30.03125 -2.25081,-6.80127 -2.32576,-8.20923 -2.65625,-49.61132 l -0.33984,-42.61133 -6.82422,-0.63477 c -16.84484,-1.56557 -30.80994,-8.32947 -43.59179,-21.11133 -12.76172,-12.76171 -19.54505,-26.74903 -21.10352,-43.51757 l -0.62695,-6.75 -6.75,-0.62891 c -16.76855,-1.55847 -30.75782,-8.3418 -43.51953,-21.10352 -9.7526,-9.75261 -14.38225,-17.24627 -18.55469,-30.03125 -2.09491,-6.41911 -2.31749,-9.22361 -2.6836,-33.79101 -0.37659,-25.26982 -0.27679,-27.19596 1.77149,-33.93945 1.90947,-6.28653 2.98051,-7.95903 8.87695,-13.85547 5.77964,-5.77963 7.64731,-6.9968 13.51953,-8.81055 8.60852,-2.65891 14.59656,-2.65891 23.20508,0 5.8688,1.81269 7.73917,3.03214 13.5,8.79297 9.79369,9.7937 10.89649,13.91409 10.89649,40.70898 v 20.39453 h 36 36 v -36 -36 h -20.39454 c -26.79489,0 -30.91528,-1.10279 -40.70898,-10.89648 -5.76082,-5.76083 -6.97833,-7.63121 -8.79102,-13.5 -2.6589,-8.60852 -2.6589,-14.59656 0,-23.20508 1.81269,-5.86879 3.0302,-7.74112 8.79102,-13.50195 9.7937,-9.79369 13.91409,-10.89649 40.70898,-10.89649 h 20.39454 V 224.5332 c 0,-26.79489 1.10279,-30.91528 10.89648,-40.70898 5.76083,-5.76083 7.63316,-6.98028 13.50195,-8.79297 4.30426,-1.32945 7.95246,-1.99414 11.60157,-1.99414 z M 1000.041,316.92773 c 2.6341,0 7.8562,0.94612 11.6035,2.10352 5.8688,1.81269 7.7392,3.03214 13.5,8.79297 5.7609,5.76083 6.9803,7.63316 8.793,13.50195 1.1574,3.74723 2.1035,8.96744 2.1035,11.60156 0,2.63413 -0.9461,7.85629 -2.1035,11.60352 -1.8127,5.86879 -3.0321,7.73917 -8.793,13.5 -5.7608,5.76082 -7.6312,6.98028 -13.5,8.79297 -8.4448,2.60829 -15.20117,2.59317 -23.55466,-0.0508 -5.41376,-1.71351 -7.52734,-3.11914 -13.14453,-8.73633 -5.76735,-5.76734 -6.98578,-7.63588 -8.79883,-13.50586 -1.15739,-3.74723 -2.10546,-8.96939 -2.10546,-11.60352 0,-2.63412 0.94807,-7.85433 2.10546,-11.60156 1.81269,-5.86879 3.0302,-7.74112 8.79102,-13.50195 5.76083,-5.76083 7.63316,-6.98028 13.50195,-8.79297 3.74723,-1.1574 8.96742,-2.10352 11.60155,-2.10352 z m 289.209,0.20508 c 4.4833,0.23411 6.6497,0.77274 10.0215,1.79688 6.2865,1.90947 7.9591,2.98051 13.8555,8.87695 5.7796,5.77963 6.9968,7.64731 8.8105,13.51953 1.1574,3.74723 2.1035,8.96744 2.1035,11.60156 0,2.63413 -0.9461,7.85629 -2.1035,11.60352 -1.8127,5.86879 -3.0321,7.73917 -8.793,13.5 -9.7937,9.79369 -13.9141,10.89648 -40.709,10.89648 h -20.3945 v 20.39454 c 0,26.79489 -1.1027,30.91528 -10.8965,40.70898 -5.7608,5.76082 -7.6312,6.98028 -13.5,8.79297 -8.4448,2.60829 -15.2012,2.59317 -23.5547,-0.0508 -5.4171,-1.71455 -7.5284,-3.11827 -13.164,-8.75391 -5.9031,-5.90306 -6.973,-7.57357 -8.8828,-13.86133 -2.0483,-6.74349 -2.1481,-8.66964 -1.7715,-33.93945 0.4456,-29.89958 1.0363,-33.18676 8.5879,-47.79102 4.9764,-9.62389 19.0577,-23.70725 28.6816,-28.68359 14.6043,-7.5516 17.8915,-8.14231 47.791,-8.58789 12.6349,-0.18829 19.4347,-0.25755 23.918,-0.0234 z m -289.209,143.9043 c 3.6491,0 7.2993,0.66469 11.6035,1.99414 5.8688,1.81269 7.7392,3.03214 13.5,8.79297 5.7609,5.76083 6.9803,7.63316 8.793,13.50195 1.9934,6.4539 2.1035,8.96302 2.1035,47.60156 0,38.63855 -0.1101,41.14963 -2.1035,47.60352 -1.8127,5.86879 -3.0321,7.73917 -8.793,13.5 -5.7608,5.76082 -7.6312,6.98028 -13.5,8.79297 -8.4448,2.60829 -15.20117,2.59317 -23.55466,-0.0508 -5.41376,-1.71351 -7.52734,-3.11914 -13.14453,-8.73633 -5.76735,-5.76734 -6.98578,-7.63588 -8.79883,-13.50586 -1.9934,-6.45389 -2.10546,-8.96497 -2.10546,-47.60352 0,-38.63854 0.11206,-41.14766 2.10546,-47.60156 1.81269,-5.86879 3.0302,-7.74112 8.79102,-13.50195 5.76083,-5.76083 7.63316,-6.98028 13.50195,-8.79297 4.30426,-1.32945 7.95245,-1.99414 11.60155,-1.99414 z m 144,0 c 3.6491,0 7.2993,0.66469 11.6035,1.99414 5.8688,1.81269 7.7392,3.03214 13.5,8.79297 5.7609,5.76083 6.9803,7.63316 8.793,13.50195 2.0334,6.58361 2.1035,8.70663 2.1035,63.0625 v 56.25195 l 6.8828,0.63868 c 16.9053,1.57119 30.8526,8.31945 43.6504,21.11718 12.7818,12.78186 19.5439,26.74696 21.1094,43.5918 l 0.6348,6.82422 42.6113,0.33984 c 41.402,0.33049 42.81,0.40544 49.6113,2.65625 12.8734,4.26035 20.3043,8.85908 30.0332,18.58789 9.7288,9.72881 14.3256,17.15783 18.586,30.03125 2.2513,6.80286 2.327,8.204 2.6582,49.75 l 0.3398,42.75 h 35.7988 35.7969 l 0.6406,-6.88086 c 1.5712,-16.90527 8.3176,-30.85265 21.1153,-43.65039 12.7618,-12.76171 26.7509,-19.54504 43.5195,-21.10351 l 6.75,-0.62891 0.627,-6.75 c 1.5584,-16.76854 8.3418,-30.75586 21.1035,-43.51758 9.7527,-9.7526 17.2462,-14.38419 30.0312,-18.55664 6.4191,-2.0949 9.2237,-2.31748 33.791,-2.68359 25.2698,-0.37659 27.196,-0.27484 33.9395,1.77344 6.2865,1.90947 7.9591,2.98051 13.8555,8.87695 5.7796,5.77963 6.9968,7.64731 8.8105,13.51953 2.6589,8.60852 2.6589,14.59656 0,23.20508 -1.8127,5.86879 -3.0321,7.73917 -8.793,13.5 -9.7819,9.78192 -13.9306,10.89648 -40.5644,10.89648 h -20.252 l -0.6386,6.88086 c -1.5712,16.90528 -8.3176,30.85266 -21.1153,43.65039 -12.7978,12.79774 -26.7451,19.546 -43.6504,21.11719 l -6.8828,0.63867 v 35.85743 35.85546 h 20.3945 c 26.7949,0 30.9153,1.1028 40.709,10.89649 5.7609,5.76083 6.9803,7.63316 8.793,13.50195 1.1574,3.74723 2.1035,8.96744 2.1035,11.60156 0,2.63413 -0.9461,7.85629 -2.1035,11.60352 -1.8137,5.87222 -3.0309,7.73794 -8.8105,13.51758 -5.8964,5.89646 -7.569,6.96745 -13.8555,8.87695 -6.7435,2.0483 -8.6697,2.15004 -33.9395,1.77344 -24.5673,-0.3661 -27.3719,-0.5887 -33.791,-2.6836 -12.785,-4.17239 -20.2785,-8.80404 -30.0312,-18.55664 -12.7977,-12.79773 -19.5441,-26.74511 -21.1153,-43.65039 l -0.6406,-6.88086 h -35.7129 -35.7129 l -0.6386,6.88086 c -1.5712,16.90528 -8.3176,30.85266 -21.1153,43.65039 -12.7618,12.76172 -26.7509,19.54502 -43.5195,21.10352 l -6.75,0.62891 -0.627,6.75 c -1.5585,16.76858 -8.3418,30.75579 -21.1035,43.51759 -9.7505,9.7504 -17.2403,14.3782 -30.0332,18.5586 -6.4881,2.1201 -9.0109,2.3088 -34.5,2.584 -25.6028,0.2764 -27.9447,0.1529 -33.9512,-1.7871 -5.3771,-1.7368 -7.5654,-3.1983 -13.1445,-8.7774 -5.7674,-5.7674 -6.9858,-7.6359 -8.7988,-13.5059 -1.1574,-3.7472 -2.1055,-8.9694 -2.1055,-11.6035 0,-2.63413 0.9481,-7.85433 2.1055,-11.60153 1.8127,-5.86879 3.0301,-7.74106 8.791,-13.50195 9.7819,-9.78189 13.9326,-10.89649 40.5664,-10.89649 h 20.25 l 0.6406,-6.88086 c 1.5712,-16.90525 8.3176,-30.85265 21.1153,-43.65039 12.7978,-12.79773 26.7451,-19.54599 43.6504,-21.11718 l 6.8808,-0.63868 v -35.71289 -35.71289 l -6.8808,-0.63867 c -16.9053,-1.57119 -30.8526,-8.31945 -43.6504,-21.11719 -12.7617,-12.76171 -19.5451,-26.74903 -21.1035,-43.51757 l -0.627,-6.75 -6.75,-0.62891 c -16.7686,-1.55847 -30.7577,-8.3418 -43.5195,-21.10352 -12.7977,-12.79773 -19.5441,-26.74511 -21.1153,-43.65039 l -0.6406,-6.88086 h -56.25 c -54.3558,0 -56.4809,-0.07 -63.0644,-2.10351 -5.8688,-1.81269 -7.7412,-3.03215 -13.502,-8.79297 -5.7609,-5.76083 -6.9783,-7.63121 -8.791,-13.5 -1.1574,-3.74723 -2.1055,-8.96939 -2.1055,-11.60352 0,-2.63412 0.9481,-7.85433 2.1055,-11.60156 1.8127,-5.86879 3.0301,-7.74112 8.791,-13.50195 9.7937,-9.79369 13.9141,-10.89649 40.709,-10.89649 h 20.3945 V 548.5332 c 0,-54.50184 0.072,-56.62255 2.1055,-63.20703 1.8127,-5.86879 3.0301,-7.74112 8.791,-13.50195 5.7608,-5.76083 7.6332,-6.98028 13.502,-8.79297 4.3042,-1.32945 7.9524,-1.99414 11.6015,-1.99414 z m 144,0 c 3.6491,0 7.2993,0.66469 11.6035,1.99414 5.8688,1.81269 7.7392,3.03214 13.5,8.79297 5.7609,5.76083 6.9803,7.63316 8.793,13.50195 1.9934,6.4539 2.1035,8.96302 2.1035,47.60156 0,38.63855 -0.1101,41.14963 -2.1035,47.60352 -1.8127,5.86879 -3.0321,7.73917 -8.793,13.5 -5.7608,5.76082 -7.6312,6.98028 -13.5,8.79297 -8.4448,2.60829 -15.2012,2.59317 -23.5547,-0.0508 -5.4138,-1.71351 -7.5274,-3.11914 -13.1445,-8.73633 -5.7674,-5.76734 -6.9858,-7.63588 -8.7988,-13.50586 -1.9934,-6.45389 -2.1055,-8.96497 -2.1055,-47.60352 0,-38.63854 0.1121,-41.14766 2.1055,-47.60156 1.8127,-5.86879 3.0301,-7.74112 8.791,-13.50195 5.7608,-5.76083 7.6332,-6.98028 13.502,-8.79297 4.3042,-1.32945 7.9524,-1.99414 11.6015,-1.99414 z"
       style=""
       id="path8" />
    <path
       d="m 1648.041,101.37305 c -12.7617,0 -25.5234,0.63533 -34.5,1.90429 -54.966,7.7702 -105.4478,33.20189 -145.0078,73.05274 -37.2691,37.5431 -61.6721,86.80006 -70.1523,141.59765 -2.5,16.15411 -2.4975,53.87691 0.01,70 11.6792,75.25321 52.471,138.17766 115.6563,178.40821 11.0864,7.0588 37.8465,19.85396 51.1113,24.4375 18.7802,6.48929 43.3024,11.85261 61.8887,13.53711 11.8261,1.07182 47.8213,-0.30983 59.5488,-2.28516 43.7248,-7.36817 83.3185,-24.73585 118.4453,-51.95508 11.0182,-8.53779 29.6238,-27.1039 39.2246,-39.14258 28.2302,-35.39849 47.0109,-78.76 53.2735,-123 9.6338,-68.05358 -9.703,-138.27211 -53.1485,-193 -8.8224,-11.11355 -26.4291,-28.63328 -38.3496,-38.16211 -35.5611,-28.42635 -78.8547,-47.17706 -123.5,-53.48828 -8.9765,-1.26896 -21.7383,-1.90429 -34.5,-1.90429 z m 0,72.125 c 29.5068,0 52.4219,5.23265 78.5,17.92382 22.9674,11.17733 40.5762,24.50145 56.5606,42.80079 23.2687,26.63861 37.8001,58.43329 43.0547,94.20507 1.835,12.49311 1.6092,39.58829 -0.4336,52 -9.5111,57.78643 -44.0188,105.78787 -94.92,132.03516 -30.5555,15.75606 -64.7168,22.47436 -98.7617,19.42383 -38.3412,-3.43551 -74.1019,-18.77821 -102.9883,-44.1875 -32.1128,-28.2475 -51.5753,-64.37426 -59.1386,-109.77149 -1.8508,-11.1088 -1.5834,-40.31791 0.4863,-53 7.8692,-48.22 33.848,-90.25112 73.3379,-118.6582 10.9433,-7.87204 35.6317,-20.22465 48.4648,-24.24805 20.4668,-6.41664 34.2654,-8.52343 55.8379,-8.52343 z"
       style=""
       id="path7" />
    <path
       d="m 352.04102,101.37305 c -12.76171,0 -25.52344,0.63533 -34.5,1.90429 -54.96602,7.7702 -105.44785,33.20189 -145.00782,73.05274 -37.26908,37.5431 -61.67208,86.80006 -70.15234,141.59765 -2.499939,16.15411 -2.498284,53.87691 0.004,70 11.67925,75.25321 52.47099,138.17766 115.65625,178.40821 11.08639,7.0588 37.84842,19.85396 51.11328,24.4375 18.78015,6.48929 43.30047,11.85261 61.88672,13.53711 11.82728,1.07193 47.83073,-0.30952 59.55468,-2.28516 43.72469,-7.36817 83.31848,-24.73585 118.44532,-51.95508 11.01815,-8.53779 29.62381,-27.1039 39.2246,-39.14258 28.23015,-35.39849 47.0108,-78.76 53.27344,-123 9.63371,-68.05358 -9.70307,-138.27211 -53.14844,-193 -8.82243,-11.11355 -26.42911,-28.63328 -38.3496,-38.16211 -35.56119,-28.42635 -78.85472,-47.17706 -123.5,-53.48828 -8.97657,-1.26896 -21.7383,-1.90429 -34.5,-1.90429 z m 0,72.125 c 29.50672,0 52.4219,5.23265 78.5,17.92382 22.96738,11.17733 40.57612,24.50145 56.56054,42.80079 23.26875,26.63861 37.80011,58.43329 43.05469,94.20507 1.83514,12.49311 1.60924,39.58829 -0.43359,52 -9.51105,57.78643 -44.01877,105.78787 -94.91993,132.03516 -30.55561,15.75606 -64.71687,22.47436 -98.76171,19.42383 -38.34127,-3.43551 -74.10197,-18.77821 -102.98829,-44.1875 -32.1129,-28.2475 -51.5753,-64.37426 -59.13867,-109.77149 -1.85078,-11.1088 -1.58332,-40.31791 0.48633,-53 7.86925,-48.22 33.848,-90.25112 73.33789,-118.6582 10.94327,-7.87204 35.63169,-20.22465 48.46484,-24.24805 20.4667,-6.41664 34.26542,-8.52343 55.8379,-8.52343 z"
       style=""
       id="path6" />
    <path
       d="m 1193.5195,101.15039 -98.9785,0.27734 -7,2.34961 c -12.9642,4.34981 -20.3261,8.91406 -30.0312,18.61914 -12.7977,12.79774 -19.5441,26.74512 -21.1153,43.65039 l -0.6406,6.88086 h -20.25 c -26.63376,0 -30.78447,1.11457 -40.5664,10.89649 -5.76082,5.76083 -6.97833,7.63316 -8.79102,13.50195 -1.15739,3.74723 -2.10546,8.96744 -2.10546,11.60156 0,2.63413 0.94807,7.85629 2.10546,11.60352 1.81305,5.86998 3.03148,7.73852 8.79883,13.50586 5.59771,5.5977 7.74954,7.03226 13.14453,8.75781 6.2719,2.00602 8.22003,2.05739 69.95116,1.83594 l 63.5,-0.22852 7,-2.33593 c 12.9287,-4.31486 20.3189,-8.89313 30.0332,-18.60743 12.7977,-12.79773 19.5441,-26.74511 21.1153,-43.65039 l 0.6386,-6.88086 h 56.252 c 54.3558,0 56.4808,-0.07 63.0644,-2.10351 5.8688,-1.81269 7.7392,-3.03215 13.5,-8.79297 5.7609,-5.76083 6.9803,-7.63121 8.793,-13.5 1.1574,-3.74723 2.1035,-8.96939 2.1035,-11.60352 0,-2.63412 -0.9461,-7.85433 -2.1035,-11.60156 -1.8137,-5.87222 -3.0309,-7.7399 -8.8105,-13.51953 -5.8481,-5.84818 -7.5961,-6.97601 -13.668,-8.82031 -6.915,-2.10037 -7.6342,-2.11231 -105.9395,-1.83594 z"
       style=""
       id="path5" />
    <path
       d="m 785.25,101.13281 c -4.48331,-0.23411 -11.28306,-0.16486 -23.91797,0.0234 -29.89958,0.44558 -33.18676,1.03629 -47.79101,8.58789 -9.62389,4.97634 -23.70531,19.0597 -28.68165,28.68359 -7.5516,14.60426 -8.14231,17.89144 -8.58789,47.79102 -0.37659,25.26981 -0.27679,27.19596 1.77149,33.93945 1.90984,6.28776 2.97975,7.95827 8.88281,13.86133 5.63564,5.63564 7.747,7.03936 13.16406,8.75391 8.35349,2.64395 15.10992,2.65907 23.55469,0.0508 5.8688,-1.81269 7.73917,-3.03215 13.5,-8.79297 9.79369,-9.7937 10.89649,-13.91409 10.89649,-40.70898 v -20.39454 h 20.39453 c 26.79489,0 30.91528,-1.10279 40.70898,-10.89648 5.76083,-5.76083 6.98028,-7.63121 8.79297,-13.5 1.1574,-3.74723 2.10352,-8.96939 2.10352,-11.60352 0,-2.63412 -0.94612,-7.85433 -2.10352,-11.60156 -1.81375,-5.87222 -3.03092,-7.7399 -8.81055,-13.51953 -5.89644,-5.89644 -7.56894,-6.96748 -13.85547,-8.87695 -3.37174,-1.02414 -5.53817,-1.56277 -10.02148,-1.79688 z"
       style=""
       id="path4" />
    <path
       d="m 928.04102,101.03711 c -3.64911,0 -7.29731,0.66469 -11.60157,1.99414 -5.86879,1.81269 -7.74112,3.03214 -13.50195,8.79297 -5.76082,5.76083 -6.97833,7.63316 -8.79102,13.50195 -1.15739,3.74723 -2.10546,8.96744 -2.10546,11.60156 0,2.63413 0.94807,7.85629 2.10546,11.60352 1.81305,5.86998 3.03148,7.73852 8.79883,13.50586 5.61719,5.61719 7.73077,7.02282 13.14453,8.73633 8.35349,2.64395 15.10992,2.65907 23.55469,0.0508 5.8688,-1.81269 7.73917,-3.03215 13.5,-8.79297 5.76083,-5.76083 6.98028,-7.63121 8.79297,-13.5 1.1574,-3.74723 2.10352,-8.96939 2.10352,-11.60352 0,-2.63412 -0.94612,-7.85433 -2.10352,-11.60156 -1.81269,-5.86879 -3.03214,-7.74112 -8.79297,-13.50195 -5.76083,-5.76083 -7.6312,-6.98028 -13.5,-8.79297 -4.30426,-1.32945 -7.95441,-1.99414 -11.60351,-1.99414 z"
       style=""
       id="path3" />
  </g>
</svg>
